<svg viewBox="0 0 685.309 684.87" xml:space="preserve" xmlns="http://www.w3.org/2000/svg" enable-background="new 0 0 685.309 684.87"><path d="M548.323 122.791C519.874 48.792 449.514 0 369.132 0c-96.46 0-176.54 71.453-190.092 164.216a145.202 145.202 0 0 0-32.234-3.602C65.858 160.614 0 226.472 0 307.42s65.858 146.806 146.806 146.806h371.422c92.131 0 167.082-74.956 167.082-167.087-.001-81.774-57.975-150.121-136.987-164.348z" fill="#1ab5ed" class="fill-00bbd3"></path><path d="M548.323 122.791C519.874 48.792 449.514 0 369.132 0c-13.683 0-26.984 1.584-39.867 4.319 62.899 13.333 115.199 57.221 138.749 118.472C547.027 137.018 605 205.365 605 287.138c0 92.131-74.95 167.087-167.082 167.087h80.31c92.131 0 167.082-74.956 167.082-167.087-.001-81.773-57.975-150.12-136.987-164.347z" fill="#1ab5ed" class="fill-00abc0"></path><path d="m585.204 530.865-13.001-7.508 13.001-7.503c7.681-4.434 10.316-14.263 5.877-21.944-4.434-7.681-14.242-10.316-21.939-5.877l-13.003 7.508v-15.016c0-8.868-7.189-16.062-16.062-16.062s-16.062 7.194-16.062 16.062v15.011l-12.998-7.503c-7.681-4.439-17.5-1.804-21.939 5.877s-1.804 17.51 5.877 21.944l13.001 7.503-13.001 7.508c-7.681 4.434-10.316 14.258-5.877 21.939 2.975 5.155 8.371 8.036 13.923 8.036 2.724 0 5.485-.695 8.015-2.154l12.998-7.508v15.011c0 8.873 7.189 16.062 16.062 16.062s16.062-7.189 16.062-16.062v-15.011l13.003 7.508a16.005 16.005 0 0 0 8.015 2.154c5.553 0 10.948-2.881 13.923-8.036 4.441-7.681 1.806-17.506-5.875-21.939zM387.776 633.484l-12.998-7.508 12.998-7.508c7.681-4.434 10.316-14.258 5.877-21.939-4.434-7.681-14.248-10.311-21.939-5.877l-12.998 7.503v-15.011c0-8.868-7.189-16.062-16.062-16.062-8.873 0-16.062 7.194-16.062 16.062v15.011l-12.998-7.503c-7.686-4.434-17.5-1.804-21.939 5.877s-1.804 17.505 5.877 21.939l12.998 7.508-12.998 7.508c-7.681 4.434-10.316 14.258-5.877 21.939 2.975 5.155 8.371 8.031 13.923 8.031 2.724 0 5.485-.69 8.015-2.154l12.998-7.503v15.011c0 8.868 7.189 16.062 16.062 16.062 8.873 0 16.062-7.194 16.062-16.062v-15.011l12.998 7.503a15.954 15.954 0 0 0 8.015 2.154c5.553 0 10.948-2.876 13.923-8.031 4.441-7.681 1.806-17.505-5.875-21.939zM188.116 530.865l-13.001-7.508 13.001-7.503c7.681-4.434 10.316-14.263 5.877-21.944-4.434-7.681-14.242-10.316-21.939-5.877l-12.998 7.503v-15.011c0-8.868-7.189-16.062-16.062-16.062s-16.062 7.194-16.062 16.062v15.016l-13.003-7.508c-7.686-4.439-17.505-1.804-21.939 5.877-4.439 7.681-1.804 17.51 5.877 21.944l13.001 7.503-13.001 7.508c-7.681 4.434-10.316 14.258-5.877 21.939 2.975 5.155 8.371 8.036 13.923 8.036 2.724 0 5.485-.695 8.015-2.154l13.003-7.508v15.011c0 8.873 7.189 16.062 16.062 16.062s16.062-7.189 16.062-16.062v-15.011l12.998 7.508a16.005 16.005 0 0 0 8.015 2.154c5.553 0 10.948-2.881 13.923-8.036 4.441-7.681 1.806-17.506-5.875-21.939z" fill="#80d3f9" class="fill-80d3f9"></path><path d="M342.655 536.243c-5.678 0-11.137-2.248-15.1-6.211-4.068-3.962-6.316-9.529-6.316-15.204 0-5.568 2.248-11.137 6.211-15.099 8.031-7.924 22.378-7.924 30.299 0 4.073 3.962 6.321 9.53 6.321 15.099 0 5.676-2.248 11.243-6.321 15.204-3.958 3.963-9.526 6.211-15.094 6.211zM142.952 668.808c-5.568 0-11.137-2.25-15.1-6.211-3.963-4.069-6.316-9.529-6.316-15.204s2.353-11.137 6.316-15.099c7.921-8.031 22.273-8.031 30.304 0 3.958 3.962 6.211 9.423 6.211 15.099s-2.253 11.135-6.211 15.099c-3.963 4.066-9.531 6.316-15.204 6.316zM540.109 668.808c-5.678 0-11.137-2.25-15.204-6.211-3.963-4.069-6.211-9.529-6.211-15.204s2.248-11.137 6.211-15.099c7.921-8.031 22.378-8.031 30.304 0 3.958 3.962 6.316 9.423 6.316 15.099 0 5.568-2.358 11.135-6.316 15.099-3.964 4.066-9.532 6.316-15.1 6.316z" fill="#039ae4" class="fill-039ae4"></path></svg>