<?xml version="1.0" standalone="no"?>
<!DOCTYPE svg PUBLIC "-//W3C//DTD SVG 20010904//EN"
 "http://www.w3.org/TR/2001/REC-SVG-20010904/DTD/svg10.dtd">
<svg version="1.0" xmlns="http://www.w3.org/2000/svg"
 width="200.000000pt" height="200.000000pt" viewBox="0 0 2000.000000 2000.000000"
 preserveAspectRatio="xMidYMid meet">

<g transform="translate(0.000000,2000.000000) scale(0.100000,-0.100000)"
fill="#000000" stroke="none">
<path d="M10223 18338 c3 -10 2 -20 -4 -24 -6 -3 -8 -11 -6 -17 2 -7 1 -19 -4
-28 -10 -20 -26 -125 -31 -214 -2 -22 -7 -43 -12 -46 -5 -4 -10 -26 -12 -50
-1 -24 -5 -77 -8 -118 -3 -41 -10 -77 -14 -80 -40 -26 -49 -771 -11 -818 6 -6
8 -21 4 -32 -3 -12 -3 -26 2 -33 12 -20 12 -37 0 -45 -25 -15 -33 -10 -34 21
0 17 -2 49 -6 71 -3 22 -9 78 -13 125 -4 58 -9 79 -15 65 -7 -19 -8 -19 -8 2
-1 12 3 24 7 27 5 3 7 29 5 58 -8 119 -6 189 16 421 5 51 8 109 7 129 -1 20 2
34 6 32 3 -2 6 10 6 28 -1 56 12 152 22 162 13 13 13 29 1 21 -5 -3 -3 7 4 23
8 15 15 53 16 85 1 34 6 54 12 50 6 -3 8 6 5 25 -2 17 -1 33 4 34 4 2 10 30
12 63 l5 60 -25 -30 c-13 -16 -22 -36 -19 -43 3 -7 0 -10 -5 -7 -6 3 -10 -1
-10 -10 0 -21 -37 -102 -50 -110 -6 -4 -8 -11 -4 -16 3 -5 0 -17 -7 -26 -8 -9
-14 -21 -15 -27 -2 -29 -17 -76 -24 -76 -4 0 -10 -31 -12 -70 -3 -38 -10 -75
-16 -82 -17 -21 -33 -537 -21 -656 4 -37 5 -69 3 -71 -10 -10 -32 27 -54 88
-12 36 -31 78 -41 95 -11 17 -22 39 -25 49 -4 9 -13 17 -20 17 -8 0 -14 6 -14
14 0 7 -7 19 -15 26 -8 7 -15 21 -15 32 0 10 -4 16 -10 13 -5 -3 -10 -1 -10 6
0 14 -53 80 -110 138 -22 22 -40 44 -40 50 0 9 -25 9 -34 0 -3 -3 2 -27 10
-54 9 -28 17 -54 18 -60 8 -34 29 -85 35 -85 4 0 8 -6 9 -12 2 -31 13 -63 22
-66 6 -2 8 -7 5 -12 -6 -10 15 -60 26 -60 4 0 10 -7 13 -16 3 -8 2 -12 -3 -9
-5 3 9 -28 32 -69 23 -41 46 -72 50 -69 5 3 7 -3 5 -13 -2 -11 3 -19 11 -19 8
0 16 -7 18 -15 4 -13 3 -13 -6 0 -6 8 -11 11 -11 7 0 -19 62 -97 72 -91 7 5 8
2 3 -6 -6 -10 8 -28 45 -61 54 -48 62 -79 15 -57 -14 6 -25 15 -25 19 0 4 -8
10 -18 13 -10 4 -31 26 -46 51 -16 24 -32 42 -37 39 -5 -3 -6 2 -3 10 3 9 2
16 -4 16 -5 0 -15 13 -22 30 -7 16 -16 27 -21 24 -5 -3 -6 2 -3 10 3 9 1 16
-5 16 -6 0 -11 6 -11 13 0 7 -7 22 -16 33 -14 18 -15 18 -4 -3 15 -31 6 -29
-15 3 -9 15 -12 23 -6 20 16 -10 13 10 -4 27 -8 8 -11 17 -8 21 4 3 1 6 -6 6
-7 0 -9 5 -6 10 3 6 1 10 -5 10 -6 0 -9 3 -7 8 6 9 -28 73 -36 66 -3 -3 -5 1
-4 8 1 31 -4 49 -12 44 -5 -4 -7 3 -4 14 3 11 1 20 -4 20 -5 0 -9 8 -10 18 -1
17 -50 163 -58 170 -2 2 -3 -37 -3 -87 1 -49 5 -88 10 -85 4 3 8 1 8 -5 0 -5
-4 -13 -10 -16 -17 -11 -11 -45 8 -45 13 0 14 -2 3 -9 -11 -7 -11 -9 0 -14 9
-3 10 -6 2 -6 -16 -1 48 -191 65 -191 7 0 11 -4 7 -9 -6 -11 25 -81 37 -81 4
0 8 -5 8 -11 0 -19 62 -102 122 -165 43 -45 83 -73 146 -105 81 -41 93 -44
184 -47 236 -10 485 103 698 317 91 91 183 210 188 244 1 4 6 13 12 20 32 37
59 89 54 102 -4 8 -1 15 7 15 7 0 9 3 6 7 -10 9 -58 -38 -50 -50 3 -6 1 -7 -5
-3 -13 8 -44 -22 -37 -35 4 -5 0 -6 -7 -4 -8 3 -32 -14 -54 -37 -22 -24 -49
-48 -60 -55 -10 -6 -18 -16 -16 -23 1 -6 -2 -9 -7 -6 -10 7 -66 -40 -66 -54 0
-5 -4 -12 -9 -17 -5 -5 -6 -3 -2 5 9 16 -4 15 -26 -2 -10 -7 -14 -16 -10 -20
4 -4 3 -6 -3 -5 -15 5 -96 -52 -89 -62 3 -5 -2 -6 -10 -3 -8 3 -19 -3 -26 -15
-6 -12 -8 -21 -4 -21 3 0 1 -7 -6 -15 -9 -10 -16 -12 -25 -5 -8 6 -28 -1 -65
-25 -30 -19 -58 -35 -63 -35 -4 0 -5 -5 -1 -12 4 -6 3 -8 -3 -5 -6 4 -31 -7
-56 -23 -37 -23 -48 -26 -57 -15 -8 9 -8 15 0 20 6 3 7 11 4 17 -4 7 -2 8 4 4
12 -7 61 16 97 45 11 9 30 20 43 24 12 3 20 11 16 16 -3 5 -2 9 3 8 20 -3 34
2 28 11 -4 6 -3 10 2 8 14 -3 143 84 137 93 -3 5 -2 8 3 7 13 -5 53 28 45 37
-4 5 -1 5 6 1 15 -9 94 58 84 70 -4 4 -2 4 5 0 7 -4 31 12 57 38 25 24 46 42
46 40 0 -2 8 4 18 14 11 9 17 21 14 26 -3 5 -1 6 5 3 5 -3 30 15 54 41 24 25
34 38 23 29 -12 -10 -25 -17 -30 -15 -15 4 -54 -13 -54 -23 0 -6 -5 -7 -12 -3
-7 5 -9 2 -5 -9 4 -11 2 -14 -9 -10 -7 3 -14 0 -14 -7 0 -6 -4 -8 -10 -5 -5 3
-10 -1 -10 -9 0 -9 -3 -15 -7 -15 -23 4 -43 -2 -38 -11 4 -6 -5 -10 -19 -10
-14 0 -26 -5 -26 -11 0 -5 -4 -8 -9 -4 -12 7 -157 -97 -231 -165 -56 -52 -90
-76 -90 -64 0 4 29 53 64 108 35 56 67 111 70 123 4 11 13 27 21 33 9 7 15 29
15 51 0 22 5 39 11 39 6 0 8 7 5 16 -3 8 -2 12 4 9 6 -3 10 0 10 7 0 7 11 36
25 63 13 28 25 57 25 65 0 8 7 28 15 44 8 15 15 43 15 61 0 18 7 38 15 45 16
13 22 130 7 130 -13 0 -73 -130 -66 -142 4 -6 3 -8 -2 -5 -5 3 -45 -65 -88
-151 -43 -86 -85 -165 -93 -174 -8 -9 -12 -22 -8 -27 3 -6 -1 -14 -10 -17 -9
-4 -14 -13 -11 -21 3 -8 2 -11 -3 -8 -9 5 -27 -32 -23 -47 1 -5 -3 -8 -9 -8
-5 0 -8 -4 -5 -9 4 -5 3 -11 -1 -13 -18 -8 -64 -88 -57 -99 4 -7 3 -10 -4 -5
-13 8 -36 -30 -27 -44 4 -6 -1 -13 -10 -16 -13 -5 -13 -9 -3 -22 11 -13 11
-14 0 -8 -15 9 -54 -33 -47 -52 3 -8 0 -10 -7 -6 -8 5 -9 2 -5 -9 4 -10 2 -16
-6 -14 -7 1 -11 -6 -11 -15 1 -10 -2 -16 -6 -13 -11 7 -22 -24 -13 -37 3 -6 1
-8 -5 -4 -5 3 -19 -5 -29 -19 -14 -19 -21 -22 -33 -14 -11 8 -12 12 -3 15 7 3
9 12 6 21 -4 10 -2 14 4 10 13 -8 26 20 16 35 -3 7 -1 8 5 4 7 -4 12 -1 12 8
0 8 6 19 13 23 21 13 78 113 71 125 -4 7 -2 8 4 4 7 -4 12 -1 12 8 0 8 7 21
15 29 8 8 16 21 17 28 2 8 8 18 14 24 21 19 74 127 68 137 -4 6 -3 8 3 5 8 -5
51 67 54 91 0 4 7 14 15 23 8 9 11 19 7 22 -3 4 6 18 21 32 17 15 26 32 22 41
-3 8 -2 13 3 10 8 -5 54 86 55 109 1 6 9 18 18 29 9 10 14 26 11 35 -4 9 -2
13 2 8 5 -4 26 30 48 75 68 140 66 137 51 131 -8 -3 -14 -11 -14 -18 0 -8 -4
-17 -10 -20 -6 -4 -7 1 -3 11 6 15 -41 -31 -137 -136 -23 -25 -53 -66 -67 -92
-14 -26 -30 -45 -34 -42 -5 3 -9 0 -9 -6 0 -6 -11 -28 -24 -49 -14 -21 -23
-42 -20 -45 2 -3 1 -4 -2 -1 -8 5 -34 -20 -34 -34 0 -18 -49 -91 -61 -91 -6 0
-8 -7 -5 -16 3 -9 2 -12 -5 -9 -5 4 -17 -12 -26 -35 -14 -34 -18 -39 -24 -24
-3 11 -3 27 2 36 5 9 9 25 9 35 0 15 -2 16 -10 3 -11 -16 -10 -2 10 130 15 93
8 492 -9 533 -6 16 -12 54 -12 85 -1 31 -4 62 -7 67 -8 12 -12 29 -19 72 -3
18 -12 38 -21 45 -13 11 -15 10 -9 -4z m785 -1043 c-3 -3 -9 2 -12 12 -6 14
-5 15 5 6 7 -7 10 -15 7 -18z m-658 -99 c0 -2 -8 -10 -17 -17 -16 -13 -17 -12
-4 4 13 16 21 21 21 13z m84 -42 c3 -8 2 -12 -4 -9 -6 3 -10 10 -10 16 0 14 7
11 14 -7z m-636 -129 c-3 -3 -9 2 -12 12 -6 14 -5 15 5 6 7 -7 10 -15 7 -18z
m-10 -30 c-3 -3 -9 2 -12 12 -6 14 -5 15 5 6 7 -7 10 -15 7 -18z"/>
<path d="M10786 17895 c-9 -26 -7 -32 5 -12 6 10 9 21 6 23 -2 3 -7 -2 -11
-11z"/>
<path d="M3600 17391 c-21 -14 -24 -253 -4 -308 7 -21 13 -54 14 -73 0 -26 3
-31 10 -20 8 12 10 9 10 -12 0 -16 4 -28 8 -28 4 0 8 -9 8 -20 0 -14 -5 -19
-16 -14 -8 3 -38 8 -66 11 -42 5 -51 3 -51 -11 0 -9 3 -16 6 -16 3 0 7 -24 9
-53 5 -91 64 -244 117 -301 27 -29 55 -68 55 -76 0 -3 -32 -4 -71 -2 l-72 4 7
-27 c11 -44 81 -147 138 -201 72 -70 140 -111 223 -136 91 -27 229 -21 360 17
137 39 150 40 216 19 32 -10 59 -22 59 -26 0 -5 7 -8 15 -8 13 0 14 11 9 68
-6 65 12 168 34 196 13 15 49 125 62 183 6 27 13 56 16 67 4 10 2 16 -3 13 -6
-4 -6 15 -2 46 3 29 5 55 2 59 -4 8 -8 38 -17 142 -3 27 -10 54 -15 59 -6 6
-11 17 -11 25 0 26 -129 182 -151 182 -13 0 -41 -73 -36 -96 8 -43 -18 -26
-32 21 -7 24 -19 49 -27 56 -8 6 -14 17 -14 24 0 7 -22 32 -50 56 -27 23 -47
46 -44 51 3 4 -2 8 -11 8 -8 0 -18 7 -21 15 -4 8 -12 15 -18 15 -7 0 -31 9
-54 20 -22 11 -60 20 -83 20 -35 0 -40 -2 -34 -17 5 -10 10 -33 13 -52 3 -20
7 -28 12 -21 4 7 7 0 7 -17 0 -15 4 -39 8 -53 l8 -25 -25 23 c-13 12 -30 22
-36 22 -7 0 -12 3 -12 8 0 4 -9 13 -21 20 -17 11 -20 11 -14 0 4 -7 -5 2 -20
20 -14 17 -33 32 -41 32 -8 0 -14 5 -14 10 0 6 -3 10 -7 9 -16 -2 -53 14 -53
22 0 5 -3 8 -7 7 -5 -1 -24 5 -43 14 -100 46 -202 67 -230 49z m551 -264 c-10
-9 -11 -8 -5 6 3 10 9 15 12 12 3 -3 0 -11 -7 -18z m124 -119 c14 -29 25 -65
25 -80 0 -57 -64 -85 -120 -53 -14 8 -28 14 -31 15 -4 0 -4 -30 -2 -67 5 -59
2 -72 -17 -96 -20 -26 -27 -28 -81 -26 -32 1 -59 6 -59 10 0 4 -7 10 -15 13
-12 4 -14 2 -7 -10 11 -19 0 -78 -18 -99 -20 -25 -79 -18 -119 12 -20 16 -40
26 -46 25 -5 -2 -7 0 -3 3 4 4 -4 22 -18 40 -18 25 -22 35 -13 41 8 4 19 -2
28 -16 30 -43 81 -90 106 -96 54 -13 82 50 50 112 -8 16 -15 35 -15 42 0 15
16 16 25 2 13 -22 86 -60 113 -60 15 0 39 10 51 22 21 19 23 27 18 81 -3 33
-9 63 -14 66 -15 11 -15 51 1 51 8 0 16 -4 18 -8 4 -10 85 -52 100 -52 21 0
48 33 48 57 0 16 -4 22 -12 17 -7 -4 -8 -3 -4 4 4 6 -2 29 -14 51 -23 46 -24
51 -10 51 6 0 22 -24 35 -52z m231 -298 c7 -19 13 -61 13 -93 1 -50 -2 -61
-25 -82 -15 -14 -30 -25 -33 -25 -3 -1 -26 -5 -51 -10 -26 -5 -52 -4 -62 1
-14 8 -13 0 7 -51 l24 -60 -24 -28 c-19 -23 -31 -27 -68 -25 -25 1 -59 9 -75
17 -41 21 -43 20 -32 -10 17 -45 12 -91 -12 -108 -42 -29 -95 -20 -155 25 -29
23 -53 45 -53 50 0 13 27 11 35 -2 15 -24 90 -69 114 -69 65 1 76 58 28 144
-33 60 -25 78 17 38 34 -33 75 -55 120 -66 31 -8 76 15 76 38 0 22 -36 97 -43
89 -4 -3 -7 0 -7 7 0 8 -10 24 -22 37 -23 25 -19 39 9 29 10 -4 20 -7 22 -6 2
1 7 -4 11 -10 13 -21 93 -24 128 -6 38 19 52 44 52 87 0 39 -20 109 -32 109
-4 0 -8 5 -8 11 0 24 34 1 46 -31z"/>
<path d="M10601 17016 c-8 -10 -9 -16 -1 -21 5 -3 10 -5 11 -3 4 18 7 38 4 38
-1 0 -8 -6 -14 -14z"/>
<path d="M8030 16354 c0 -8 4 -14 10 -14 5 0 19 -18 30 -40 30 -58 58 -73 122
-65 52 7 113 30 123 46 12 18 -148 72 -242 82 -32 3 -43 1 -43 -9z"/>
<path d="M12460 16150 c-42 -14 -104 -30 -126 -33 -39 -5 -157 -81 -211 -135
-57 -58 -102 -129 -130 -207 -13 -39 -17 -79 -17 -180 1 -111 4 -141 26 -207
36 -110 92 -204 163 -274 113 -112 215 -154 377 -154 154 0 266 39 345 122 60
63 84 114 90 202 11 149 -62 296 -148 296 -27 0 -69 -29 -69 -49 0 -5 17 -44
37 -86 36 -76 36 -79 25 -133 -23 -108 -95 -177 -212 -202 -102 -22 -214 3
-310 69 -111 77 -164 181 -165 326 0 53 6 109 15 135 23 73 76 155 132 206 55
49 210 130 216 113 3 -6 10 -5 18 2 21 17 205 14 274 -5 51 -13 236 -96 215
-96 -4 0 12 -16 37 -36 59 -45 151 -161 189 -236 90 -179 122 -380 93 -592
-41 -307 -163 -471 -395 -531 -122 -32 -287 -12 -440 53 -116 50 -293 182
-380 284 -60 70 -162 207 -179 238 -7 14 -39 57 -70 95 -31 39 -74 105 -95
148 -30 62 -49 87 -90 118 -92 69 -176 90 -492 119 -61 6 -131 12 -155 15 -24
2 -92 9 -153 15 -176 17 -275 31 -280 41 -3 4 -22 -3 -43 -17 -31 -21 -46 -25
-89 -22 -44 4 -53 2 -53 -12 0 -24 -66 -129 -108 -173 -20 -21 -73 -56 -117
-77 -67 -33 -92 -40 -152 -42 l-72 -3 4 -50 c7 -102 84 -289 148 -360 84 -92
107 -120 107 -132 0 -7 5 -13 10 -13 6 0 10 -6 10 -14 0 -8 6 -21 13 -28 41
-43 41 -135 -2 -310 -17 -69 -31 -134 -31 -145 0 -18 -43 -146 -133 -395 -20
-54 -38 -102 -42 -108 -3 -5 -33 -10 -67 -10 l-60 0 6 -32 c11 -53 28 -63 117
-65 44 -1 90 2 103 7 39 14 155 144 316 355 47 61 90 117 97 125 41 51 117
159 126 180 6 14 16 32 22 40 27 36 39 109 39 255 l1 150 30 -3 c17 -1 63 -10
103 -19 63 -14 90 -15 190 -5 64 6 129 14 144 17 25 7 27 4 33 -31 18 -107 73
-275 98 -301 9 -10 40 -49 68 -88 85 -115 182 -184 334 -239 90 -31 254 -64
375 -73 l95 -8 -1 -35 c-3 -66 -21 -207 -28 -218 -4 -7 -18 -12 -31 -12 -47 0
-115 -40 -115 -68 0 -13 17 -14 113 -9 62 3 121 9 130 13 9 3 21 22 26 43 20
83 53 332 47 355 -4 18 -27 36 -83 66 -146 78 -233 160 -320 298 -64 102 -49
112 59 40 154 -103 325 -172 505 -203 174 -30 449 -6 578 49 130 56 232 139
300 246 111 174 169 437 153 705 -10 177 -34 267 -119 442 -43 90 -59 112
-139 190 -49 48 -115 108 -145 133 -30 25 -61 51 -69 58 -8 6 -21 12 -30 12
-8 0 -19 6 -23 13 -4 7 -28 19 -53 27 -25 7 -54 19 -66 26 -11 7 -34 14 -51
17 -17 3 -40 10 -51 16 -24 13 -303 13 -342 1z m-1610 -680 c0 -6 -26 -10 -59
-10 -33 0 -63 5 -66 10 -4 6 18 10 59 10 37 0 66 -4 66 -10z m237 -43 c14 -15
-8 -19 -62 -12 -73 9 -73 29 0 23 30 -3 58 -8 62 -11z m-179 -33 c29 -8 28
-24 -2 -24 -38 0 -86 12 -86 21 0 10 54 12 88 3z m450 -9 c13 -13 -13 -17 -73
-10 -41 4 -63 10 -59 17 7 10 121 4 132 -7z m-193 -54 c49 -10 25 -26 -35 -22
-61 3 -73 8 -65 22 7 10 53 10 100 0z"/>
<path d="M7504 16113 c-32 -42 -94 -162 -94 -181 0 -11 12 -12 53 -7 28 4 55
9 60 12 12 7 57 100 57 118 0 15 -37 95 -44 95 -2 0 -16 -17 -32 -37z"/>
<path d="M9825 16051 c-3 -6 4 -9 15 -8 11 1 20 5 20 9 0 11 -28 10 -35 -1z"/>
<path d="M10200 16050 c0 -5 5 -10 10 -10 6 0 10 5 10 10 0 6 -4 10 -10 10 -5
0 -10 -4 -10 -10z"/>
<path d="M7917 16006 c-43 -13 -85 -30 -92 -37 -19 -21 -55 -147 -55 -194 0
-40 4 -46 74 -109 49 -44 82 -66 97 -65 13 0 62 13 109 27 l84 27 28 85 c39
123 39 127 -38 215 -76 87 -81 88 -207 51z"/>
<path d="M10350 15960 c0 -11 4 -20 9 -20 5 0 7 9 4 20 -3 11 -7 20 -9 20 -2
0 -4 -9 -4 -20z"/>
<path d="M9640 15950 c0 -5 5 -10 10 -10 6 0 10 5 10 10 0 6 -4 10 -10 10 -5
0 -10 -4 -10 -10z"/>
<path d="M10580 15950 c0 -5 5 -10 10 -10 6 0 10 5 10 10 0 6 -4 10 -10 10 -5
0 -10 -4 -10 -10z"/>
<path d="M9580 15909 c0 -5 10 -9 22 -9 12 0 18 3 14 7 -10 11 -36 12 -36 2z"/>
<path d="M9400 15896 c0 -9 5 -16 10 -16 6 0 10 4 10 9 0 6 -4 13 -10 16 -5 3
-10 -1 -10 -9z"/>
<path d="M9380 15850 c0 -5 5 -10 10 -10 6 0 10 5 10 10 0 6 -4 10 -10 10 -5
0 -10 -4 -10 -10z"/>
<path d="M10400 15850 c0 -5 5 -10 10 -10 6 0 10 5 10 10 0 6 -4 10 -10 10 -5
0 -10 -4 -10 -10z"/>
<path d="M3451 15789 c-18 -19 -27 -37 -24 -46 4 -10 2 -14 -4 -10 -9 6 -21
-42 -26 -110 -1 -11 -5 -19 -9 -16 -5 2 -8 -11 -8 -29 0 -18 -5 -49 -11 -68
-6 -19 -15 -66 -19 -105 -5 -38 -14 -92 -20 -120 -21 -91 0 -356 41 -514 10
-41 19 -81 19 -88 0 -24 -15 -13 -39 30 -72 129 -121 226 -121 237 0 7 -13 35
-30 62 -16 26 -30 55 -30 64 0 8 -4 13 -9 10 -4 -3 -6 6 -3 21 3 18 1 24 -7
19 -7 -5 -12 1 -13 16 -2 31 -3 39 -12 68 -4 14 -16 57 -27 95 -11 39 -27 91
-35 116 -8 26 -14 56 -14 67 0 11 -7 22 -15 26 -8 3 -15 12 -15 20 0 8 -14 17
-31 21 -26 6 -36 2 -65 -26 -19 -18 -34 -42 -34 -54 0 -12 -5 -26 -12 -33 -6
-6 -12 -38 -12 -71 -1 -32 -5 -57 -9 -54 -4 2 -5 -28 -2 -69 3 -40 7 -106 10
-145 2 -40 7 -78 11 -85 5 -7 11 -38 15 -68 4 -30 12 -68 19 -85 7 -16 14 -41
15 -55 3 -29 18 -71 56 -155 50 -111 59 -133 59 -149 0 -9 6 -19 14 -22 8 -3
13 -14 11 -25 -2 -10 3 -23 12 -27 11 -7 12 -11 4 -16 -7 -4 -27 4 -46 19 -19
14 -35 21 -35 14 0 -8 -3 -9 -13 0 -8 6 -18 7 -22 3 -5 -4 -5 -2 -2 5 4 6 -9
27 -29 47 -19 19 -33 40 -30 45 4 5 -2 12 -11 15 -17 6 -103 129 -103 148 0 5
-5 14 -10 21 -32 37 -100 138 -100 149 -1 16 -50 97 -50 83 0 -5 -9 9 -20 32
-42 93 -93 111 -143 52 l-28 -34 4 -160 c4 -156 9 -189 49 -295 7 -19 17 -38
21 -41 5 -3 8 -9 8 -13 -4 -26 1 -47 14 -60 8 -8 15 -22 15 -30 0 -23 49 -98
60 -91 5 3 11 1 14 -4 4 -5 1 -13 -5 -17 -8 -5 -7 -9 2 -14 7 -5 14 -16 15
-26 2 -9 8 -20 15 -25 7 -4 14 -22 16 -41 2 -18 8 -34 13 -36 6 -2 10 -10 10
-18 0 -8 5 -14 10 -14 6 0 10 -5 10 -11 0 -12 55 -81 159 -197 135 -152 351
-292 511 -332 77 -20 74 10 32 -270 -68 -449 -87 -748 -57 -892 33 -157 136
-233 261 -194 107 34 171 143 196 336 18 139 15 655 -5 849 -9 85 -16 155 -14
155 286 88 463 191 652 381 281 283 459 687 460 1046 0 135 -11 159 -73 159
-58 0 -93 -37 -178 -187 -43 -76 -84 -144 -91 -151 -7 -7 -13 -18 -13 -23 0
-15 -111 -163 -167 -222 -66 -69 -115 -108 -180 -141 -69 -34 -79 -33 -54 7
11 19 17 38 13 42 -4 5 -1 4 7 0 11 -6 13 -4 8 8 -3 9 -2 16 3 14 17 -4 178
283 171 307 -1 5 2 12 6 15 14 10 60 139 83 231 15 57 23 129 27 220 4 117 2
140 -14 170 -36 69 -118 42 -176 -58 -41 -71 -79 -170 -70 -184 3 -7 1 -8 -5
-4 -7 4 -12 1 -12 -8 0 -49 -201 -496 -223 -496 -5 0 -5 10 -1 23 5 12 9 33 9
47 1 14 7 35 13 47 15 27 39 122 61 238 10 50 20 97 23 105 6 15 23 142 34
260 6 72 -15 220 -39 267 -8 15 -24 36 -35 46 -18 16 -23 17 -53 4 -41 -17
-106 -86 -115 -122 -3 -14 -10 -25 -14 -25 -5 0 -12 -15 -15 -32 -4 -18 -13
-44 -21 -58 -12 -23 -35 -90 -78 -228 -9 -29 -14 -58 -10 -64 4 -6 3 -8 -3 -5
-6 4 -13 -7 -17 -26 -3 -17 -8 -41 -11 -52 -3 -11 -14 -60 -25 -110 -11 -49
-24 -103 -30 -120 -5 -16 -13 -63 -19 -103 -17 -128 -24 -93 -18 88 4 160 -4
529 -16 675 -8 92 -25 192 -41 230 -19 46 -54 47 -95 4z"/>
<path d="M5840 15721 c0 -89 -1 -90 -93 -87 l-47 1 0 -297 0 -298 555 0 555 0
0 295 0 295 -47 1 c-27 1 -52 2 -58 4 -5 1 -16 3 -22 3 -9 2 -13 25 -13 82 l0
80 -415 0 -415 0 0 -79z"/>
<path d="M8550 15741 c-60 -9 -67 -14 -96 -76 -33 -74 -31 -92 21 -152 49 -56
96 -80 114 -59 24 29 53 136 58 214 l6 82 -29 -1 c-16 -1 -49 -5 -74 -8z"/>
<path d="M9420 15670 c0 -5 5 -10 10 -10 6 0 10 5 10 10 0 6 -4 10 -10 10 -5
0 -10 -4 -10 -10z"/>
<path d="M9792 15671 c-8 -4 -12 -19 -10 -32 2 -18 9 -24 28 -24 28 0 39 27
20 50 -14 17 -20 18 -38 6z"/>
<path d="M10182 15671 c-8 -4 -12 -19 -10 -32 2 -18 9 -24 28 -24 19 0 26 6
28 24 3 20 -11 41 -28 41 -3 0 -11 -4 -18 -9z"/>
<path d="M14950 15605 c0 -33 -4 -66 -9 -74 -10 -15 6 -72 23 -83 16 -11 150
-10 179 1 31 12 58 -2 39 -21 -8 -8 -50 -12 -127 -13 -63 -1 -118 -4 -122 -8
-7 -8 -14 -50 -34 -227 -6 -58 -15 -109 -19 -115 -8 -11 -24 -61 -35 -109 -5
-23 -3 -27 9 -23 9 4 16 1 16 -5 0 -11 212 -5 278 8 48 10 40 -13 -10 -28 -26
-8 -96 -13 -175 -13 l-131 0 -6 -40 c-9 -59 -13 -73 -35 -155 -47 -168 -56
-224 -43 -269 7 -22 22 -50 34 -60 32 -31 104 -42 184 -29 44 7 111 8 184 3
195 -14 214 -12 255 20 62 47 83 133 62 259 l-9 48 -41 -6 c-144 -21 -218 -26
-347 -24 -90 2 -144 7 -142 13 1 6 40 9 100 7 98 -4 258 9 365 30 31 6 57 11
57 12 0 1 -5 17 -11 36 -12 38 -12 41 -29 140 -6 36 -19 82 -30 102 -14 26
-19 61 -21 123 l-2 87 -31 -6 c-127 -26 -361 -30 -361 -5 0 8 26 11 97 10 117
-3 258 15 278 35 13 12 13 14 0 14 -11 1 -10 4 4 15 16 12 18 21 10 62 -5 26
-9 110 -9 186 l0 137 -115 1 c-63 0 -152 6 -197 13 l-83 12 0 -61z"/>
<path d="M9965 15593 c-35 -8 -46 -32 -29 -64 8 -16 23 -33 34 -39 17 -9 20
-21 20 -70 0 -54 -2 -60 -20 -60 -12 0 -32 12 -46 27 -13 14 -28 23 -32 19 -4
-4 8 -21 26 -37 23 -20 43 -29 68 -29 44 0 94 25 94 47 0 14 -4 13 -23 -5 -37
-35 -47 -28 -47 32 0 50 3 56 35 80 19 15 40 36 46 48 22 42 -46 70 -126 51z"/>
<path d="M7493 15457 c-26 -6 -43 -16 -43 -24 0 -55 218 -278 246 -251 5 5 34
133 34 149 0 10 -108 112 -133 126 -26 14 -46 14 -104 0z"/>
<path d="M8113 15228 c-19 -9 -83 -112 -83 -133 0 -23 250 34 282 64 4 3 -8
23 -27 44 -32 35 -37 37 -92 36 -32 0 -68 -5 -80 -11z"/>
<path d="M16751 14629 c-141 -28 -256 -145 -305 -308 -16 -55 -21 -182 -10
-239 l6 -31 67 6 c86 7 138 -8 200 -58 80 -62 96 -107 96 -258 0 -91 -3 -125
-13 -129 -6 -2 -10 -8 -6 -13 11 -18 -61 -219 -83 -232 -7 -5 -11 -12 -8 -16
8 -14 -16 -71 -28 -64 -5 3 -7 1 -3 -5 3 -6 -4 -31 -16 -56 -16 -34 -25 -43
-34 -35 -8 7 -15 6 -20 -2 -4 -7 -3 -9 4 -5 30 18 18 -22 -24 -84 -95 -140
-276 -301 -336 -300 -24 1 -55 35 -61 67 -2 10 -7 25 -10 33 -3 8 -8 24 -10
35 -2 13 -9 3 -19 -31 -32 -104 -97 -202 -155 -236 -24 -14 -33 -15 -53 -5
-35 17 -50 53 -51 122 l-1 60 -18 -57 c-10 -31 -27 -72 -39 -91 -27 -44 -113
-124 -147 -137 -24 -9 -25 -13 -19 -50 6 -38 4 -43 -60 -122 -283 -352 -446
-791 -338 -910 35 -39 115 -12 169 56 36 45 44 45 44 3 0 -43 27 -146 46 -174
20 -31 64 -30 98 2 29 27 61 94 72 150 8 44 17 44 32 2 25 -70 80 -96 129 -62
12 8 31 41 43 72 18 49 21 77 21 209 -2 288 48 526 154 735 23 43 28 48 112
79 96 36 275 122 364 176 31 19 62 34 70 34 29 0 579 -215 681 -266 63 -32
112 -76 133 -120 9 -19 27 -77 40 -129 37 -145 58 -175 124 -175 46 0 61 30
61 122 0 73 1 78 22 78 12 0 51 -12 87 -27 89 -37 234 -39 361 -5 47 13 87 26
90 29 7 7 -38 42 -91 68 -117 60 -253 56 -378 -10 -36 -19 -72 -35 -81 -35
-19 0 -56 145 -46 177 8 26 37 39 198 93 101 33 133 48 153 72 24 29 32 71 17
95 -14 22 -58 32 -98 23 -21 -5 -40 -7 -42 -5 -8 8 16 35 65 75 61 48 113 116
149 195 21 45 27 77 32 161 l5 105 -45 -30 c-97 -65 -186 -197 -207 -307 -5
-27 -12 -81 -15 -120 -7 -91 -10 -97 -51 -117 -34 -16 -35 -16 -41 8 -3 13 -3
28 0 34 16 25 26 170 16 242 -15 122 -78 285 -101 262 -16 -16 -51 -127 -56
-180 -10 -92 25 -213 87 -303 9 -14 22 -40 28 -58 11 -33 11 -33 -36 -54 -32
-14 -75 -22 -138 -26 -125 -6 -195 15 -450 136 -115 54 -228 106 -252 117
l-42 18 92 96 c111 115 183 217 246 349 56 119 57 146 4 256 -41 84 -60 106
-269 309 -105 101 -149 174 -161 266 -5 34 -12 64 -15 67 -4 4 -24 7 -44 8
-35 1 -38 4 -41 32 -8 79 102 221 224 291 35 21 63 42 61 48 -5 13 -80 16
-136 4z"/>
<path d="M17094 14450 c1 -58 -2 -118 -6 -135 l-7 -30 14 30 c15 32 19 170 6
215 -4 14 -7 -21 -7 -80z"/>
<path d="M7229 14340 c66 -102 103 -248 94 -370 -7 -93 -49 -212 -103 -294
-121 -180 -291 -282 -695 -419 -121 -41 -246 -87 -278 -101 l-59 -26 -17 22
-18 21 -48 -33 c-63 -43 -129 -109 -149 -148 -16 -31 -16 -32 20 -71 l36 -40
99 100 c75 75 99 105 94 118 -7 24 57 51 350 151 242 82 345 128 460 205 320
212 416 580 233 885 -18 29 -39 56 -46 58 -7 2 5 -24 27 -58z"/>
<path d="M18158 14293 c-39 -41 -88 -134 -88 -170 0 -17 9 -23 43 -32 23 -5
67 -17 97 -26 63 -17 113 -19 141 -5 32 17 26 92 -12 151 -37 58 -102 119
-127 119 -10 0 -34 -17 -54 -37z"/>
<path d="M10040 14250 c0 -5 5 -10 10 -10 6 0 10 5 10 10 0 6 -4 10 -10 10 -5
0 -10 -4 -10 -10z"/>
<path d="M10120 14230 c0 -5 5 -10 11 -10 5 0 7 5 4 10 -3 6 -8 10 -11 10 -2
0 -4 -4 -4 -10z"/>
<path d="M17128 14168 c30 -40 58 -91 68 -125 19 -63 39 -97 29 -48 -11 53
-76 172 -112 206 -30 29 -28 24 15 -33z"/>
<path d="M9960 14070 c0 -5 5 -10 10 -10 6 0 10 5 10 10 0 6 -4 10 -10 10 -5
0 -10 -4 -10 -10z"/>
<path d="M11120 14070 c0 -5 5 -10 10 -10 6 0 10 5 10 10 0 6 -4 10 -10 10 -5
0 -10 -4 -10 -10z"/>
<path d="M11302 14060 c0 -14 2 -19 5 -12 2 6 2 18 0 25 -3 6 -5 1 -5 -13z"/>
<path d="M16553 14025 c0 -8 4 -12 9 -9 5 3 6 10 3 15 -9 13 -12 11 -12 -6z"/>
<path d="M9940 13990 c0 -5 5 -10 11 -10 5 0 7 5 4 10 -3 6 -8 10 -11 10 -2 0
-4 -4 -4 -10z"/>
<path d="M11120 13970 c0 -5 5 -10 10 -10 6 0 10 5 10 10 0 6 -4 10 -10 10 -5
0 -10 -4 -10 -10z"/>
<path d="M9700 13930 c0 -5 5 -10 11 -10 5 0 7 5 4 10 -3 6 -8 10 -11 10 -2 0
-4 -4 -4 -10z"/>
<path d="M9900 13910 c0 -5 5 -10 10 -10 6 0 10 5 10 10 0 6 -4 10 -10 10 -5
0 -10 -4 -10 -10z"/>
<path d="M9780 13890 c0 -5 5 -10 10 -10 6 0 10 5 10 10 0 6 -4 10 -10 10 -5
0 -10 -4 -10 -10z"/>
<path d="M9845 13890 c3 -5 8 -10 11 -10 2 0 4 5 4 10 0 6 -5 10 -11 10 -5 0
-7 -4 -4 -10z"/>
<path d="M11275 13850 c-3 -5 1 -10 10 -10 9 0 13 5 10 10 -3 6 -8 10 -10 10
-2 0 -7 -4 -10 -10z"/>
<path d="M16300 13841 c0 -5 5 -13 10 -16 6 -3 10 -2 10 4 0 5 -4 13 -10 16
-5 3 -10 2 -10 -4z"/>
<path d="M11200 13819 c7 -11 14 -18 17 -15 8 8 -5 36 -17 36 -7 0 -7 -6 0
-21z"/>
<path d="M11380 13829 c0 -5 5 -7 10 -4 6 3 10 8 10 11 0 2 -4 4 -10 4 -5 0
-10 -5 -10 -11z"/>
<path d="M9640 13769 c0 -5 5 -7 10 -4 6 3 10 8 10 11 0 2 -4 4 -10 4 -5 0
-10 -5 -10 -11z"/>
<path d="M11255 13770 c3 -5 10 -10 16 -10 5 0 9 5 9 10 0 6 -7 10 -16 10 -8
0 -12 -4 -9 -10z"/>
<path d="M14860 13728 c1 -104 60 -265 124 -335 20 -22 36 -43 36 -45 0 -3
-84 -5 -187 -4 -176 1 -192 -1 -247 -23 -85 -34 -150 -101 -165 -170 -9 -41
-8 -59 1 -79 21 -42 57 -44 221 -16 81 15 150 24 154 21 3 -4 -9 -23 -26 -42
-31 -36 -81 -109 -81 -120 0 -9 45 -5 105 10 84 21 191 76 253 129 l54 46 99
0 c55 0 162 -7 237 -15 217 -24 195 -27 209 25 6 25 16 59 21 77 l10 32 -51
11 c-29 6 -122 25 -207 41 -85 16 -164 32 -175 34 -17 3 -24 18 -34 66 -20 98
-64 175 -150 259 -67 66 -161 130 -191 130 -5 0 -10 -15 -10 -32z"/>
<path d="M9677 13726 c-4 -10 -1 -13 8 -9 8 3 12 9 9 14 -7 12 -11 11 -17 -5z"/>
<path d="M16100 13690 c0 -5 9 -10 20 -10 11 0 20 5 20 10 0 6 -9 10 -20 10
-11 0 -20 -4 -20 -10z"/>
<path d="M11020 13610 c0 -5 5 -10 10 -10 6 0 10 5 10 10 0 6 -4 10 -10 10 -5
0 -10 -4 -10 -10z"/>
<path d="M15960 13590 c0 -5 5 -10 10 -10 6 0 10 5 10 10 0 6 -4 10 -10 10 -5
0 -10 -4 -10 -10z"/>
<path d="M15805 13390 c-3 -5 -1 -10 4 -10 6 0 11 5 11 10 0 6 -2 10 -4 10 -3
0 -8 -4 -11 -10z"/>
<path d="M16480 13070 c0 -5 5 -10 11 -10 5 0 7 5 4 10 -3 6 -8 10 -11 10 -2
0 -4 -4 -4 -10z"/>
<path d="M15661 13048 c-1 -16 4 -28 9 -28 12 0 12 8 0 35 -8 18 -9 17 -9 -7z"/>
<path d="M16495 13039 c-4 -6 -4 -13 -1 -16 3 -4 6 -1 6 6 0 7 5 9 12 5 7 -4
8 -3 4 4 -9 15 -13 15 -21 1z"/>
<path d="M16411 12974 c0 -11 3 -14 6 -6 3 7 2 16 -1 19 -3 4 -6 -2 -5 -13z"/>
<path d="M16240 12950 c0 -5 7 -10 16 -10 8 0 12 5 9 10 -3 6 -10 10 -16 10
-5 0 -9 -4 -9 -10z"/>
<path d="M16380 12945 c0 -8 4 -15 10 -15 5 0 7 7 4 15 -4 8 -8 15 -10 15 -2
0 -4 -7 -4 -15z"/>
<path d="M16206 12883 c-6 -14 -5 -15 5 -6 7 7 10 15 7 18 -3 3 -9 -2 -12 -12z"/>
<path d="M16206 12843 c-6 -14 -5 -15 5 -6 7 7 10 15 7 18 -3 3 -9 -2 -12 -12z"/>
<path d="M15760 12790 c0 -5 5 -10 11 -10 5 0 7 5 4 10 -3 6 -8 10 -11 10 -2
0 -4 -4 -4 -10z"/>
<path d="M15685 12699 c-4 -6 -5 -12 -2 -15 2 -3 7 2 10 11 7 17 1 20 -8 4z"/>
<path d="M15684 12609 c-3 -6 -1 -16 5 -22 8 -8 11 -6 11 7 0 9 5 14 10 11 6
-3 10 -1 10 4 0 14 -27 14 -36 0z"/>
<path d="M6486 11719 c-2 -8 -7 -29 -10 -48 -8 -47 -23 -61 -62 -61 -26 0 -42
8 -64 33 -16 17 -30 36 -30 40 0 5 -7 15 -15 24 -14 13 -27 13 -103 3 -118
-16 -384 -105 -366 -122 2 -3 -8 -3 -23 0 -20 3 -25 1 -18 -6 6 -6 8 -42 5
-84 -3 -40 -2 -93 2 -118 3 -25 9 -71 13 -102 l6 -58 39 0 c45 0 97 -37 88
-62 -4 -8 -27 -25 -52 -36 -36 -17 -44 -26 -42 -44 3 -25 12 -53 27 -80 5 -10
9 -23 9 -30 0 -7 14 -42 31 -78 l30 -65 59 0 c95 0 121 -39 78 -115 -20 -34
-21 -42 -10 -60 7 -12 11 -24 8 -28 -2 -4 11 -18 30 -32 18 -14 36 -33 39 -42
4 -10 11 -18 16 -18 5 0 9 -7 9 -16 0 -10 6 -14 15 -10 10 4 15 -1 15 -16 0
-12 3 -19 6 -15 10 9 32 -16 27 -30 -3 -7 1 -13 9 -13 20 0 60 -35 50 -44 -4
-4 -2 -7 3 -5 16 4 45 -12 39 -22 -3 -5 2 -9 11 -9 9 0 27 -7 40 -16 24 -15
25 -15 34 7 5 13 10 18 10 11 1 -9 9 -8 33 4 79 41 129 13 126 -69 -1 -25 -5
-44 -9 -41 -4 2 -5 -5 -2 -16 3 -10 8 -19 12 -18 24 3 51 -4 46 -11 -16 -28
392 -36 423 -9 9 9 31 16 49 16 17 0 49 12 70 25 21 13 54 28 73 32 39 8 93
42 86 54 -11 16 35 4 52 -15 27 -30 156 -196 177 -228 11 -16 21 -24 23 -18 4
12 -46 82 -145 206 -70 87 -70 79 -7 140 47 47 157 236 137 236 -3 0 -1 6 5
13 7 7 17 45 24 84 13 77 3 166 -28 249 -16 41 -16 42 -42 28 -45 -23 -89 -18
-109 12 -23 36 -19 102 8 148 l21 36 -25 33 c-13 17 -47 57 -75 87 -29 30 -52
58 -52 63 0 4 -6 7 -13 7 -7 0 -23 9 -35 21 -26 23 -182 129 -192 129 -3 0
-19 -13 -35 -30 -31 -32 -50 -36 -88 -19 -29 13 -46 41 -61 98 l-11 45 -90 28
c-49 16 -106 30 -125 31 -19 1 -40 6 -47 10 -6 4 -24 7 -40 7 -15 -1 -40 2
-55 6 -19 4 -29 2 -32 -7z m429 -1339 c3 -6 -1 -7 -9 -4 -18 7 -21 14 -7 14 6
0 13 -4 16 -10z"/>
<path d="M15651 10513 c-20 -76 -64 -143 -148 -223 -146 -142 -293 -228 -529
-309 -289 -99 -591 -107 -740 -19 l-34 20 21 -48 c74 -175 143 -308 237 -459
87 -139 77 -135 138 -57 28 37 50 70 47 75 -2 4 1 6 9 5 7 -2 12 2 11 9 -3 15
94 8 113 -8 8 -6 14 -8 14 -4 0 4 7 2 15 -5 8 -7 22 -10 30 -6 9 3 13 2 10 -4
-3 -5 9 -13 27 -18 18 -6 40 -13 49 -16 19 -8 52 20 43 36 -4 6 -2 8 4 4 6 -3
20 6 31 21 101 132 112 143 143 136 15 -3 26 -9 23 -13 -3 -4 10 -13 28 -20
17 -7 45 -18 62 -26 23 -10 31 -10 37 -1 6 9 8 9 8 -1 0 -7 5 -10 10 -7 6 3
10 1 10 -4 0 -27 22 -5 59 60 23 39 41 74 41 79 0 4 7 11 16 14 9 4 14 13 10
22 -4 10 -2 13 6 8 8 -5 9 -2 5 9 -3 10 -2 17 3 17 5 0 16 13 26 29 l17 28 70
-35 c108 -54 118 -53 167 20 22 34 38 68 36 75 -3 8 -2 12 2 9 4 -2 21 18 36
46 16 28 23 47 15 43 -11 -6 -11 -5 -3 4 17 18 -62 300 -144 513 l-18 48 -13
-47z m-58 -697 c4 -10 1 -13 -8 -9 -8 3 -12 9 -9 14 7 12 11 11 17 -5z"/>
<path d="M14925 10504 c-142 -34 -296 -144 -311 -219 -12 -68 40 -105 148
-105 120 0 287 68 369 150 133 133 21 229 -206 174z"/>
<path d="M10001 10274 c0 -11 3 -14 6 -6 3 7 2 16 -1 19 -3 4 -6 -2 -5 -13z"/>
<path d="M12529 10259 c-30 -32 -52 -91 -42 -115 7 -19 32 -18 56 3 18 17 21
16 57 -5 38 -22 39 -22 50 -3 16 30 13 36 -25 57 -24 12 -35 25 -33 39 5 64
-18 73 -63 24z"/>
<path d="M9940 10250 c0 -5 5 -10 10 -10 6 0 10 5 10 10 0 6 -4 10 -10 10 -5
0 -10 -4 -10 -10z"/>
<path d="M9880 10185 c0 -8 2 -15 4 -15 2 0 6 7 10 15 3 8 1 15 -4 15 -6 0
-10 -7 -10 -15z"/>
<path d="M10265 10190 c-3 -5 -1 -10 4 -10 6 0 11 5 11 10 0 6 -2 10 -4 10 -3
0 -8 -4 -11 -10z"/>
<path d="M9225 10130 c3 -5 8 -10 11 -10 2 0 4 5 4 10 0 6 -5 10 -11 10 -5 0
-7 -4 -4 -10z"/>
<path d="M12434 10082 c-47 -38 -74 -142 -37 -142 9 0 25 8 35 17 17 15 21 15
57 -5 39 -22 44 -21 65 15 4 7 -9 20 -34 34 -30 17 -39 27 -34 41 7 24 -4 58
-19 58 -7 0 -22 -8 -33 -18z"/>
<path d="M15843 9938 c-5 -7 -22 -38 -38 -68 -15 -30 -36 -67 -47 -82 -20 -29
-23 -42 -8 -33 6 3 7 -1 3 -10 -4 -12 -8 -13 -13 -4 -6 8 -11 6 -19 -8 -5 -11
-7 -24 -3 -28 4 -3 0 -5 -8 -3 -8 2 -17 5 -20 8 -3 3 -30 16 -60 29 -30 13
-66 29 -80 37 -17 8 -31 9 -40 4 -8 -6 -10 -10 -5 -10 6 0 6 -3 -1 -8 -14 -9
-71 -100 -113 -179 -28 -52 -38 -62 -57 -61 -13 1 -24 5 -24 9 0 8 -59 23 -79
20 -7 -1 -10 2 -6 9 4 7 1 10 -6 9 -8 -2 -33 7 -56 19 l-42 22 -20 -26 c-26
-32 -27 -51 -3 -33 15 13 16 12 3 -3 -7 -10 -17 -15 -23 -12 -8 5 -48 -32 -48
-45 0 -4 -18 -24 -39 -46 -22 -22 -37 -44 -33 -49 3 -5 -2 -6 -12 -3 -10 4
-22 7 -27 7 -6 0 -7 4 -4 10 3 5 0 7 -8 4 -8 -3 -30 4 -50 16 -33 19 -65 30
-94 32 -7 1 -13 5 -13 9 0 5 -6 6 -14 3 -8 -3 -17 -1 -21 5 -3 6 -11 11 -17
11 -7 0 -7 -4 1 -14 8 -10 8 -16 -3 -25 -11 -9 -16 -9 -22 0 -4 7 -3 9 4 5 6
-3 13 -2 17 4 3 5 -1 10 -10 10 -9 0 -19 -9 -22 -20 -3 -11 -9 -20 -13 -20
-15 0 -80 -108 -74 -124 3 -9 9 -16 13 -16 3 0 20 -23 36 -50 18 -29 35 -48
43 -45 7 3 10 0 7 -5 -3 -6 -1 -10 5 -10 6 0 8 -4 5 -10 -3 -5 -1 -10 4 -10
10 0 15 14 12 33 -1 5 2 6 7 3 8 -5 45 31 48 47 1 4 3 10 4 15 1 4 2 11 1 15
-1 5 3 6 8 3 5 -4 16 0 23 8 10 9 20 11 30 5 9 -5 28 -10 41 -11 14 -1 24 -5
22 -9 -5 -7 89 -39 115 -39 10 0 20 -5 22 -10 6 -19 47 19 43 40 -3 13 1 17
11 13 8 -3 14 1 14 11 0 9 5 16 11 16 6 0 8 7 5 16 -4 10 -2 13 6 8 8 -5 9 -2
5 9 -3 9 -2 16 4 14 5 -1 17 12 27 28 9 17 21 32 25 33 4 2 2 11 -5 20 -11 13
-10 14 8 4 17 -9 87 -30 189 -58 49 -13 75 -15 76 -5 1 6 2 15 3 20 0 5 5 13
10 18 5 5 6 3 2 -4 -17 -30 4 -10 28 27 28 43 32 55 14 44 -7 -5 -8 -3 -4 5 5
7 11 10 14 7 8 -9 33 15 26 25 -3 5 -1 9 5 9 6 0 18 14 26 31 16 29 17 30 41
15 17 -12 24 -13 24 -4 0 6 6 4 13 -7 8 -10 19 -15 25 -11 7 4 12 3 12 -1 0
-15 41 -34 59 -28 10 3 40 33 66 67 26 33 40 58 31 55 -10 -4 -15 -3 -11 3 4
6 14 9 23 8 10 -2 16 3 14 10 -1 8 2 11 7 8 5 -3 11 5 15 17 8 32 -11 186 -25
203 -6 8 -8 25 -5 39 7 27 3 32 -11 13z m-409 -324 c3 -8 2 -12 -4 -9 -6 3
-10 10 -10 16 0 14 7 11 14 -7z m-370 -304 c-5 -5 -10 3 -11 18 -1 22 0 24 9
8 6 -10 6 -22 2 -26z"/>
<path d="M8761 9907 c-5 -17 -13 -57 -16 -87 -4 -30 -9 -64 -11 -75 -8 -42 18
-230 42 -308 66 -207 200 -382 359 -465 79 -41 204 -85 280 -96 117 -19 153
-21 305 -21 197 1 252 11 439 77 284 102 500 333 572 611 13 54 12 56 -37 73
-40 14 -34 20 -99 -101 -171 -321 -437 -507 -764 -534 -235 -20 -472 55 -660
208 -107 87 -229 267 -275 403 -26 79 -46 189 -46 258 0 36 -4 70 -8 75 -4 6
-21 11 -39 12 -28 3 -33 -1 -42 -30z"/>
<path d="M12312 9878 c-41 -45 -57 -128 -24 -128 10 0 27 6 38 14 18 13 24 13
53 -5 41 -24 45 -24 59 6 10 22 8 26 -28 46 -35 20 -38 25 -33 55 5 31 3 34
-19 34 -13 0 -34 -10 -46 -22z"/>
<path d="M10040 9870 c0 -5 5 -10 10 -10 6 0 10 5 10 10 0 6 -4 10 -10 10 -5
0 -10 -4 -10 -10z"/>
<path d="M13160 9861 c-14 -27 -14 -29 20 -46 25 -13 30 -22 30 -51 0 -66 51
-51 91 28 35 69 15 108 -37 73 -23 -15 -27 -15 -49 -1 -32 21 -42 20 -55 -3z"/>
<path d="M9965 9830 c-3 -5 -1 -10 4 -10 6 0 11 5 11 10 0 6 -2 10 -4 10 -3 0
-8 -4 -11 -10z"/>
<path d="M9180 9810 c0 -5 5 -10 10 -10 6 0 10 5 10 10 0 6 -4 10 -10 10 -5 0
-10 -4 -10 -10z"/>
<path d="M9210 9770 c0 -5 5 -10 11 -10 5 0 7 5 4 10 -3 6 -8 10 -11 10 -2 0
-4 -4 -4 -10z"/>
<path d="M13052 9670 c-16 -26 -17 -25 21 -48 29 -17 33 -24 29 -51 -9 -66 62
-39 94 36 28 64 5 105 -37 67 -18 -16 -21 -17 -55 -1 -42 21 -37 21 -52 -3z"/>
<path d="M9420 9670 c0 -5 5 -10 10 -10 6 0 10 5 10 10 0 6 -4 10 -10 10 -5 0
-10 -4 -10 -10z"/>
<path d="M15826 9565 c-39 -47 -76 -85 -83 -85 -8 0 -45 13 -83 29 l-70 30
-76 -109 -76 -108 -76 24 c-121 38 -153 46 -166 41 -6 -3 -40 -50 -75 -106
-35 -55 -68 -101 -75 -101 -6 0 -60 18 -119 40 -60 22 -110 40 -112 40 -7 0
-105 -122 -105 -130 0 -5 39 -43 88 -85 98 -85 245 -165 351 -191 35 -9 103
-17 150 -17 293 -6 509 154 582 430 22 83 40 383 23 383 -5 0 -40 -38 -78 -85z"/>
<path d="M10315 9630 c3 -5 15 -10 26 -10 10 0 19 5 19 10 0 6 -12 10 -26 10
-14 0 -23 -4 -19 -10z"/>
<path d="M10577 9606 c-4 -10 -1 -13 9 -9 15 6 19 23 5 23 -5 0 -11 -7 -14
-14z"/>
<path d="M9465 9590 c3 -5 13 -10 21 -10 8 0 14 5 14 10 0 6 -9 10 -21 10 -11
0 -17 -4 -14 -10z"/>
<path d="M9296 9508 c-36 -41 -45 -71 -26 -83 10 -6 50 29 50 46 0 5 3 8 8 6
4 -3 8 13 9 34 2 21 1 39 -1 39 -3 0 -21 -19 -40 -42z"/>
<path d="M9900 9500 c0 -11 5 -20 10 -20 6 0 10 9 10 20 0 11 -4 20 -10 20 -5
0 -10 -9 -10 -20z"/>
<path d="M9580 9490 c0 -5 5 -10 10 -10 6 0 10 5 10 10 0 6 -4 10 -10 10 -5 0
-10 -4 -10 -10z"/>
<path d="M9980 9496 c0 -2 7 -6 15 -10 8 -3 15 -1 15 4 0 6 -7 10 -15 10 -8 0
-15 -2 -15 -4z"/>
<path d="M12942 9476 c-10 -22 -8 -27 20 -45 25 -15 32 -27 32 -53 1 -36 25
-49 52 -27 23 19 54 84 54 113 0 35 -18 42 -49 18 -28 -20 -28 -20 -57 -1 -37
24 -39 24 -52 -5z"/>
<path d="M10103 9410 c2 -74 2 -75 30 -78 35 -4 35 14 -3 93 l-29 60 2 -75z"/>
<path d="M12464 9465 c3 -8 1 -15 -4 -15 -5 0 -15 -12 -23 -27 -36 -71 -82
-149 -94 -161 -7 -7 -13 -20 -13 -27 0 -8 -13 -36 -30 -62 -16 -26 -30 -52
-30 -59 0 -7 -4 -14 -8 -16 -5 -1 -53 -82 -107 -178 -126 -225 -125 -222 -125
-239 0 -8 -3 -11 -7 -8 -7 8 -33 -39 -33 -62 -1 -14 -2 -14 -11 2 -5 9 -14 17
-20 17 -5 0 -33 12 -62 26 -84 41 -146 63 -235 84 -103 25 -159 25 -243 2
-203 -56 -286 -182 -308 -466 -5 -61 -9 -113 -9 -116 1 -5 -8 -60 -18 -107
-13 -64 -111 -130 -265 -178 -240 -75 -309 -99 -397 -141 -53 -25 -111 -56
-129 -70 -17 -13 -34 -24 -37 -24 -29 0 -198 -182 -243 -261 -68 -119 -96
-222 -97 -361 0 -81 3 -121 12 -130 6 -6 12 -27 12 -44 0 -18 4 -35 10 -39 5
-3 7 -12 4 -19 -3 -7 2 -20 10 -29 8 -8 13 -17 11 -19 -14 -13 121 -240 185
-314 l27 -32 22 80 c11 43 39 126 61 185 22 58 37 110 33 116 -3 5 -2 8 3 4 5
-3 27 28 49 69 21 41 60 98 87 128 26 29 44 57 40 61 -4 5 -1 5 6 1 8 -5 21
-1 30 8 33 29 133 68 190 73 36 3 80 -1 122 -12 36 -9 75 -18 87 -18 11 -1 19
-5 16 -9 -2 -5 2 -8 9 -8 7 0 26 -7 42 -15 16 -9 35 -14 42 -11 6 2 22 -6 33
-18 21 -22 21 -24 5 -41 -26 -26 -64 -101 -56 -110 4 -5 2 -5 -5 -1 -11 6 -30
-29 -25 -46 5 -21 -41 -1 -179 77 -83 47 -154 85 -158 85 -3 0 -21 -27 -40
-61 -28 -51 -31 -63 -20 -74 28 -26 839 -476 848 -471 9 6 71 111 71 120 0 3
-42 28 -92 57 -218 122 -230 130 -217 145 6 8 9 14 5 14 -3 0 3 9 14 20 11 11
22 31 26 45 3 14 10 25 14 25 4 0 11 7 14 16 3 8 2 13 -2 10 -4 -2 -8 4 -8 15
0 12 7 19 18 19 10 0 18 7 18 15 0 8 4 15 8 15 5 0 14 12 21 27 9 21 9 28 -1
34 -6 4 -16 5 -20 3 -4 -3 -5 2 -2 10 5 14 8 14 21 1 15 -15 33 -12 33 6 0 6
-4 8 -9 4 -5 -3 -13 0 -17 7 -4 7 -3 10 1 5 5 -4 18 1 29 10 20 17 20 17 7 1
-18 -24 -6 -23 35 3 36 22 67 60 100 123 17 33 28 42 65 51 104 27 187 93 235
187 21 40 29 74 33 138 l6 84 43 9 c23 4 42 12 42 16 0 5 8 8 18 7 9 0 16 5
14 12 -1 8 2 11 8 7 15 -9 62 23 54 37 -4 6 -3 8 4 4 12 -7 71 64 91 109 22
49 40 118 35 127 -3 4 0 8 5 8 6 0 11 8 11 17 0 9 12 55 27 102 15 48 27 92
26 98 0 7 3 11 7 8 5 -3 18 11 31 31 12 20 33 47 47 61 35 35 112 83 133 83
26 0 131 -121 167 -192 62 -123 63 -230 1 -356 -35 -72 -113 -155 -269 -288
-58 -50 -118 -109 -135 -132 -38 -55 -37 -89 4 -330 57 -328 59 -544 6 -726
-30 -102 -52 -149 -110 -231 -78 -110 -216 -221 -340 -274 -247 -105 -582 -73
-894 83 -99 50 -81 29 28 -34 274 -156 555 -234 774 -215 369 32 668 304 726
660 29 177 22 328 -28 627 -39 235 -41 249 -25 293 14 41 75 109 169 187 227
189 298 296 298 453 1 67 -4 90 -29 145 -29 65 -91 149 -149 203 -58 55 -181
144 -234 171 -29 15 -84 50 -122 77 -70 51 -74 62 -44 99 7 8 27 42 44 74 17
32 31 55 31 50 0 -5 5 -2 10 6 5 8 10 20 10 25 0 6 -5 3 -10 -5 -6 -9 -10 -10
-10 -3 0 7 6 16 13 20 18 11 47 59 47 78 0 8 9 24 20 35 11 11 17 20 13 20 -5
0 -3 4 3 8 6 4 19 23 29 42 9 19 27 46 39 60 13 16 15 20 4 11 -13 -9 -18 -10
-18 -2 0 6 6 14 14 17 7 3 26 30 41 60 15 30 32 57 36 60 5 3 9 12 9 20 0 9
-5 12 -12 8 -7 -4 -8 -3 -4 5 4 6 11 9 16 6 11 -7 48 55 56 94 5 23 9 29 15
19 7 -10 9 -10 9 0 0 7 12 31 26 54 25 39 26 42 9 55 -20 14 -50 0 -39 -18 3
-5 0 -9 -6 -9 -6 0 -8 -4 -5 -10 3 -5 1 -10 -5 -10 -7 0 -9 -7 -6 -17 4 -10 4
-14 0 -10 -9 9 -54 -65 -47 -77 4 -5 1 -6 -5 -2 -10 6 -28 -30 -24 -46 1 -5
-3 -8 -9 -8 -5 0 -7 -4 -4 -10 3 -5 1 -10 -4 -10 -6 0 -11 -6 -11 -14 0 -7 -7
-19 -15 -26 -8 -7 -12 -16 -9 -21 3 -5 0 -9 -6 -9 -6 0 -8 -4 -5 -10 3 -5 2
-10 -2 -10 -5 0 -26 -30 -48 -67 -59 -101 -75 -135 -68 -146 3 -6 1 -7 -5 -3
-7 4 -12 1 -12 -8 0 -9 -4 -16 -9 -16 -10 0 -37 -60 -33 -73 1 -5 -1 -6 -6 -3
-5 3 -23 -23 -41 -57 -18 -34 -40 -73 -49 -87 -14 -19 -14 -22 -2 -16 8 5 3
-4 -11 -20 -36 -40 -52 -71 -39 -79 5 -3 10 -12 10 -18 0 -7 -4 -6 -10 3 -9
13 -12 12 -23 -5 -6 -11 -12 -25 -12 -31 0 -6 -8 -19 -18 -28 -9 -10 -17 -28
-17 -41 0 -13 -4 -27 -10 -30 -6 -3 -7 1 -4 12 3 10 -2 6 -11 -10 -9 -15 -13
-33 -9 -40 4 -6 3 -9 -1 -4 -12 10 -67 -81 -59 -96 4 -7 3 -9 -1 -4 -10 9 -58
-69 -50 -83 3 -5 -4 -14 -16 -20 -15 -9 -18 -15 -10 -23 15 -15 14 -25 -4 -23
-10 0 -30 -25 -51 -64 -20 -36 -40 -70 -45 -77 -7 -7 -6 -13 0 -17 5 -3 12 -1
14 4 3 6 4 5 3 -2 -2 -7 -10 -12 -19 -10 -12 2 -15 -2 -10 -14 4 -11 3 -15 -5
-10 -14 8 -36 -30 -26 -46 4 -7 3 -8 -4 -4 -7 4 -12 3 -12 -3 0 -6 -19 -43
-43 -84 -24 -40 -41 -79 -39 -86 3 -9 0 -11 -9 -6 -8 5 -11 5 -7 0 4 -4 -4
-21 -17 -37 -14 -16 -25 -34 -25 -40 0 -5 -9 -21 -19 -35 -11 -13 -18 -30 -15
-38 3 -7 0 -16 -7 -21 -8 -5 -10 -3 -4 6 6 9 4 11 -4 5 -7 -4 -11 -16 -8 -26
3 -11 1 -17 -4 -13 -5 3 -14 -8 -21 -23 -7 -15 -15 -30 -19 -33 -9 -7 -40 -69
-37 -74 2 -2 -6 -13 -16 -25 -14 -16 -16 -21 -5 -22 9 0 7 -3 -4 -8 -18 -7
-103 -151 -89 -151 4 0 2 -4 -4 -8 -5 -4 -21 -25 -34 -47 -13 -22 -31 -51 -39
-65 -13 -19 -13 -22 -2 -15 11 6 11 3 -2 -14 -8 -13 -14 -28 -13 -35 2 -6 1
-8 -1 -3 -8 14 -20 7 -31 -18 -7 -15 -8 -27 -2 -30 6 -4 10 -12 10 -18 0 -7
-4 -6 -10 3 -11 18 -15 14 -50 -52 -29 -55 -52 -68 -55 -31 -1 12 2 20 7 17 8
-5 11 5 11 38 0 10 3 15 7 13 4 -3 13 2 20 10 10 12 9 20 -4 42 l-17 28 20
-23 20 -22 7 22 c3 12 13 28 20 36 8 7 12 18 9 23 -4 5 -2 9 3 9 5 0 12 8 15
18 3 9 15 33 27 52 12 19 15 26 6 16 -9 -11 -16 -15 -16 -8 0 6 11 19 26 28
14 10 23 23 20 31 -3 8 -2 12 3 9 5 -3 12 1 15 10 9 22 8 26 -6 18 -7 -5 -8
-3 -4 5 5 7 11 10 14 7 5 -6 56 72 56 84 0 3 6 11 13 18 7 8 11 25 9 38 -3 14
-1 22 5 19 5 -4 6 -12 3 -18 -4 -7 -3 -8 2 -4 5 5 9 12 9 15 0 4 9 19 19 34
10 15 14 33 10 39 -4 8 -3 9 4 5 13 -8 66 89 57 104 -3 5 0 12 6 16 8 4 9 3 5
-4 -4 -7 -5 -12 -2 -12 3 0 26 38 51 85 26 47 51 87 56 90 5 4 9 12 9 18 0 7
-4 6 -10 -3 -5 -8 -10 -11 -10 -6 0 5 12 20 26 33 14 13 23 30 21 38 -3 7 1
16 9 19 9 3 12 10 9 16 -3 5 -2 10 4 10 14 0 103 168 96 180 -4 6 -3 9 2 8 4
-2 9 1 10 5 1 4 13 22 28 38 14 17 23 35 19 40 -3 5 0 9 6 9 6 0 8 5 5 10 -3
6 -2 10 4 10 15 0 43 58 35 72 -4 6 -3 8 3 5 10 -6 89 130 87 150 -1 7 2 11 6
8 4 -3 15 11 24 30 9 19 21 37 26 40 6 4 8 11 5 16 -4 5 -1 9 5 9 6 0 8 5 5
10 -3 6 -2 10 2 10 5 0 17 14 26 30 10 17 15 30 12 30 -4 0 1 7 10 16 9 9 14
23 11 31 -3 8 -1 11 4 8 9 -6 14 8 11 28 -1 5 4 5 10 1 9 -5 10 -1 7 14 -4 12
-3 20 2 17 11 -7 33 22 26 34 -4 5 0 13 7 18 20 12 39 52 31 65 -4 7 -3 8 4 4
7 -4 12 -1 12 8 0 9 4 16 9 16 12 0 62 100 55 111 -3 5 0 8 8 7 7 -2 12 5 12
14 -1 10 2 15 7 12 5 -3 9 1 9 9 0 8 7 20 15 27 9 7 14 19 11 27 -4 9 -1 11 6
7 8 -5 9 -1 4 12 -4 10 -4 15 0 12 9 -10 75 102 67 115 -4 6 -1 7 7 2 10 -6
12 -4 7 9 -4 9 -3 15 1 12 4 -2 21 21 37 52 17 31 34 60 39 63 5 4 5 12 1 19
-5 9 -4 11 3 6 11 -6 16 6 13 27 0 4 3 7 9 7 5 0 7 6 4 14 -3 8 4 19 16 26 12
6 19 14 16 17 -2 3 4 14 15 26 26 28 24 36 -11 51 -17 7 -27 15 -23 19 3 4 3
7 -1 7 -4 0 -12 -13 -17 -30 -6 -16 -15 -30 -21 -30 -5 0 -7 -4 -3 -9 3 -5 1
-12 -5 -16 -14 -9 -50 -81 -45 -89 3 -3 2 -4 -2 -1 -10 8 -54 -75 -46 -88 3
-7 3 -9 -2 -5 -11 11 -38 -29 -29 -44 4 -7 3 -8 -4 -4 -11 6 -17 -13 -13 -37
1 -5 -3 -6 -8 -3 -11 7 -23 -22 -14 -36 3 -7 1 -8 -5 -4 -12 7 -35 -27 -25
-38 3 -3 1 -6 -6 -6 -8 0 -11 -6 -7 -17 4 -10 4 -14 0 -10 -4 4 -14 -2 -22
-14 -8 -11 -11 -23 -8 -26 3 -3 -2 -12 -12 -19 -9 -7 -18 -16 -18 -21 -5 -27
-18 -52 -31 -57 -8 -3 -11 -10 -8 -16 3 -5 2 -10 -3 -10 -14 0 -44 -70 -29
-71 6 0 1 -5 -12 -10 -20 -8 -22 -11 -10 -26 11 -13 11 -15 1 -9 -17 10 -44
-23 -36 -44 3 -8 2 -11 -2 -7 -10 10 -46 -52 -38 -66 4 -7 3 -9 -1 -5 -5 5
-18 -9 -31 -29 -16 -27 -19 -40 -11 -45 8 -5 6 -8 -5 -8 -10 0 -18 -7 -18 -15
0 -8 -4 -15 -9 -15 -8 0 -24 -31 -26 -50 0 -3 -10 -18 -21 -35 -33 -47 -54
-92 -46 -100 4 -5 2 -5 -4 -2 -14 8 -45 -58 -38 -80 5 -15 4 -16 -5 -3 -9 13
-12 12 -17 -7 -4 -13 -11 -23 -16 -23 -5 0 -7 -4 -4 -9 3 -5 -1 -14 -9 -21 -8
-7 -12 -17 -9 -22 3 -5 -5 -22 -19 -36 -33 -36 -50 -70 -41 -84 4 -6 3 -8 -3
-5 -15 9 -54 -68 -47 -90 5 -15 4 -15 -4 -4 -9 12 -13 9 -24 -15 -7 -16 -18
-35 -25 -42 -13 -14 -17 -27 -14 -51 2 -7 -2 -10 -7 -7 -6 3 -20 -12 -31 -35
-13 -24 -16 -38 -9 -34 7 4 5 0 -4 -7 -26 -22 -129 -209 -121 -222 3 -6 3 -8
-2 -4 -11 10 -38 -29 -30 -42 3 -6 2 -10 -4 -10 -11 0 -57 -80 -53 -92 1 -5
-3 -8 -10 -8 -6 0 -8 -3 -5 -7 4 -3 0 -11 -9 -18 -9 -6 -17 -23 -17 -37 -1
-15 -6 -26 -12 -25 -5 1 -9 -6 -9 -15 1 -10 -2 -15 -7 -13 -7 5 -44 -55 -49
-80 -1 -5 -8 -18 -17 -27 -8 -9 -12 -22 -7 -29 4 -7 3 -10 -3 -6 -6 4 -20 -14
-33 -38 -20 -39 -21 -47 -9 -62 13 -17 13 -17 -4 -4 -16 13 -20 13 -28 0 -5
-8 -6 -21 -3 -29 3 -8 2 -11 -2 -7 -13 12 -43 -46 -31 -61 7 -9 6 -11 -4 -7
-9 3 -22 -7 -34 -27 -10 -18 -18 -34 -17 -35 7 -10 -1 -23 -13 -23 -25 0 -28
28 -6 56 11 14 18 30 15 35 -3 5 -1 9 3 9 9 0 23 25 43 73 7 15 16 27 20 27 4
0 15 18 23 39 9 22 21 42 26 45 6 4 7 14 4 24 -3 9 -2 14 2 10 11 -10 47 50
39 64 -4 6 -3 8 3 5 12 -7 46 60 37 74 -3 5 0 8 8 7 7 -2 13 4 13 12 0 8 8 22
17 31 10 9 15 18 13 21 -3 3 1 11 10 18 8 7 15 18 15 25 0 7 9 24 21 39 11 14
18 30 15 35 -3 5 2 15 10 22 24 20 65 88 67 109 1 10 4 17 8 14 4 -2 11 6 15
18 3 13 15 35 26 50 11 16 17 32 13 37 -3 6 4 15 15 21 13 7 19 17 16 26 -3 8
-2 12 3 9 5 -3 13 5 17 17 4 13 20 43 37 67 17 24 24 41 16 37 -8 -4 -5 0 5 8
11 9 16 16 10 16 -5 0 -4 4 1 8 12 8 85 130 88 146 1 6 8 17 15 24 6 7 12 19
12 26 0 8 7 19 15 26 8 7 12 16 9 21 -3 5 0 9 5 9 12 0 62 94 56 104 -3 3 -2
4 1 1 9 -6 54 78 47 88 -2 4 0 7 5 7 15 0 53 70 46 82 -5 7 -2 8 6 3 10 -6 12
-4 7 9 -4 9 -3 15 2 12 11 -7 54 72 45 86 -5 7 -3 8 6 3 10 -6 12 -4 7 9 -4
10 -3 15 3 11 10 -6 15 9 10 30 -1 5 2 7 6 3 4 -5 14 1 21 12 12 17 12 24 2
36 -9 12 -9 13 2 9 17 -6 104 138 94 155 -4 6 -1 9 5 8 11 -3 75 101 66 109
-2 2 7 15 21 29 15 15 23 32 20 44 -3 12 0 17 8 14 12 -5 39 48 38 73 0 7 4
10 10 6 6 -4 8 0 4 11 -4 9 -3 15 1 12 4 -3 14 4 21 16 10 16 10 19 -1 13 -7
-4 -2 3 12 14 21 18 23 22 10 32 -12 9 -12 10 4 5 14 -5 17 -2 12 9 -3 9 -2
13 3 10 10 -6 27 33 22 50 -1 6 1 7 5 3 8 -8 96 138 97 160 0 6 5 12 10 12 5
0 6 7 3 16 -3 8 -2 12 4 9 6 -3 10 -2 10 3 0 6 -14 15 -31 21 -26 9 -30 8 -25
-4z m-293 -608 c-10 -9 -11 -8 -5 6 3 10 9 15 12 12 3 -3 0 -11 -7 -18z m99
-177 c0 -5 -5 -10 -11 -10 -5 0 -7 5 -4 10 3 6 8 10 11 10 2 0 4 -4 4 -10z
m-297 -135 c-3 -9 -8 -14 -10 -11 -3 3 -2 9 2 15 9 16 15 13 8 -4z m-40 -20
c-3 -9 -8 -14 -10 -11 -3 3 -2 9 2 15 9 16 15 13 8 -4z m-28 -55 c3 -5 1 -10
-4 -10 -6 0 -11 5 -11 10 0 6 2 10 4 10 3 0 8 -4 11 -10z m163 -15 c-3 -3 -9
2 -12 12 -6 14 -5 15 5 6 7 -7 10 -15 7 -18z m-224 -100 c-4 -8 -8 -15 -10
-15 -2 0 -4 7 -4 15 0 8 4 15 10 15 5 0 7 -7 4 -15z m221 -113 c-3 -3 -11 0
-18 7 -9 10 -8 11 6 5 10 -3 15 -9 12 -12z m-341 -97 c-4 -8 -11 -15 -16 -15
-6 0 -5 6 2 15 7 8 14 15 16 15 2 0 1 -7 -2 -15z m280 -9 c-3 -9 -10 -13 -15
-10 -5 3 -3 11 4 19 15 16 19 13 11 -9z m-74 -126 c0 -5 -5 -10 -11 -10 -5 0
-7 5 -4 10 3 6 8 10 11 10 2 0 4 -4 4 -10z m-39 -71 c-5 -13 -10 -19 -10 -12
-1 15 10 45 15 40 3 -2 0 -15 -5 -28z m-291 -14 c-7 -8 -17 -15 -22 -15 -5 0
-2 7 6 16 9 8 16 21 17 27 0 8 2 8 6 -1 3 -7 -1 -19 -7 -27z m-32 -80 c-3 -3
-9 2 -12 12 -6 14 -5 15 5 6 7 -7 10 -15 7 -18z m267 -6 c-4 -5 -12 -9 -18 -8
-9 0 -8 2 1 6 6 2 9 10 6 15 -4 7 -2 8 5 4 6 -4 9 -12 6 -17z m-374 -152 c-10
-9 -11 -8 -5 6 3 10 9 15 12 12 3 -3 0 -11 -7 -18z m-45 -75 c-17 -16 -18 -16
-5 5 7 12 15 20 18 17 3 -2 -3 -12 -13 -22z m174 8 c-6 -11 -13 -20 -16 -20
-2 0 0 9 6 20 6 11 13 20 16 20 2 0 0 -9 -6 -20z m81 -63 c-10 -9 -11 -8 -5 6
3 10 9 15 12 12 3 -3 0 -11 -7 -18z m-161 -62 c0 -5 -5 -3 -10 5 -5 8 -10 20
-10 25 0 6 5 3 10 -5 5 -8 10 -19 10 -25z m100 -39 c0 -2 -7 -7 -16 -10 -8 -3
-12 -2 -9 4 6 10 25 14 25 6z m-46 -96 c-10 -16 -20 -28 -22 -26 -4 5 28 56
35 56 2 0 -4 -13 -13 -30z m-353 -113 c-10 -9 -11 -8 -5 6 3 10 9 15 12 12 3
-3 0 -11 -7 -18z m227 -52 c-3 -3 -9 2 -12 12 -6 14 -5 15 5 6 7 -7 10 -15 7
-18z m-11 -70 c-15 -16 -19 -13 -11 9 3 9 10 13 15 10 5 -3 3 -11 -4 -19z
m-154 0 c-3 -9 -8 -14 -10 -11 -3 3 -2 9 2 15 9 16 15 13 8 -4z m-175 -89 c-7
-8 -15 -12 -17 -11 -5 6 10 25 20 25 5 0 4 -6 -3 -14z m126 6 c3 -5 -1 -9 -9
-9 -8 0 -12 4 -9 9 3 4 7 8 9 8 2 0 6 -4 9 -8z m-114 -206 c0 -2 -8 -10 -17
-17 -16 -13 -17 -12 -4 4 13 16 21 21 21 13z m71 -69 c-10 -9 -11 -8 -5 6 3
10 9 15 12 12 3 -3 0 -11 -7 -18z"/>
<path d="M9860 9449 c0 -5 5 -7 10 -4 6 3 10 8 10 11 0 2 -4 4 -10 4 -5 0 -10
-5 -10 -11z"/>
<path d="M9710 9379 c0 -11 -3 -18 -8 -15 -4 2 -9 -20 -10 -49 -3 -54 12 -81
29 -54 12 19 11 139 -1 139 -5 0 -10 -9 -10 -21z"/>
<path d="M9080 9365 c0 -8 5 -15 10 -15 6 0 10 7 10 15 0 8 -4 15 -10 15 -5 0
-10 -7 -10 -15z"/>
<path d="M10180 9350 c0 -5 5 -10 10 -10 6 0 10 5 10 10 0 6 -4 10 -10 10 -5
0 -10 -4 -10 -10z"/>
<path d="M9381 9334 c0 -11 3 -14 6 -6 3 7 2 16 -1 19 -3 4 -6 -2 -5 -13z"/>
<path d="M9422 9285 c-34 -57 -39 -98 -12 -103 10 -2 20 9 27 30 12 34 28 128
22 128 -2 0 -19 -25 -37 -55z"/>
<path d="M9936 9239 c-9 -92 -8 -106 11 -113 26 -10 44 20 32 52 -5 14 -12 46
-13 71 -6 67 -22 61 -30 -10z"/>
<path d="M9360 9286 c0 -2 7 -9 15 -16 13 -11 14 -10 9 4 -5 14 -24 23 -24 12z"/>
<path d="M9682 9215 c10 -10 49 -14 43 -4 -4 5 -16 9 -27 9 -12 0 -19 -2 -16
-5z"/>
<path d="M9372 9180 c0 -14 2 -19 5 -12 2 6 2 18 0 25 -3 6 -5 1 -5 -13z"/>
<path d="M9386 9151 c-4 -7 -5 -15 -2 -18 9 -9 19 4 14 18 -4 11 -6 11 -12 0z"/>
<path d="M10160 9110 c0 -5 5 -10 10 -10 6 0 10 5 10 10 0 6 -4 10 -10 10 -5
0 -10 -4 -10 -10z"/>
<path d="M9580 9050 c0 -5 5 -10 10 -10 6 0 10 5 10 10 0 6 -4 10 -10 10 -5 0
-10 -4 -10 -10z"/>
<path d="M16125 8477 c-46 -49 -115 -108 -115 -100 0 4 -8 -1 -17 -9 -17 -14
-63 -37 -173 -86 -55 -24 -286 -87 -355 -97 -27 -4 -88 -7 -134 -6 -72 1 -82
-1 -77 -15 3 -8 6 -19 6 -23 0 -4 9 -17 20 -28 19 -21 21 -21 52 -5 42 20 106
24 139 7 27 -15 46 -15 68 -1 10 7 12 5 6 -3 -4 -7 4 -5 19 4 24 16 39 34 16
20 -5 -3 -10 -4 -10 -2 0 3 18 14 39 25 36 19 43 20 93 6 48 -12 54 -12 65 3
7 9 11 28 8 41 -2 13 -1 22 2 18 3 -3 13 0 22 6 9 8 8 3 -4 -12 l-20 -25 20
15 c11 8 28 24 39 36 14 18 24 20 46 14 18 -5 32 -4 39 3 8 8 11 8 11 -1 0
-16 37 -15 47 1 4 6 6 21 5 32 -2 15 -1 17 6 6 8 -10 13 -8 26 10 9 13 16 28
16 34 0 5 10 21 21 35 11 14 18 20 14 13 -4 -9 7 -12 39 -11 36 0 46 5 55 25
6 13 11 31 11 39 0 8 4 13 9 10 12 -8 19 13 13 41 -6 32 -21 28 -67 -20z
m-775 -331 c-7 -7 -13 -7 -20 0 -6 6 -3 10 10 10 13 0 16 -4 10 -10z"/>
<path d="M16070 8350 c0 -6 -19 -39 -43 -73 -37 -55 -52 -66 -79 -57 -20 6
-34 5 -40 -5 -5 -6 -8 -6 -8 3 0 31 -42 7 -94 -54 -31 -36 -56 -61 -56 -56 0
12 -25 22 -71 28 -31 4 -44 -2 -88 -36 l-52 -41 -52 15 c-87 25 -102 26 -125
10 -12 -8 -22 -19 -22 -23 0 -10 43 -20 110 -26 25 -3 51 -7 58 -10 7 -2 15 2
19 11 5 13 7 13 14 2 7 -10 9 -10 9 2 0 13 1 13 10 0 8 -13 10 -13 10 2 0 9 4
20 10 23 6 3 7 -1 4 -10 -5 -13 -1 -15 22 -10 16 4 40 10 54 15 14 4 46 14 72
20 28 7 45 17 41 23 -3 5 -1 7 5 3 12 -7 115 29 135 47 7 7 19 13 27 15 7 2
19 11 27 20 10 14 12 14 13 2 0 -9 3 -11 8 -4 4 5 30 26 57 45 58 39 96 79 89
91 -3 5 0 7 7 6 6 -2 13 2 15 8 3 5 -6 10 -18 10 -13 0 -33 4 -45 8 -15 5 -23
3 -23 -4z m-199 -183 c-10 -9 -11 -8 -5 6 3 10 9 15 12 12 3 -3 0 -11 -7 -18z"/>
<path d="M5820 8188 c0 -61 -52 -79 -88 -33 -12 15 -23 21 -27 15 -3 -5 5 -21
19 -35 30 -30 76 -33 99 -7 19 20 23 77 7 87 -6 4 -10 -8 -10 -27z"/>
<path d="M15255 7553 c-118 -5 -223 -24 -253 -46 -16 -12 -57 -56 -91 -97 -35
-41 -68 -75 -75 -75 -6 0 -16 29 -21 65 -10 60 -13 65 -35 63 -14 -1 -36 -3
-50 -4 -60 -4 -218 -30 -255 -41 -58 -17 -85 -46 -135 -147 -25 -50 -49 -89
-53 -88 -4 1 -9 37 -10 79 -1 42 -5 80 -9 83 -16 16 -439 -184 -518 -245 -132
-102 -211 -165 -240 -193 -19 -18 -47 -41 -62 -50 -16 -10 -28 -23 -28 -31 0
-7 -10 -21 -21 -32 -72 -65 -212 -284 -263 -412 -50 -124 -64 -197 -61 -317 2
-81 8 -113 29 -170 15 -38 27 -74 27 -80 -11 -160 -12 -233 -4 -238 7 -4 12
32 15 96 4 96 19 154 37 143 9 -6 104 18 141 35 79 36 155 80 229 133 45 34
94 69 108 78 14 9 29 20 32 25 7 10 110 97 160 135 81 62 240 166 296 192 33
16 67 33 75 38 39 23 159 77 195 88 22 7 51 18 65 25 49 25 306 87 415 101 22
2 67 9 100 15 33 6 79 11 103 10 23 -1 42 2 42 6 0 5 28 9 62 10 34 2 66 7 71
12 5 5 -7 41 -32 90 -22 45 -37 81 -33 81 4 0 60 -27 125 -61 118 -60 120 -61
165 -49 25 6 54 18 66 26 11 7 28 14 38 14 9 0 20 5 24 12 5 7 3 8 -6 3 -8 -5
-11 -4 -7 2 4 6 21 16 39 23 56 21 103 43 108 49 3 4 21 14 40 23 19 9 43 26
53 38 10 12 25 19 33 16 8 -3 14 1 14 9 0 8 5 15 11 15 5 0 7 6 3 13 -5 7 0 6
11 -3 10 -8 16 -10 12 -4 -4 6 6 21 22 33 18 14 32 36 35 56 4 18 13 35 20 38
16 6 10 52 -10 82 -8 11 -14 34 -14 51 0 55 -71 107 -270 197 -61 28 -72 31
-215 57 -123 22 -173 26 -250 23z m-1775 -1267 c0 -2 -8 -10 -17 -17 -16 -13
-17 -12 -4 4 13 16 21 21 21 13z"/>
<path d="M17737 4874 c-13 -13 5 -24 39 -24 24 0 34 5 34 15 0 10 -10 15 -33
15 -19 0 -37 -3 -40 -6z"/>
<path d="M17992 4849 c5 -16 78 -25 78 -10 0 6 -8 11 -17 11 -10 0 -29 3 -42
7 -18 4 -23 2 -19 -8z"/>
<path d="M17550 4830 c0 -5 23 -10 50 -10 28 0 50 5 50 10 0 6 -22 10 -50 10
-27 0 -50 -4 -50 -10z"/>
<path d="M17753 4792 c-18 -2 -33 -7 -33 -13 0 -12 67 -12 75 0 8 13 -5 17
-42 13z"/>
<path d="M17905 4780 c-4 -6 10 -10 34 -10 23 0 41 5 41 10 0 6 -15 10 -34 10
-19 0 -38 -4 -41 -10z"/>
<path d="M18140 4760 c0 -13 45 -24 66 -16 8 3 12 10 9 16 -8 13 -75 13 -75 0z"/>
<path d="M6300 4445 c0 -14 5 -25 10 -25 6 0 10 -21 10 -46 0 -25 -4 -43 -9
-40 -5 3 -11 -3 -14 -14 -3 -12 -1 -18 5 -14 6 4 9 1 6 -7 -3 -8 -11 -14 -19
-14 -10 0 -15 -15 -17 -53 -2 -33 1 -52 7 -48 5 3 22 8 38 10 15 3 58 10 95
17 66 12 67 13 62 38 -4 14 -11 30 -15 36 -5 5 -9 18 -9 30 0 20 -17 45 -84
122 -34 40 -66 44 -66 8z"/>
<path d="M16684 4216 c-91 -91 -114 -121 -64 -86 88 63 189 174 153 169 -5 -1
-44 -38 -89 -83z"/>
<path d="M10440 4101 c-143 -46 -224 -120 -301 -279 -28 -58 -52 -115 -53
-128 0 -12 -3 -20 -5 -18 -11 11 -64 -143 -55 -158 4 -6 3 -8 -2 -5 -6 3 -15
-9 -22 -26 -7 -18 -24 -56 -38 -85 -13 -29 -22 -57 -19 -63 4 -5 1 -9 -5 -9
-7 0 -10 -7 -6 -15 3 -8 2 -15 -3 -15 -12 0 -52 -110 -44 -122 3 -6 1 -8 -4
-5 -6 4 -14 -5 -19 -21 -10 -35 -8 -31 -27 -74 -10 -21 -17 -44 -17 -53 0 -8
-4 -15 -8 -15 -18 0 -37 -100 -37 -201 0 -98 2 -110 30 -165 23 -44 43 -67 79
-91 l49 -32 19 35 c10 19 15 40 12 47 -4 7 -4 9 1 5 10 -9 35 23 65 82 15 28
26 75 31 127 5 46 18 111 30 145 19 59 105 214 155 283 63 87 172 352 157 380
-4 5 -3 7 1 3 5 -4 23 15 40 41 38 56 96 121 108 121 13 0 9 -210 -6 -265 -26
-98 -109 -233 -226 -365 -72 -82 -110 -137 -110 -161 0 -26 43 -52 72 -44 35
11 58 35 85 90 14 28 56 97 94 155 162 251 209 425 154 580 -13 37 -12 42 16
97 17 32 50 86 75 121 24 35 42 68 39 72 -11 17 -142 50 -196 49 -30 0 -79 -9
-109 -18z m68 -206 c-3 -3 -9 2 -12 12 -6 14 -5 15 5 6 7 -7 10 -15 7 -18z"/>
<path d="M16513 4072 c-55 -36 -68 -52 -18 -22 59 35 81 50 70 49 -6 0 -29
-12 -52 -27z"/>
<path d="M5393 4073 c-7 -3 -13 -20 -13 -38 0 -25 5 -35 20 -40 22 -7 24 -13
10 -35 -6 -9 -5 -17 3 -23 7 -5 1 -5 -13 -1 -14 3 -22 3 -18 -1 5 -5 -1 -14
-12 -22 -25 -17 -26 -39 -2 -52 46 -27 55 -40 42 -56 -13 -15 -2 -21 16 -7 5
4 -3 -6 -19 -21 -15 -15 -29 -40 -30 -55 -2 -23 3 -28 26 -30 15 -2 41 4 59
12 17 9 46 16 63 16 20 0 35 6 39 15 3 9 19 15 43 16 21 0 47 4 58 8 19 8 19
8 -3 20 -29 15 -30 69 -2 99 24 25 25 33 5 26 -9 -4 -15 0 -15 8 0 8 -19 25
-42 38 -24 13 -52 32 -62 42 -11 10 -29 21 -40 24 -12 4 -26 14 -33 23 -6 9
-15 13 -19 8 -4 -4 -17 1 -28 12 -12 10 -27 16 -33 14z m57 -124 c0 6 6 11 13
11 23 0 171 -66 175 -78 7 -21 -25 -13 -100 23 -40 20 -78 33 -84 31 -7 -3
-18 3 -26 12 -12 15 -11 16 5 3 11 -9 17 -10 17 -2z m163 -150 c-14 -13 -136
-14 -141 -1 -2 8 14 12 52 12 30 0 58 5 61 10 5 8 11 7 21 -1 8 -7 11 -16 7
-20z"/>
<path d="M16385 4012 c-22 -10 -90 -33 -152 -52 -62 -19 -110 -36 -109 -38 9
-8 207 49 266 76 68 32 64 44 -5 14z"/>
<path d="M7017 3994 c-14 -14 -7 -35 11 -32 9 2 17 10 17 17 0 16 -18 25 -28
15z"/>
<path d="M17335 3934 c-27 -19 -83 -54 -124 -77 -43 -25 -66 -43 -57 -45 29
-6 246 125 246 149 0 15 -12 10 -65 -27z"/>
<path d="M16050 3908 c-19 -6 -30 -12 -24 -15 7 -2 27 3 45 11 39 17 29 19
-21 4z"/>
<path d="M11946 3765 c-37 -36 -71 -65 -76 -65 -4 0 -22 -11 -38 -25 -27 -23
-33 -24 -88 -15 -154 25 -309 -40 -509 -215 -50 -43 -120 -100 -156 -126 -88
-64 -115 -129 -68 -162 29 -21 52 -11 107 47 296 314 344 350 510 382 80 15
152 18 152 6 0 -4 -33 -41 -73 -83 -55 -57 -92 -86 -148 -113 -40 -21 -83 -43
-94 -49 -89 -52 -114 -70 -108 -81 3 -6 3 -8 -2 -4 -10 9 -37 -11 -30 -22 3
-4 -3 -7 -13 -6 -10 0 -16 -5 -14 -14 2 -8 0 -12 -3 -8 -4 4 -37 -19 -74 -51
-36 -32 -88 -73 -116 -92 -27 -19 -52 -36 -55 -39 -11 -12 -89 -41 -150 -56
-81 -19 -122 -38 -157 -70 -14 -13 -48 -41 -75 -61 -26 -21 -48 -41 -48 -45 0
-20 66 -78 112 -98 40 -18 71 -23 128 -23 113 1 165 20 377 144 51 30 154 90
229 134 76 44 140 80 143 80 11 -1 41 30 41 42 0 6 4 15 10 18 6 4 7 -1 3 -12
-6 -16 -5 -17 13 -3 10 8 22 19 26 24 3 5 14 11 23 12 22 3 46 24 39 35 -3 5
3 6 12 2 13 -5 15 -3 9 7 -6 9 -4 11 4 6 7 -5 21 0 32 10 10 9 19 14 19 10 0
-9 25 11 63 52 17 17 37 32 44 32 7 0 13 7 13 15 0 8 3 14 8 13 4 -2 8 1 9 5
1 5 12 17 24 28 12 10 19 19 16 19 -4 0 5 17 19 37 19 28 22 38 12 45 -9 5 -9
8 -1 8 13 0 33 53 33 90 0 15 6 33 14 39 9 7 12 25 10 49 -5 58 -25 132 -35
132 -5 0 -8 3 -7 8 3 11 -31 72 -41 72 -4 0 -38 -29 -75 -65z"/>
<path d="M16010 3790 c0 -5 5 -10 11 -10 5 0 7 5 4 10 -3 6 -8 10 -11 10 -2 0
-4 -4 -4 -10z"/>
<path d="M16065 3760 c3 -4 16 -10 30 -12 13 -3 22 -2 20 2 -3 4 -16 10 -30
12 -13 3 -22 2 -20 -2z"/>
<path d="M16988 3753 c7 -3 16 -2 19 1 4 3 -2 6 -13 5 -11 0 -14 -3 -6 -6z"/>
<path d="M16178 3723 c7 -3 16 -2 19 1 4 3 -2 6 -13 5 -11 0 -14 -3 -6 -6z"/>
<path d="M16825 3710 l-30 -8 30 -1 c17 0 37 4 45 9 13 9 13 10 0 9 -8 -1 -28
-5 -45 -9z"/>
<path d="M16318 3693 c6 -2 18 -2 25 0 6 3 1 5 -13 5 -14 0 -19 -2 -12 -5z"/>
<path d="M16758 3693 c6 -2 18 -2 25 0 6 3 1 5 -13 5 -14 0 -19 -2 -12 -5z"/>
<path d="M16400 3678 c58 -8 258 -8 289 1 13 3 -57 6 -155 6 -101 0 -159 -3
-134 -7z"/>
<path d="M6262 3528 c-2 -10 -8 -18 -12 -18 -5 0 -11 -13 -15 -30 -4 -16 -11
-30 -16 -30 -6 0 -8 -4 -4 -9 3 -6 22 -9 43 -7 20 1 47 -1 60 -6 30 -10 48 0
112 61 l52 50 -108 3 c-95 3 -108 1 -112 -14z"/>
<path d="M7376 3133 c-3 -4 -6 -23 -6 -44 0 -20 -3 -39 -7 -41 -15 -6 -43 -79
-43 -109 0 -24 4 -30 15 -25 8 3 44 10 78 16 77 14 100 26 75 40 -10 6 -15 17
-11 25 3 9 -12 42 -33 75 -38 58 -56 74 -68 63z"/>
<path d="M6609 2815 c-1 -5 -1 -13 0 -17 0 -5 -3 -8 -8 -8 -5 0 -5 -12 1 -28
9 -24 8 -33 -11 -58 -22 -31 -20 -64 4 -64 28 0 25 -67 -4 -85 -6 -3 -11 -13
-11 -21 0 -12 11 -14 50 -13 28 2 50 7 50 11 0 5 10 6 21 3 15 -5 19 -4 15 4
-5 7 3 11 23 11 16 0 36 6 43 13 7 8 19 12 26 9 11 -3 11 0 1 15 -7 12 -9 31
-5 46 3 15 6 30 5 33 0 4 5 11 13 16 10 7 9 8 -4 4 -10 -3 -18 -1 -18 5 0 6
-7 9 -15 5 -8 -3 -14 -2 -14 2 3 20 -2 32 -15 32 -8 0 -16 7 -20 15 -3 8 -16
15 -30 15 -13 0 -26 7 -30 15 -3 8 -14 15 -25 15 -11 0 -25 8 -30 18 -6 9 -11
13 -12 7z m137 -121 c47 -21 71 -44 45 -44 -18 0 -141 62 -141 72 0 11 22 5
96 -28z m34 -94 c0 -5 -10 -10 -22 -11 -13 0 -34 -2 -48 -4 -14 -2 -34 -1 -45
3 -18 5 -18 6 5 13 38 11 110 10 110 -1z"/>
<path d="M7936 2751 c-3 -5 0 -14 8 -20 10 -9 15 -8 19 3 9 22 -15 37 -27 17z"/>
<path d="M7307 2373 c-3 -5 -8 -23 -12 -40 -5 -24 -3 -33 7 -34 7 0 29 -2 48
-4 45 -4 120 43 120 75 0 12 -156 14 -163 3z"/>
</g>
</svg>
