<?xml version="1.0" standalone="no"?>
<!DOCTYPE svg PUBLIC "-//W3C//DTD SVG 20010904//EN"
 "http://www.w3.org/TR/2001/REC-SVG-20010904/DTD/svg10.dtd">
<svg version="1.0" xmlns="http://www.w3.org/2000/svg"
 width="200.000000pt" height="200.000000pt" viewBox="0 0 2000.000000 2000.000000"
 preserveAspectRatio="xMidYMid meet">

<g transform="translate(0.000000,2000.000000) scale(0.100000,-0.100000)"
fill="#000000" stroke="none">
<path d="M8741 19089 c-79 -111 -146 -210 -148 -220 -4 -14 0 -19 15 -19 31 0
125 -37 167 -65 20 -14 38 -25 40 -25 4 0 17 64 34 165 28 165 43 245 52 293
6 30 9 55 7 58 -3 2 -22 -42 -42 -99 -21 -56 -47 -122 -58 -147 -40 -92 -80
-171 -84 -167 -8 8 45 158 99 277 55 123 67 150 64 150 -2 0 -68 -90 -146
-201z"/>
<path d="M8110 19267 c0 -3 20 -47 44 -100 57 -123 118 -286 113 -300 -7 -18
-96 178 -154 338 -15 42 -19 46 -22 25 -1 -14 2 -47 7 -75 6 -27 23 -122 37
-210 15 -88 29 -165 30 -172 3 -7 32 3 82 28 43 22 95 42 116 45 20 4 37 11
37 16 0 5 -51 81 -112 169 -62 88 -123 176 -135 194 -20 30 -43 53 -43 42z"/>
<path d="M13980 19014 c0 -3 8 -18 19 -32 27 -38 47 -91 61 -157 14 -70 -1
-160 -40 -238 -25 -50 -27 -52 -75 -58 -85 -11 -182 -53 -245 -105 -30 -26
-34 -27 -64 -15 -149 62 -242 75 -340 49 -44 -11 -45 -11 -89 25 -49 40 -105
120 -127 182 -8 22 -15 77 -16 122 0 46 -3 85 -6 88 -6 7 -48 -47 -77 -98 -85
-152 -60 -373 61 -526 l19 -25 -56 -27 c-66 -31 -93 -55 -147 -127 -31 -42
-42 -50 -56 -44 -28 15 -72 23 -72 14 0 -4 17 -21 38 -37 37 -28 39 -31 30
-65 -15 -55 -30 -180 -24 -196 3 -8 9 -14 14 -14 5 0 69 65 142 146 97 105
136 142 144 134 6 -6 13 -41 16 -78 l6 -67 17 39 c9 21 17 62 18 90 l0 51 14
-30 c8 -16 24 -52 37 -80 27 -62 60 -115 114 -181 45 -57 75 -127 94 -219 37
-178 73 -243 160 -288 53 -27 59 -28 175 -24 138 5 205 23 267 70 74 56 89
102 104 302 13 170 14 176 48 237 19 35 49 106 67 158 28 86 32 108 33 227 2
73 5 136 9 139 8 9 19 -54 20 -130 1 -36 7 -69 12 -74 6 -5 64 -38 130 -72 66
-34 127 -69 136 -77 14 -12 49 -9 49 4 0 19 -83 164 -121 211 -49 61 -135 126
-182 137 -15 4 -30 11 -33 16 -3 5 2 56 12 113 15 94 15 110 1 178 -33 163
-128 284 -269 346 -16 6 -28 9 -28 6z m163 -143 c50 -55 83 -121 66 -132 -10
-6 -10 -13 -1 -34 7 -14 16 -24 21 -21 5 3 11 -8 15 -25 18 -91 -12 -289 -44
-289 -32 0 -124 56 -154 93 l-30 38 29 58 c17 33 33 54 36 49 4 -6 12 -1 19
12 13 25 4 42 -11 20 -9 -13 -10 -13 -6 1 21 66 16 208 -9 273 -6 16 -4 17 13
8 11 -6 36 -29 56 -51z m-1098 -206 c8 -27 30 -76 49 -108 19 -31 31 -55 25
-52 -15 10 -10 -7 8 -27 21 -23 40 -24 22 -1 -8 10 7 0 34 -21 38 -31 47 -44
47 -70 0 -40 -41 -124 -76 -157 l-26 -24 -38 42 c-43 48 -105 171 -114 223 -4
26 -4 30 3 15 9 -18 10 -18 10 7 1 39 -9 63 -20 46 -14 -22 -10 72 5 130 8 29
23 65 33 80 l18 27 3 -30 c2 -16 9 -52 17 -80z m917 -286 l23 0 -22 -9 c-15
-6 -23 -18 -23 -32 l0 -22 -16 22 c-8 12 -23 22 -32 22 -13 0 -12 3 6 16 12 8
22 23 23 32 0 12 3 11 9 -5 6 -14 18 -23 32 -24z m-537 -50 c18 -7 18 -8 2 -8
-10 -1 -21 -10 -25 -20 -7 -19 -8 -19 -29 5 -12 13 -17 24 -12 24 5 0 15 12
21 28 l11 27 6 -24 c4 -13 15 -28 26 -32z m284 18 l32 38 -6 -49 -7 -49 53 5
53 5 -37 -29 c-20 -17 -37 -34 -37 -39 0 -4 17 -20 38 -34 l37 -26 -50 3 -50
3 3 -49 3 -49 -27 34 c-16 19 -30 36 -32 39 -2 3 -19 -13 -37 -34 l-32 -39 5
52 5 53 -49 -7 -49 -7 39 34 38 34 -36 24 c-20 14 -36 27 -36 30 0 3 21 3 46
1 l47 -3 -6 48 -5 49 32 -38 33 -39 32 39z m349 -99 c28 -28 1 -75 -38 -63
-14 4 -20 15 -20 35 0 37 33 53 58 28z m-714 -51 c36 -26 -4 -84 -41 -61 -25
16 -28 45 -7 61 10 7 21 13 24 13 3 0 14 -6 24 -13z m610 -30 c28 -20 18 -61
-16 -65 -36 -4 -53 26 -32 56 18 26 24 27 48 9z m193 -63 c14 -46 15 -59 4
-96 -15 -49 -88 -128 -118 -128 -15 0 -43 34 -43 53 0 2 15 1 33 -1 80 -9 124
92 63 144 -15 13 -38 24 -51 24 -34 0 -23 20 27 53 50 32 61 26 85 -49z m-677
26 c13 -25 -10 -53 -41 -48 -30 4 -39 46 -14 64 20 15 42 8 55 -16z m-140 -36
c39 -16 53 -34 27 -34 -16 0 -51 -37 -60 -63 -11 -30 17 -82 52 -97 28 -11 37
-11 67 3 32 16 34 16 34 -2 0 -55 -27 -63 -95 -32 -75 34 -125 122 -109 194
11 55 18 57 84 31z m594 -60 c19 -18 19 -20 6 -45 -6 -10 -19 -19 -28 -19 -39
0 -57 50 -24 69 23 14 28 14 46 -5z m-384 -9 c6 -8 9 -23 5 -35 -5 -17 -13
-20 -38 -18 -21 2 -33 9 -35 21 -8 39 42 63 68 32z m248 -195 c39 -85 49 -168
21 -195 -19 -19 -78 -30 -114 -21 -42 11 -60 65 -45 140 13 67 35 138 53 174
l11 24 20 -24 c10 -12 35 -57 54 -98z m156 74 c9 -8 16 -19 16 -24 0 -13 -30
-40 -44 -40 -17 0 -36 21 -36 40 0 19 19 40 36 40 7 0 20 -7 28 -16z m-385
-13 c14 -26 -8 -54 -39 -49 -25 3 -36 27 -26 54 8 20 53 17 65 -5z m406 -407
c18 -8 36 -25 39 -37 9 -35 7 -67 -5 -67 -5 0 -8 3 -5 8 11 18 -25 72 -61 91
-46 24 -18 29 32 5z m-345 -4 c0 -5 -7 -10 -16 -10 -23 0 -74 -55 -74 -79 0
-12 -4 -21 -10 -21 -17 0 -11 66 8 83 32 29 92 47 92 27z m324 -41 c29 -23 33
-54 10 -87 -31 -45 -114 -18 -114 37 0 31 8 44 35 59 28 16 39 15 69 -9z
m-280 -21 c22 -31 20 -64 -4 -88 -58 -58 -149 31 -93 92 23 26 78 24 97 -4z"/>
<path d="M14143 18775 c0 -22 2 -30 4 -17 2 12 2 30 0 40 -3 9 -5 -1 -4 -23z"/>
<path d="M14096 18541 c-4 -7 -5 -15 -2 -18 9 -9 19 4 14 18 -4 11 -6 11 -12
0z"/>
<path d="M14207 18524 c-4 -4 -7 -14 -7 -23 0 -11 3 -12 11 -4 6 6 10 16 7 23
-2 6 -7 8 -11 4z"/>
<path d="M13011 18614 c0 -11 3 -14 6 -6 3 7 2 16 -1 19 -3 4 -6 -2 -5 -13z"/>
<path d="M13070 18333 c0 -5 9 -18 20 -28 11 -10 20 -15 20 -11 0 4 -9 16 -20
28 -11 12 -20 17 -20 11z"/>
<path d="M13700 17848 c-7 -24 -16 -56 -21 -72 -31 -101 10 -163 86 -131 32
13 35 18 35 55 0 43 -60 190 -78 190 -5 0 -15 -19 -22 -42z"/>
<path d="M4276 18993 c-11 -11 -6 -43 5 -40 6 1 13 -3 16 -10 3 -8 -8 -11 -31
-9 -36 3 -50 -6 -71 -47 -13 -27 -32 -33 -37 -11 -2 13 -19 6 -83 -37 -101
-68 -244 -210 -314 -313 -63 -92 -141 -262 -144 -314 -2 -32 2 -38 37 -58 102
-58 354 -106 536 -102 l95 2 -87 3 c-100 4 -98 2 -74 96 37 144 102 227 175
227 56 0 126 -65 173 -162 34 -68 55 -132 50 -151 -1 -5 19 -5 45 -1 143 20
330 90 426 158 37 27 35 62 -9 155 -93 194 -237 346 -430 456 -85 48 -99 53
-90 30 7 -19 -4 -19 -30 -1 -10 8 -16 18 -12 22 4 4 -12 19 -35 34 -26 17 -45
23 -49 17 -10 -16 -40 14 -35 34 5 17 -15 33 -27 22z m4 -91 c0 -4 12 -9 27
-10 29 -2 61 -27 50 -38 -4 -4 -13 -1 -22 6 -12 10 -15 10 -15 0 0 -10 -3 -10
-14 -1 -8 6 -20 10 -27 9 -8 -2 -15 7 -17 20 -2 12 1 22 7 22 6 0 11 -4 11 -8z
m105 -12 c10 -11 15 -20 11 -20 -14 0 -46 21 -46 30 0 16 16 11 35 -10z m-145
-4 c0 -8 -4 -18 -10 -21 -5 -3 -10 3 -10 14 0 12 5 21 10 21 6 0 10 -6 10 -14z
m200 -114 c0 -12 -4 -12 -20 3 -11 10 -20 25 -20 33 0 12 4 12 20 -3 11 -10
20 -25 20 -33z m58 12 c7 -13 7 -24 2 -24 -9 0 -40 39 -40 52 0 16 28 -4 38
-28z m-331 -23 c-12 -25 -12 -25 -15 -2 -2 12 -1 30 3 39 5 13 8 14 15 3 5 -8
3 -25 -3 -40z m63 19 c0 -16 -4 -30 -10 -30 -11 0 -14 43 -3 53 11 12 13 8 13
-23z m70 0 c1 -8 2 -22 1 -30 -2 -25 -21 10 -21 40 0 25 17 17 20 -10z m58
-11 l-5 -24 -10 25 c-12 28 -6 47 9 32 5 -5 8 -20 6 -33z m217 10 c4 -6 4 -13
1 -16 -7 -7 -46 26 -46 39 0 10 36 -8 45 -23z m-467 -1 c-10 -14 -27 -24 -47
-25 -28 -3 -31 -1 -21 16 9 18 28 26 69 30 11 1 11 -3 -1 -21z m162 -4 c0 -8
-4 -14 -10 -14 -5 0 -10 9 -10 21 0 11 5 17 10 14 6 -3 10 -13 10 -21z m450
-86 c17 -17 28 -33 25 -36 -6 -7 -75 47 -75 59 0 18 20 9 50 -23z m-230 -51
c0 -11 -5 -15 -11 -11 -11 6 -39 66 -39 81 1 16 50 -53 50 -70z m60 12 c0 -18
-17 -8 -30 19 -23 45 -23 48 4 19 14 -15 26 -32 26 -38z m-584 23 c-17 -33
-44 -58 -53 -49 -7 8 44 77 58 77 5 0 3 -13 -5 -28z m155 -69 c-8 -14 -10 -10
-11 24 0 61 14 89 18 36 2 -24 -1 -51 -7 -60z m69 49 c0 -20 -5 -44 -10 -52
-7 -11 -10 2 -10 43 0 36 4 56 10 52 6 -3 10 -23 10 -43z m415 7 c9 -16 11
-29 6 -29 -13 0 -41 40 -41 58 0 19 18 5 35 -29z m65 16 c0 -2 3 -10 6 -19 11
-29 -15 -17 -31 15 -16 30 -16 30 4 19 12 -6 21 -12 21 -15z m-645 -7 c-11
-36 -25 -45 -25 -17 0 27 7 39 22 39 5 0 6 -10 3 -22z m49 -40 c-13 -24 -19
-28 -22 -16 -2 9 5 32 14 50 13 24 19 28 22 16 2 -9 -5 -32 -14 -50z m176 5
c0 -18 -4 -33 -10 -33 -5 0 -10 21 -10 48 0 34 3 43 10 32 5 -8 10 -30 10 -47z
m54 -26 c-7 -22 -7 -22 -15 -2 -4 11 -8 36 -7 55 l0 35 14 -33 c8 -19 12 -43
8 -55z m56 23 c0 -26 -3 -31 -10 -20 -5 8 -10 31 -10 50 0 26 3 31 10 20 5 -8
10 -31 10 -50z m60 1 c0 -14 -4 -21 -8 -15 -15 17 -31 62 -24 69 10 10 32 -26
32 -54z m-526 -68 c-7 -28 -7 -28 15 -9 11 11 21 15 21 10 0 -16 -55 -97 -80
-119 l-23 -20 12 22 c15 29 14 36 -3 30 -22 -8 1 49 32 85 31 35 34 35 26 1z
m-70 -43 c-30 -56 -64 -93 -64 -69 1 17 17 46 50 87 38 47 45 38 14 -18z m969
18 c37 -50 51 -79 34 -72 -15 5 -46 44 -66 82 -18 34 4 27 32 -10z m-809 5
c-12 -36 -34 -79 -54 -103 -40 -51 -15 29 28 88 27 36 34 40 26 15z m783 -107
c15 -30 15 -30 -27 9 -23 22 -51 58 -61 80 l-20 40 46 -49 c25 -27 53 -63 62
-80z m-747 97 c0 -18 -28 -112 -38 -129 -10 -17 -11 -17 -12 7 0 34 30 129 42
129 4 0 8 -3 8 -7z m73 -45 c-6 -52 -28 -118 -39 -118 -9 0 7 92 23 133 9 20
17 37 19 37 2 0 0 -24 -3 -52z m177 -9 c0 -15 -4 -30 -9 -33 -12 -8 -21 19
-21 62 1 35 2 36 15 18 8 -11 15 -32 15 -47z m354 34 c25 -27 81 -123 72 -123
-11 0 -56 56 -81 102 -30 54 -27 60 9 21z m244 0 c11 -16 22 -39 26 -53 6 -23
4 -22 -24 10 -16 19 -30 42 -30 52 0 25 5 23 28 -9z m-677 -80 c-8 -14 -10
-10 -11 24 0 61 14 89 18 36 2 -24 -1 -51 -7 -60z m119 51 c0 -21 -4 -33 -10
-29 -5 3 -10 22 -10 41 0 21 4 33 10 29 6 -3 10 -22 10 -41z m-170 -31 c-7
-32 -19 -69 -27 -83 -13 -24 -14 -22 -8 25 6 49 34 129 42 121 3 -2 -1 -31 -7
-63z m434 25 c30 -52 45 -105 26 -93 -13 8 -60 103 -60 123 0 21 8 14 34 -30z
m-194 -16 c5 -20 10 -48 10 -62 l-1 -25 -14 26 c-19 36 -32 114 -17 105 6 -4
16 -23 22 -44z m157 -82 c3 -25 3 -42 -1 -39 -14 13 -46 115 -45 144 0 29 1
28 20 -15 11 -24 23 -65 26 -90z m-82 9 l6 -44 -20 36 c-11 21 -23 57 -26 80
l-6 44 20 -36 c11 -21 23 -57 26 -80z m-715 -68 c-10 -35 -27 -68 -51 -100
-15 -19 -19 -20 -19 -7 0 28 60 136 76 136 1 0 -1 -13 -6 -29z m1131 -50 c11
-25 18 -54 17 -65 -3 -18 -6 -16 -22 14 -11 19 -25 58 -32 85 -12 46 -12 48 2
30 9 -11 25 -40 35 -64z m47 47 c11 -18 23 -44 27 -58 7 -23 6 -24 -9 -11 -21
18 -46 64 -46 86 0 22 6 19 28 -17z m-120 -63 c11 -22 22 -51 26 -65 7 -24 6
-24 -19 5 -22 26 -65 122 -65 143 1 13 39 -42 58 -83z m-1017 32 c-12 -36 -61
-108 -61 -90 0 30 58 138 68 128 2 -2 -1 -19 -7 -38z m73 8 c-20 -48 -52 -105
-70 -122 -39 -39 17 90 59 135 27 29 29 28 11 -13z m1135 -30 c0 -20 0 -20
-14 -1 -8 11 -15 31 -15 45 l1 26 14 -25 c8 -14 14 -34 14 -45z m-1064 23
c-18 -57 -75 -158 -75 -131 0 21 24 80 48 116 28 42 36 47 27 15z m772 -30
c12 -24 24 -56 28 -73 6 -29 6 -29 -10 -10 -19 23 -39 67 -49 108 -9 39 5 27
31 -25z m-709 -4 c-9 -40 -43 -114 -53 -114 -4 0 4 34 17 80 10 31 36 80 43
80 1 0 -2 -21 -7 -46z m647 -48 c17 -41 19 -70 5 -61 -13 8 -36 62 -45 106 -7
33 -6 34 10 12 9 -13 22 -38 30 -57z m-605 -39 c-12 -31 -25 -59 -29 -61 -12
-8 4 75 25 124 17 40 19 42 22 19 2 -14 -7 -51 -18 -82z m536 6 l6 -38 -20 30
c-11 17 -23 48 -26 70 l-7 40 21 -32 c12 -17 23 -49 26 -70z m-467 9 c-6 -20
-18 -45 -25 -56 -11 -16 -12 -12 -7 25 4 24 13 60 22 79 13 31 15 33 19 12 2
-12 -2 -39 -9 -60z"/>
<path d="M8340 18777 c-175 -59 -299 -209 -330 -398 -28 -174 61 -371 213
-472 156 -104 362 -108 523 -11 79 47 118 87 164 164 51 86 70 156 70 256 0
139 -41 235 -145 340 -103 103 -201 144 -345 143 -60 0 -104 -7 -150 -22z
m365 -86 c28 -16 60 -39 72 -52 34 -38 71 -119 77 -174 l7 -50 -22 55 c-42
104 -92 170 -173 224 -52 35 -23 33 39 -3z m-481 -33 c-16 -18 -35 -38 -42
-46 -27 -30 -90 -179 -97 -230 -13 -102 -25 -112 -21 -17 5 99 17 140 58 200
36 52 56 75 92 103 41 31 45 27 10 -10z m406 9 c19 -9 25 -14 12 -11 -43 11
-197 7 -237 -5 -47 -15 -130 -54 -165 -78 -19 -12 -16 -7 10 21 35 38 68 60
125 82 44 18 211 12 255 -9z m53 -135 c49 -46 78 -124 75 -195 l-3 -62 -14 60
c-23 96 -57 160 -114 211 l-52 46 40 -17 c22 -9 53 -28 68 -43z m-148 19 c28
-7 27 -8 -20 -16 -94 -15 -159 -57 -212 -136 -14 -21 -27 -39 -29 -39 -1 0 4
20 12 44 18 52 62 99 123 131 47 25 74 28 126 16z m52 -77 c26 -17 48 -48 58
-84 6 -21 3 -19 -21 12 -37 48 -79 68 -146 69 l-53 1 30 14 c35 16 98 11 132
-12z m-372 -99 c-19 -91 -19 -124 4 -215 11 -41 18 -76 16 -78 -2 -2 -15 23
-31 55 -37 78 -39 193 -4 266 12 26 24 46 26 44 2 -1 -3 -34 -11 -72z m480 22
c22 -43 19 -115 -6 -156 -24 -40 -32 -37 -19 10 14 47 12 98 -4 153 -12 40
-12 45 0 35 7 -6 20 -25 29 -42z m216 -52 c1 -48 -5 -101 -11 -118 -25 -65
-53 -117 -78 -139 l-25 -23 23 45 c12 25 26 52 30 60 12 27 40 154 46 213 8
82 15 65 15 -38z m-406 62 c-41 -13 -74 -45 -95 -90 -22 -48 -35 -32 -19 23
17 57 73 94 124 81 16 -4 15 -6 -10 -14z m-163 -104 c-4 -67 10 -108 62 -176
27 -35 30 -44 15 -40 -44 12 -109 115 -109 173 0 24 25 100 33 100 2 0 2 -26
-1 -57z m262 31 c16 -43 -5 -97 -43 -107 -19 -5 -19 -4 0 27 10 17 19 46 19
64 0 34 14 43 24 16z m202 -71 c-7 -56 -44 -121 -88 -158 -31 -27 -49 -36 -98
-49 -20 -6 -19 -4 9 14 63 40 128 117 153 180 12 33 25 60 27 60 2 0 1 -21 -3
-47z m-279 -65 c50 -23 44 -34 -12 -24 -44 9 -75 48 -75 95 l1 36 20 -43 c15
-32 30 -47 66 -64z m-366 -96 c37 -78 127 -170 206 -212 72 -38 31 -29 -54 11
-114 55 -197 177 -208 305 l-5 69 15 -55 c9 -30 29 -83 46 -118z m511 58 c-51
-42 -138 -53 -197 -25 l-30 15 45 -4 c54 -4 134 12 175 35 42 23 46 12 7 -21z
m-267 -119 c30 -12 81 -24 113 -27 101 -12 95 -26 -9 -21 -119 6 -177 34 -231
110 -20 28 -20 28 25 -6 26 -19 71 -45 102 -56z m449 -12 c-72 -77 -184 -120
-308 -118 -129 2 -146 14 -31 22 144 10 243 41 325 101 46 33 50 32 14 -5z"/>
<path d="M7534 18721 c4 -6 12 -11 17 -11 35 0 425 -168 393 -170 -13 0 -142
43 -186 64 -138 63 -240 103 -218 86 26 -21 376 -271 397 -283 8 -5 17 12 28
50 18 65 31 95 57 135 24 35 23 45 -9 53 -26 6 -268 48 -373 65 -30 4 -68 11
-84 15 -21 6 -27 5 -22 -4z"/>
<path d="M9395 18720 c-16 -4 -61 -13 -100 -19 -103 -17 -285 -49 -321 -56
l-31 -7 38 -75 c21 -41 41 -92 44 -114 4 -21 10 -41 14 -43 7 -5 358 239 411
285 29 25 25 23 -95 -29 -109 -48 -269 -108 -310 -117 -69 -15 162 89 325 146
92 32 108 51 25 29z"/>
<path d="M2793 18563 c-7 -2 -13 -17 -13 -33 0 -29 -25 -60 -32 -40 -5 17 -58
-28 -58 -49 0 -21 -37 -58 -47 -47 -4 4 -2 16 5 26 7 11 10 20 8 20 -14 0 -97
-52 -177 -113 -264 -197 -442 -435 -543 -725 -38 -108 -37 -116 32 -151 67
-33 156 -65 227 -80 28 -6 70 -15 95 -20 95 -21 340 -43 377 -35 37 8 36 9
-27 14 l-65 5 3 35 c9 87 56 220 105 292 69 103 177 116 265 31 66 -63 161
-249 165 -323 l2 -35 -85 -5 c-65 -4 -79 -7 -58 -14 52 -16 312 29 465 80 99
33 244 104 306 150 47 34 49 37 42 72 -10 53 -84 205 -150 307 -74 115 -249
290 -365 366 -159 104 -282 161 -235 109 15 -16 15 -20 3 -20 -8 0 -22 8 -31
18 -19 20 -23 37 -7 27 6 -3 10 -1 10 4 0 6 -6 11 -13 11 -7 0 -36 16 -64 35
-60 40 -63 41 -63 18 0 -14 -2 -14 -20 2 -11 10 -19 26 -18 34 3 18 -9 41 -20
40 -4 0 -13 -3 -19 -6z m27 -69 c0 -8 -4 -14 -10 -14 -5 0 -10 9 -10 21 0 11
5 17 10 14 6 -3 10 -13 10 -21z m-20 -70 c0 -13 -4 -24 -10 -24 -5 0 -10 14
-10 31 0 17 4 28 10 24 6 -3 10 -17 10 -31z m131 6 c18 -15 20 -19 8 -20 -9 0
-24 9 -34 20 -23 26 -4 26 26 0z m-188 -10 c-6 -22 -21 -35 -29 -27 -7 7 15
47 25 47 5 0 7 -9 4 -20z m95 8 c7 -7 12 -21 12 -32 -1 -20 -1 -20 -20 3 -29
34 -22 59 8 29z m46 -14 c19 -18 21 -37 4 -32 -16 6 -43 48 -30 48 6 0 18 -7
26 -16z m21 -135 c4 -17 5 -33 2 -36 -7 -7 -37 52 -37 73 0 27 28 -2 35 -37z
m104 -1 c9 -25 8 -26 -9 -16 -16 10 -40 48 -40 64 0 15 41 -25 49 -48z m63 35
c9 -10 19 -29 23 -43 l7 -25 -25 23 c-25 23 -42 62 -28 62 5 0 15 -8 23 -17z
m-514 -45 c-19 -27 -23 -30 -26 -14 -4 19 40 74 46 57 2 -6 -7 -25 -20 -43z
m83 -15 c-9 -16 -10 -15 -11 9 0 14 3 35 8 45 6 15 8 14 10 -9 2 -15 -1 -35
-7 -45z m89 26 c0 -24 -4 -38 -10 -34 -17 10 -11 75 7 75 2 0 3 -18 3 -41z
m94 19 c3 -13 6 -34 6 -48 -1 -24 -1 -24 -15 -6 -16 21 -20 76 -6 76 5 0 11
-10 15 -22z m369 -23 c4 -8 3 -15 -2 -15 -13 0 -61 40 -61 51 0 14 57 -18 63
-36z m-413 4 c0 -11 -4 -17 -10 -14 -5 3 -10 15 -10 26 0 11 5 17 10 14 6 -3
10 -15 10 -26z m-260 1 c-11 -20 -50 -47 -50 -33 1 19 30 44 58 52 1 1 -2 -8
-8 -19z m880 -141 l25 -32 -25 13 c-30 15 -90 70 -90 83 0 15 64 -30 90 -64z
m-350 10 c29 -56 22 -86 -8 -36 -20 34 -30 77 -17 77 2 0 14 -18 25 -41z
m-381 -46 c0 -53 -3 -72 -9 -58 -14 33 -9 135 6 135 2 0 4 -35 3 -77z m481 9
c0 -14 -2 -14 -19 3 -10 11 -22 31 -26 45 l-6 25 25 -28 c14 -15 26 -36 26
-45z m-760 48 c0 -12 -71 -92 -77 -86 -8 8 27 65 49 80 26 19 28 19 28 6z m60
-45 c-12 -36 -30 -48 -30 -20 0 24 33 82 37 68 3 -7 -1 -29 -7 -48z m145 -42
c-3 -18 -10 -33 -15 -33 -14 0 -12 47 2 95 l12 40 4 -34 c2 -19 1 -50 -3 -68z
m385 28 c5 -19 8 -37 6 -39 -8 -8 -36 45 -42 79 -5 32 -5 33 10 14 9 -10 21
-35 26 -54z m240 37 c11 -18 20 -39 20 -47 0 -22 -37 15 -49 50 -14 40 4 38
29 -3z m98 -8 c12 -18 19 -36 16 -39 -7 -7 -64 58 -64 72 0 17 26 0 48 -33z
m-782 -12 c-4 -18 -15 -44 -26 -58 l-21 -25 7 30 c8 39 35 97 42 91 2 -3 2
-20 -2 -38z m216 -55 l-9 -28 -8 37 c-4 21 -4 50 0 65 l8 28 9 -37 c6 -24 6
-48 0 -65z m74 15 c5 -51 5 -52 -10 -28 -8 14 -15 45 -15 70 0 61 18 30 25
-42z m84 -2 c0 -60 -22 -30 -27 36 -4 51 -3 52 11 28 8 -14 15 -43 16 -64z
m-649 -119 c-17 -29 -40 -62 -52 -73 l-21 -19 18 40 c25 54 78 129 82 116 2
-6 -10 -35 -27 -64z m1250 -46 c16 -25 29 -50 29 -55 0 -16 -76 73 -101 119
l-22 40 33 -30 c18 -16 46 -50 61 -74z m-1313 39 c-13 -24 -40 -61 -61 -84
l-38 -41 26 51 c28 54 84 128 91 121 3 -2 -6 -23 -18 -47z m121 18 c-27 -52
-119 -171 -119 -155 0 22 111 177 126 177 3 0 -1 -10 -7 -22z m75 -25 c-30
-63 -78 -137 -82 -125 -6 18 84 180 95 169 2 -3 -3 -23 -13 -44z m1045 -114
l24 -44 -33 30 c-30 28 -108 131 -124 165 -16 34 111 -111 133 -151z m-1000
93 c-4 -26 -12 -66 -18 -88 -13 -46 -40 -96 -40 -74 0 16 23 115 33 140 3 8
10 27 15 43 15 40 19 33 10 -21z m339 -57 l-4 -40 -12 28 c-7 16 -12 49 -12
75 l1 47 15 -35 c8 -19 13 -53 12 -75z m542 -40 l31 -60 -38 42 c-21 23 -53
71 -71 105 l-34 63 41 -45 c22 -25 54 -72 71 -105z m272 76 c33 -53 36 -72 7
-45 -28 25 -80 125 -54 104 10 -8 31 -35 47 -59z m-1046 -11 c-4 -32 -16 -83
-26 -112 l-20 -53 6 60 c5 57 33 165 42 165 3 0 2 -27 -2 -60z m149 8 c-4 -29
-11 -62 -16 -73 -7 -18 -8 -18 -10 5 -3 39 2 83 12 102 17 31 21 20 14 -34z
m144 -23 c1 -29 -2 -36 -9 -25 -5 8 -9 35 -9 60 0 34 2 40 9 25 5 -11 9 -38 9
-60z m360 -20 c22 -45 42 -105 36 -105 -10 0 -53 79 -74 135 -20 57 -20 59 -2
35 11 -14 29 -43 40 -65z m-599 -41 c-11 -43 -25 -84 -31 -93 -17 -27 -3 66
22 144 31 94 38 52 9 -51z m538 -63 c5 -30 6 -49 1 -44 -17 17 -47 111 -53
165 l-6 53 24 -61 c14 -33 29 -84 34 -113z m-199 49 l0 -35 -15 27 c-8 15 -17
49 -19 75 l-5 48 20 -40 c11 -22 19 -56 19 -75z m80 3 c30 -88 25 -109 -9 -38
-31 67 -53 172 -26 125 8 -14 24 -53 35 -87z m647 -181 c9 -23 14 -45 11 -48
-6 -7 -51 62 -59 91 -3 11 -9 29 -13 40 -15 40 44 -40 61 -83z m-1587 52 c-42
-104 -99 -192 -83 -128 10 42 83 168 92 160 1 -2 -2 -16 -9 -32z m1485 -36
c31 -68 52 -138 41 -138 -13 0 -85 176 -85 207 0 17 17 -10 44 -69z m-87 -42
c14 -27 31 -68 39 -90 l14 -41 -20 25 c-23 28 -84 152 -95 190 -6 23 -5 23 15
-5 11 -16 33 -52 47 -79z m-1237 69 c-31 -80 -120 -229 -120 -200 0 25 113
225 127 225 1 0 -2 -11 -7 -25z m-117 -57 c-17 -35 -40 -74 -52 -88 -20 -24
-20 -22 4 34 30 69 65 129 72 122 3 -3 -8 -33 -24 -68z m1603 37 c19 -46 19
-64 -1 -45 -15 16 -32 80 -21 80 4 0 14 -16 22 -35z m-1417 -52 c-22 -55 -76
-153 -85 -153 -5 0 40 118 58 150 47 85 61 87 27 3z m1041 -7 c15 -33 31 -77
35 -96 6 -32 6 -33 -8 -15 -21 29 -48 92 -67 158 -15 48 10 19 40 -47z m-951
-28 c-24 -70 -49 -122 -54 -116 -8 7 15 87 42 148 34 76 43 54 12 -32z m853
-8 c31 -69 40 -99 35 -112 -6 -16 -62 103 -72 152 -6 32 -6 33 8 15 8 -11 21
-36 29 -55z m-771 -16 c-20 -73 -59 -168 -60 -145 -2 39 63 231 74 219 3 -2
-3 -36 -14 -74z m683 -10 c21 -57 29 -97 17 -89 -15 9 -47 84 -55 130 -7 37
-6 39 8 19 8 -11 21 -38 30 -60z m-603 -1 c-11 -55 -40 -127 -47 -120 -6 6 13
92 33 146 21 54 28 39 14 -26z"/>
<path d="M7765 18099 c-93 -67 -182 -128 -197 -138 -60 -35 -15 -32 51 4 42
23 163 75 211 91 25 8 54 19 65 24 11 5 31 12 45 15 25 7 25 7 3 -9 -29 -21
-143 -73 -290 -132 -67 -27 -121 -50 -119 -51 2 -3 92 11 211 32 139 24 206
36 253 42 23 3 42 10 42 15 0 6 -13 34 -30 64 -16 30 -37 79 -45 109 -9 30
-19 55 -23 55 -4 0 -83 -55 -177 -121z"/>
<path d="M9035 18208 c-27 -90 -40 -121 -65 -166 -19 -35 -25 -54 -17 -56 7
-2 44 -9 82 -15 126 -21 179 -30 261 -46 158 -30 161 -17 9 40 -96 37 -275
121 -275 129 0 12 151 -45 294 -110 66 -30 121 -53 123 -51 6 6 -387 287 -401
287 -4 0 -8 -6 -11 -12z"/>
<path d="M6530 18087 c-210 -131 -389 -240 -464 -285 -56 -33 -109 -52 -335
-122 l-104 -32 -166 31 c-181 35 -232 45 -303 61 -58 13 -68 13 -68 0 0 -5 21
-56 46 -112 25 -57 54 -123 65 -148 103 -233 92 -214 135 -222 21 -3 70 -10
107 -13 l68 -7 45 -90 c25 -49 44 -96 42 -104 -2 -7 -114 -89 -251 -181 -136
-93 -319 -217 -406 -276 l-159 -109 -370 -5 -370 -6 -21 74 c-12 41 -25 88
-30 104 -5 17 -19 66 -31 110 -12 44 -25 84 -30 88 -6 7 -50 -6 -155 -46 -20
-8 -157 -13 -400 -17 l-370 -5 -3 -107 -3 -108 145 0 144 0 7 -84 c4 -46 5
-90 3 -98 -3 -7 -89 -37 -199 -68 l-194 -56 4 -109 c3 -108 8 -130 34 -157 24
-26 252 -283 265 -300 10 -12 11 -26 3 -55 -9 -35 -14 -58 -40 -175 -6 -24
-21 -92 -35 -153 -13 -60 -50 -225 -81 -365 -30 -140 -60 -274 -65 -297 -25
-109 -30 -133 -46 -203 -27 -127 -24 -122 -85 -136 -67 -15 -420 -86 -524
-105 -135 -24 -249 -49 -256 -56 -3 -5 -79 -121 -168 -259 l-161 -251 0 -149
0 -149 -125 -88 c-68 -49 -128 -94 -134 -101 -15 -18 -53 -215 -44 -229 4 -7
59 -77 122 -157 64 -80 125 -157 136 -171 36 -49 389 -494 406 -512 17 -19 35
-18 84 3 11 5 128 50 260 100 132 50 249 95 260 100 56 23 86 32 90 29 10 -11
14 -102 14 -363 l1 -279 128 7 c70 3 235 11 367 16 132 5 257 12 278 16 27 4
120 63 332 209 293 202 294 202 367 214 40 6 111 18 158 27 47 8 110 19 140
24 130 21 178 30 234 39 33 6 62 9 64 6 3 -2 7 -132 10 -287 5 -315 0 -293 85
-399 28 -36 93 -119 144 -185 87 -112 96 -121 145 -137 29 -9 141 -46 248 -81
107 -35 310 -101 450 -146 140 -45 293 -94 340 -110 47 -15 150 -49 230 -75
l145 -46 116 -122 116 -122 6 -215 c4 -118 7 -288 7 -377 0 -100 4 -164 10
-168 6 -4 147 -13 313 -21 166 -7 326 -16 355 -20 l52 -5 2 -137 c1 -75 2
-161 2 -190 1 -45 5 -57 27 -75 14 -12 88 -71 163 -130 81 -64 136 -115 136
-125 -1 -21 -10 -63 -48 -232 -17 -74 -37 -160 -43 -190 -6 -30 -27 -120 -47
-200 -40 -165 -42 -219 -18 -439 8 -75 20 -190 26 -256 6 -66 15 -153 21 -193
5 -40 9 -88 9 -106 0 -41 2 -41 161 -56 63 -6 155 -15 204 -20 50 -5 146 -14
215 -21 69 -6 130 -17 136 -23 7 -6 34 -78 62 -161 110 -324 144 -421 155
-433 8 -10 32 -11 101 -6 l91 6 61 -48 c33 -27 75 -60 92 -74 36 -28 39 -49
22 -154 -5 -33 -14 -97 -20 -141 -5 -44 -17 -127 -25 -185 -8 -59 -11 -108 -6
-113 5 -5 54 -11 109 -14 55 -3 105 -9 110 -12 16 -10 106 -273 106 -311 0
-81 -26 -316 -37 -326 -7 -6 -129 -77 -271 -158 -143 -82 -265 -153 -271 -160
-6 -6 -102 -119 -215 -251 -113 -132 -217 -253 -231 -270 -99 -112 -269 -315
-269 -321 0 -4 38 -4 85 0 l84 6 398 -300 c387 -292 437 -330 525 -403 24 -19
111 -90 193 -157 83 -67 154 -127 159 -134 6 -9 4 -26 -6 -47 -9 -19 -34 -73
-57 -121 l-40 -86 10 -74 c15 -107 14 -106 63 -52 120 134 147 174 192 281 24
59 53 126 63 148 10 22 21 49 25 61 4 12 46 56 94 99 95 85 251 228 347 316
33 31 77 71 98 90 35 30 65 75 129 189 11 19 77 131 146 248 140 239 104 200
400 430 108 84 121 97 130 135 5 23 15 62 21 87 18 75 31 314 39 720 l7 385
135 93 c74 51 148 103 164 115 l30 23 -23 37 c-18 29 -25 61 -32 149 -6 61
-17 148 -25 192 -37 209 -38 223 -26 349 7 67 12 137 12 155 0 18 10 53 22 78
22 48 21 77 -12 219 -11 44 -55 260 -100 485 -16 80 -43 210 -59 290 -20 91
-27 148 -21 154 5 5 28 10 52 10 l43 1 10 -47 c5 -25 13 -50 18 -54 4 -4 7
-23 8 -43 0 -29 2 -32 9 -16 5 11 9 33 9 48 1 15 10 45 21 67 11 22 20 57 20
80 0 22 4 40 8 40 5 0 16 16 25 35 20 41 54 48 59 12 2 -13 11 -23 24 -25 17
-2 24 -15 33 -60 7 -31 17 -75 22 -97 9 -39 62 -303 81 -400 20 -103 26 -133
53 -260 63 -298 62 -287 34 -317 -18 -19 -45 -30 -109 -43 -47 -9 -96 -21
-110 -24 l-25 -8 -3 -488 c-1 -269 1 -492 5 -496 5 -4 89 49 188 118 183 127
236 156 495 268 47 21 109 48 138 61 29 13 54 24 57 24 2 0 38 16 79 35 42 19
79 35 83 35 4 0 41 34 83 75 l75 75 310 -15 c171 -8 367 -17 436 -21 l126 -7
47 90 48 90 86 38 c48 21 119 53 158 71 l72 32 11 54 c7 29 17 73 22 98 45
211 31 183 184 376 77 98 186 235 241 304 56 70 104 136 108 146 7 23 24 133
36 229 5 39 17 114 26 169 l18 98 55 47 c133 112 130 108 151 206 10 50 26
126 35 170 10 44 21 98 25 120 4 22 19 96 34 165 l27 125 -1 554 -1 553 97
152 c54 83 112 173 130 199 l32 48 48 -100 c27 -56 51 -101 55 -101 6 0 50 61
74 102 5 10 97 147 203 305 187 280 192 288 192 338 0 60 1 60 154 176 55 41
131 99 171 129 69 53 247 216 446 408 95 92 95 92 108 160 6 37 16 85 21 107
5 22 13 67 19 100 6 33 18 95 26 137 11 57 15 147 15 345 0 234 -2 276 -19
333 -105 356 -111 373 -154 383 -38 8 -410 116 -635 183 l-82 25 -496 424
c-272 234 -504 425 -513 425 -22 0 -431 -69 -450 -75 -7 -3 -120 30 -250 73
-446 149 -578 192 -589 192 -6 0 -140 -63 -298 -141 -157 -77 -289 -138 -292
-134 -5 5 11 150 28 250 14 83 21 179 13 191 -17 23 -510 398 -542 411 -19 8
-57 19 -85 24 -28 5 -69 13 -91 18 -22 5 -62 14 -90 20 -27 5 -81 17 -120 26
-180 40 -272 58 -297 59 -21 1 -60 -25 -158 -103 l-130 -105 0 -113 c0 -103
-2 -113 -18 -113 -24 0 -39 32 -47 98 -4 28 -10 52 -13 52 -3 0 -22 -11 -41
-24 -32 -21 -51 -25 -178 -31 -84 -4 -143 -3 -147 3 -6 9 43 82 234 347 55 76
100 145 100 151 0 13 -22 17 -150 29 -36 4 -96 10 -135 15 -38 4 -140 16 -225
25 -85 9 -158 20 -162 23 -4 4 -14 43 -22 87 -27 137 -37 188 -47 232 -5 23
-9 50 -9 60 0 10 52 93 115 183 63 91 115 170 115 175 0 6 -21 19 -48 29 -26
11 -69 29 -97 42 -27 12 -73 32 -102 44 -28 12 -53 29 -56 38 -7 23 -69 197
-112 317 -20 55 -41 111 -45 125 -5 14 -25 70 -45 125 -20 55 -48 134 -62 175
-31 92 -42 115 -53 104 -8 -8 -71 -119 -160 -279 -18 -33 -53 -96 -78 -140
-24 -44 -61 -110 -81 -148 -66 -120 -64 -119 -166 -128 -50 -4 -137 -13 -195
-18 -58 -6 -159 -15 -225 -21 -66 -6 -127 -13 -135 -15 -8 -2 -78 25 -155 59
-115 52 -144 62 -170 56 -16 -5 -82 -20 -145 -34 -63 -15 -133 -31 -155 -36
-22 -5 -73 -17 -113 -26 -40 -9 -75 -20 -77 -25 -3 -4 11 -42 30 -84 19 -43
35 -81 35 -86 0 -12 -70 -11 -200 1 -58 6 -141 14 -185 18 -89 8 -89 8 -365
-73 -69 -20 -147 -42 -175 -50 -27 -7 -113 -32 -189 -54 -76 -23 -145 -41
-152 -41 -9 0 -446 545 -477 597 -7 11 131 371 174 455 19 36 8 54 -71 118
-119 95 -114 84 -89 168 12 39 19 77 16 86 -4 11 -155 69 -170 66 -1 -1 -76
-47 -167 -103z m-155 -1711 c36 -27 69 -55 73 -64 6 -16 -18 -1238 -39 -1977
-7 -262 -14 -373 -22 -381 -7 -7 -59 -37 -117 -67 l-105 -56 -177 6 -177 6
-107 79 -107 80 7 136 c4 76 11 364 16 642 5 278 14 737 20 1020 l10 515 26
20 c15 11 50 37 78 58 l51 39 251 -4 252 -5 67 -47z m1405 -277 c90 -37 147
-86 156 -135 3 -17 1 -166 -6 -330 -6 -165 -14 -393 -17 -509 -5 -176 -9 -219
-26 -264 -25 -68 -95 -141 -155 -160 -24 -8 -45 -17 -47 -21 -2 -3 43 -93 99
-198 117 -215 104 -168 141 -537 9 -82 20 -186 25 -230 5 -44 10 -102 12 -130
l2 -50 -59 -8 c-33 -4 -94 -6 -135 -5 l-75 3 -7 90 c-3 50 -14 176 -23 280 -9
105 -19 224 -22 265 -4 59 -14 93 -46 160 -22 47 -60 128 -84 180 -24 52 -51
110 -60 128 -14 30 -19 32 -64 32 l-49 0 -2 -562 -3 -563 -107 -3 -108 -3 0
1220 0 1221 -40 20 c-39 20 -40 21 -40 76 l0 55 353 -4 c278 -3 359 -7 387
-18z m1504 -376 c3 -21 6 -68 6 -104 l0 -66 -122 -12 c-68 -7 -125 -15 -127
-17 -4 -4 8 -191 30 -489 5 -66 13 -183 19 -260 10 -145 19 -268 45 -610 28
-361 52 -681 61 -832 8 -121 25 -109 -172 -118 l-131 -6 -6 98 c-4 54 -14 186
-22 293 -9 107 -20 258 -26 335 -5 77 -14 196 -19 265 -5 69 -14 188 -19 265
-30 415 -50 674 -61 795 -6 58 -10 132 -10 165 0 112 3 109 -158 124 -51 5
-95 11 -99 14 -3 4 1 37 9 74 l14 68 94 7 c295 20 546 40 555 43 6 2 38 4 71
4 l61 1 7 -37z m3310 -70 c-7 -32 -82 -260 -113 -344 -69 -189 -204 -499 -321
-733 l-45 -90 -126 -77 c-69 -42 -179 -104 -245 -138 l-119 -62 80 77 c44 42
136 123 205 179 122 101 126 105 154 176 29 72 46 112 109 254 54 121 223 455
289 570 63 108 130 215 136 215 1 0 -1 -12 -4 -27z m-2229 -163 c394 -33 502
-44 509 -50 8 -8 -15 -265 -24 -274 -9 -9 -163 1 -387 26 -56 6 -108 8 -115 5
-14 -5 -17 -28 -49 -402 -6 -66 -14 -159 -20 -206 -5 -47 -9 -95 -9 -107 0
-25 5 -26 205 -42 192 -15 185 -13 185 -58 0 -20 -3 -60 -6 -89 -8 -61 3 -57
-216 -73 -84 -7 -158 -16 -164 -21 -7 -5 -15 -49 -18 -97 -4 -48 -11 -130 -17
-182 -10 -100 -23 -255 -39 -455 -5 -66 -13 -133 -16 -149 l-6 -29 218 7 c121
3 228 9 239 11 40 10 44 -4 51 -193 l7 -182 -28 0 c-16 0 -67 4 -114 10 -47 5
-165 16 -261 25 -96 8 -224 20 -285 25 -60 6 -123 11 -140 13 -28 2 -30 4 -27
42 2 36 36 324 61 525 6 41 15 116 21 165 6 50 15 124 20 165 6 41 21 170 35
285 14 116 28 228 31 250 3 22 9 76 14 120 5 44 14 116 19 160 6 44 17 136 26
205 9 69 20 161 26 205 14 117 28 232 35 300 9 91 6 89 72 81 31 -4 107 -11
167 -16z m-5471 -72 c4 -40 11 -118 16 -173 5 -55 16 -174 25 -265 21 -221 34
-354 45 -480 17 -201 30 -336 45 -495 18 -184 31 -325 45 -477 6 -60 15 -159
20 -220 6 -62 15 -167 21 -233 5 -66 12 -128 15 -137 4 -13 -2 -21 -19 -27
-24 -9 -165 -25 -328 -38 l-76 -6 -11 44 c-7 24 -23 87 -38 139 -14 52 -38
145 -54 205 -17 61 -41 153 -56 205 -14 52 -30 111 -34 130 -4 19 -19 76 -33
125 -13 50 -37 135 -51 190 -15 55 -36 134 -48 175 -11 41 -29 108 -39 148
-10 39 -28 105 -39 145 -10 39 -35 131 -54 202 -19 72 -46 173 -61 225 -48
179 -87 325 -92 348 -3 12 -10 22 -15 22 -5 0 -7 -8 -4 -17 5 -17 13 -88 36
-318 5 -49 16 -151 25 -225 15 -133 27 -246 45 -425 13 -130 40 -374 71 -655
6 -52 14 -135 19 -185 5 -49 14 -135 20 -190 5 -55 14 -140 20 -190 17 -153
24 -139 -82 -153 -51 -7 -98 -12 -104 -12 -16 0 -23 34 -34 154 -5 55 -18 182
-29 281 -28 247 -54 488 -71 650 -13 131 -38 359 -49 465 -6 47 -14 128 -20
180 -5 52 -15 140 -21 195 -42 393 -59 557 -62 600 l-3 49 45 8 c42 7 151 19
312 35 l67 6 6 -29 c3 -16 10 -45 15 -64 39 -153 74 -291 81 -320 4 -19 10
-44 13 -55 3 -11 75 -303 161 -650 85 -346 160 -646 165 -665 5 -19 26 -100
45 -180 20 -80 40 -161 45 -180 5 -19 17 -66 27 -105 l18 -70 3 50 c2 27 -1
86 -7 129 -6 44 -11 108 -11 142 0 35 -4 107 -10 161 -5 54 -14 170 -20 258
-6 88 -18 246 -25 350 -8 105 -19 258 -25 340 -6 83 -15 204 -20 270 -5 66
-14 194 -20 285 -6 91 -15 210 -20 265 -5 54 -7 102 -4 105 8 8 123 27 170 29
l41 1 7 -72z m8340 -980 c27 -244 34 -316 46 -428 6 -58 15 -145 20 -195 6
-49 21 -198 35 -330 14 -132 29 -278 35 -325 5 -47 11 -107 12 -135 3 -49 3
-49 -32 -56 -51 -11 -223 -29 -228 -24 -2 2 -12 34 -22 72 -11 37 -28 102 -40
143 -20 69 -38 136 -60 215 -8 30 -81 290 -100 355 -19 66 -80 285 -91 325 -6
22 -15 51 -19 65 -4 14 -15 54 -25 90 -9 36 -21 75 -26 88 -5 13 -9 33 -9 44
0 13 -4 18 -9 13 -4 -6 2 -93 15 -200 13 -104 28 -226 34 -270 5 -44 14 -123
20 -175 6 -52 15 -129 20 -170 5 -41 17 -133 25 -205 8 -71 20 -161 25 -200 5
-38 12 -104 16 -146 l6 -77 -60 -7 c-34 -4 -65 -4 -71 -1 -5 3 -12 37 -16 74
-3 37 -10 99 -15 137 -5 39 -14 111 -20 160 -19 170 -60 510 -70 585 -5 41
-14 116 -19 165 -21 184 -34 292 -46 382 -6 51 -9 97 -6 102 4 6 49 15 101 21
52 6 109 13 127 15 36 6 34 12 82 -175 16 -63 39 -149 50 -190 11 -41 36 -136
55 -210 19 -74 42 -162 51 -195 22 -80 123 -473 144 -557 9 -36 19 -70 24 -74
10 -10 9 63 -3 165 -5 47 -16 169 -25 271 -22 268 -34 410 -45 535 -5 61 -14
169 -20 240 -6 72 -12 151 -15 177 -4 52 -3 53 91 57 l41 1 17 -152z m986 107
l47 -34 7 -568 c3 -312 9 -645 13 -739 l6 -171 -74 -44 c-74 -44 -74 -44 -184
-47 l-110 -4 -71 47 -71 47 -7 517 c-3 284 -9 613 -12 731 l-6 215 58 43 58
42 149 0 149 0 48 -35z m922 -157 c23 -7 57 -28 76 -45 l35 -33 -7 -209 c-4
-115 -11 -272 -15 -349 -10 -176 -18 -194 -126 -257 -16 -10 -15 -14 7 -55
110 -200 104 -182 122 -355 9 -88 21 -191 26 -230 5 -40 5 -74 0 -79 -5 -5
-44 -9 -87 -10 l-78 -1 -6 70 c-3 39 -12 140 -19 225 l-13 154 -53 116 c-71
151 -66 145 -103 148 l-31 3 0 -355 0 -356 -70 0 -70 0 0 768 0 769 -25 11
c-20 9 -25 19 -25 47 l0 35 210 0 c139 0 224 -4 252 -12z m-3229 -353 l98 -59
-6 -51 c-4 -27 -15 -99 -25 -160 -10 -60 -30 -187 -46 -280 l-27 -171 53 -74
c29 -41 72 -100 94 -130 22 -30 41 -56 41 -57 1 -2 81 -9 178 -16 98 -8 180
-16 182 -19 5 -5 -122 -185 -263 -373 -24 -33 -47 -66 -49 -73 -3 -7 26 -47
63 -90 38 -42 81 -90 95 -107 321 -369 339 -390 339 -402 0 -5 -8 -18 -18 -29
-9 -10 -31 -35 -47 -55 -17 -20 -72 -85 -123 -144 -66 -75 -91 -112 -87 -123
4 -10 11 -39 16 -67 5 -27 13 -68 18 -90 19 -88 63 -294 77 -365 8 -41 17 -85
19 -97 4 -18 -1 -25 -28 -37 l-33 -13 7 -84 c11 -124 29 -418 29 -465 0 -26
-13 -67 -35 -114 -42 -84 -42 -104 0 -108 17 -1 49 -7 72 -12 42 -10 44 -9
215 91 95 56 193 113 218 127 25 13 75 43 113 65 79 46 53 59 233 -110 l130
-121 95 58 c52 33 99 59 104 60 6 0 21 -10 35 -23 24 -21 377 -314 444 -367
17 -13 64 -52 104 -86 72 -61 85 -67 207 -92 49 -10 250 -54 330 -72 22 -5 75
-16 118 -25 42 -10 79 -20 81 -24 5 -8 4 -9 -247 -290 -106 -117 -194 -220
-196 -229 -1 -8 14 -75 35 -149 l39 -134 73 -56 c39 -30 72 -57 72 -60 0 -4
-101 49 -151 80 -18 11 -26 28 -95 206 -52 136 -53 127 8 201 160 196 287 363
283 371 -4 5 -17 9 -31 9 -14 0 -44 4 -67 9 -23 5 -69 14 -102 20 -83 15 -209
39 -276 52 -62 12 -79 25 -472 346 -103 84 -194 153 -203 153 -9 0 -59 -25
-111 -56 l-94 -57 -52 49 c-28 27 -58 56 -67 64 -9 8 -52 50 -96 93 l-81 78
-39 -22 c-36 -20 -70 -38 -274 -148 -41 -22 -108 -57 -147 -78 l-72 -37 -68
13 c-160 30 -232 52 -227 66 6 14 -8 20 -73 30 l-43 7 0 -176 c0 -159 -2 -177
-17 -183 -10 -4 -51 -26 -91 -50 -41 -24 -78 -43 -83 -43 -12 0 -12 -46 3
-422 l12 -316 -95 -103 c-51 -57 -105 -116 -119 -130 -24 -26 -29 -27 -210
-38 -102 -6 -296 -11 -432 -11 l-246 0 -46 -45 c-44 -43 -57 -65 -36 -65 5 0
20 -18 32 -40 13 -21 33 -42 45 -45 13 -3 23 -10 23 -15 0 -6 -53 -10 -134
-10 -108 0 -136 -3 -146 -15 -7 -9 -31 -30 -54 -48 l-41 -32 28 36 c15 20 27
41 27 47 0 6 8 17 18 24 10 7 69 72 131 143 l113 130 56 7 c75 10 218 24 427
43 263 23 283 26 261 39 -10 6 -47 37 -81 69 -74 69 -92 111 -80 189 4 29 8
79 9 110 1 32 7 63 14 70 7 7 12 21 12 32 0 16 -3 17 -12 8 -7 -7 -22 -12 -34
-12 -13 0 -26 -5 -30 -11 -4 -7 -26 -9 -63 -5 -125 13 -134 16 -184 65 -54 51
-53 41 -28 201 16 103 59 365 81 493 12 70 25 149 41 247 32 206 31 203 78
227 45 23 49 23 186 -1 105 -18 108 -16 80 51 -24 61 -21 98 10 133 20 22 7
33 -34 28 -26 -2 -48 15 -177 140 -81 78 -150 142 -154 142 -9 0 -191 -75
-234 -96 -54 -26 -63 -20 -106 68 -22 45 -42 83 -44 85 -1 2 -41 -28 -87 -67
l-84 -70 -7 28 c-7 26 -20 215 -38 552 -5 91 -12 189 -16 217 -6 50 -1 65 86
283 51 127 94 229 96 227 2 -2 -23 -86 -56 -188 -33 -101 -65 -201 -71 -221
-12 -37 -10 -79 11 -258 6 -47 15 -123 20 -170 5 -47 14 -130 20 -185 5 -54
14 -103 18 -106 4 -4 34 17 67 47 33 29 64 52 69 51 4 -2 29 -44 55 -95 46
-91 56 -101 89 -82 9 5 49 24 87 41 39 17 83 37 99 45 16 8 36 14 45 14 9 0
81 -61 161 -135 155 -144 160 -146 239 -125 20 5 86 21 146 35 61 14 148 35
195 46 47 11 148 35 225 53 l140 33 -1 29 c-1 27 -13 88 -33 179 -10 44 -57
271 -72 348 -11 55 -11 55 62 138 149 169 179 205 179 214 0 6 -24 37 -52 70
-29 34 -84 99 -123 145 -38 47 -123 147 -187 223 -65 76 -118 143 -118 148 0
5 26 43 58 83 177 229 213 278 209 290 -4 9 -37 15 -101 20 -52 3 -101 9 -108
11 -22 9 -218 320 -218 347 0 13 9 67 20 119 12 52 26 117 31 144 6 28 15 66
19 85 31 141 52 240 57 266 5 31 2 34 -146 139 -83 59 -151 109 -151 111 0 4
51 -26 243 -141z m3933 -464 c16 -5 65 -17 109 -26 130 -29 180 -51 223 -100
65 -74 78 -160 42 -276 -20 -63 -26 -84 -49 -164 -6 -22 -29 -103 -52 -180
-22 -77 -48 -169 -58 -205 -10 -36 -53 -185 -96 -333 l-78 -267 -80 -46 c-64
-37 -86 -45 -116 -42 -39 5 -263 57 -269 63 -2 2 8 54 23 117 15 62 36 151 46
198 22 95 29 125 59 255 20 87 41 177 60 260 5 22 19 81 30 130 28 121 49 212
60 260 5 22 18 78 29 125 11 47 28 120 37 163 19 82 23 86 80 68z m-8021 -626
c87 -186 75 -172 270 -318 l180 -134 385 -12 c816 -24 1539 -66 1910 -111 41
-5 109 -13 150 -17 l75 -8 -70 -6 c-115 -11 -1331 -10 -1585 1 -129 5 -385 17
-568 27 l-332 16 -148 127 c-253 218 -237 200 -281 325 -67 191 -99 289 -106
322 -7 35 -28 58 -24 27 1 -11 0 -30 -4 -44 -3 -14 -10 -52 -17 -85 -18 -97
-40 -187 -88 -375 -9 -36 -21 -71 -26 -78 -7 -11 -62 -13 -300 -8 -454 10
-678 28 -1084 87 -4 1 9 5 28 10 79 19 381 32 700 29 184 -2 391 -4 459 -4
l124 -1 22 60 c26 72 29 80 67 175 31 77 62 148 101 233 l22 47 44 -87 c25
-49 68 -137 96 -198z m-1582 -575 c56 -195 78 -276 113 -420 15 -63 31 -119
35 -123 3 -5 154 -4 335 2 181 5 331 8 333 5 5 -4 -14 -112 -35 -204 -26 -113
-28 -137 -11 -172 58 -123 78 -172 74 -182 -10 -26 -318 -426 -370 -481 l-29
-30 17 34 c33 67 168 307 223 396 l54 90 -51 100 c-51 99 -51 100 -41 155 5
30 13 82 17 114 l6 59 -308 -4 -309 -4 -22 120 c-39 202 -49 258 -74 425 -33
218 -50 348 -49 380 1 31 3 27 24 -35 13 -38 43 -140 68 -225z m8285 202 c4
-74 -5 -82 -94 -82 l-74 0 -2 -722 -3 -723 -95 0 -95 0 -3 732 -2 731 -53 12
c-28 6 -62 13 -75 16 -20 4 -22 8 -16 42 4 20 9 40 11 45 2 4 115 6 251 5
l247 -3 3 -53z m-1260 -94 l3 -88 -150 0 c-82 0 -156 -3 -165 -6 -14 -5 -16
-36 -16 -235 l0 -228 123 -3 122 -3 3 -56 3 -56 -63 -12 c-35 -7 -88 -18 -118
-24 l-55 -12 0 -285 0 -285 25 1 c29 2 177 20 237 30 41 6 42 6 47 -27 14
-102 22 -185 18 -196 -3 -10 -66 -13 -268 -13 -204 0 -264 3 -265 13 -3 41 3
337 11 537 6 129 14 388 20 575 5 187 13 368 16 403 l6 62 232 -2 231 -3 3
-87z m606 -208 c8 -61 5 -66 -36 -73 -85 -12 -264 -50 -272 -58 -5 -5 -5 -38
2 -81 6 -40 16 -111 22 -158 6 -47 17 -123 23 -170 l13 -85 104 -22 c58 -12
117 -22 131 -22 56 -2 59 -9 74 -241 37 -542 37 -549 14 -589 -35 -63 -70 -79
-199 -91 -63 -5 -145 -10 -181 -10 -76 0 -79 3 -79 96 0 62 -6 60 173 70 101
5 130 10 135 22 3 8 0 49 -7 91 -6 42 -23 148 -37 236 -37 239 -43 263 -62
269 -9 2 -60 12 -112 21 -138 24 -140 25 -140 82 0 27 -4 102 -10 168 -31 375
-34 474 -17 510 27 56 49 64 203 74 76 4 164 9 195 10 l56 1 7 -50z m-6056
-220 c2 -36 1 -106 -3 -156 l-7 -92 -56 -5 c-32 -2 -59 -3 -61 -1 -2 2 -11 48
-19 104 l-16 100 -52 0 c-45 0 -56 -4 -74 -27 -18 -23 -21 -36 -16 -73 7 -50
32 -276 46 -415 5 -49 14 -137 20 -195 6 -58 14 -142 18 -187 4 -45 10 -84 12
-86 3 -3 32 -2 65 1 l60 7 13 65 c7 35 16 68 20 71 4 4 25 10 48 14 29 4 44 2
52 -8 7 -8 15 -70 19 -150 l6 -135 -74 -7 c-139 -12 -272 -11 -299 4 -60 34
-62 41 -81 346 -41 676 -46 774 -41 801 5 28 43 57 87 69 31 9 234 23 295 21
l35 -1 3 -65z m780 -51 l3 -67 -53 -5 c-29 -4 -83 -9 -120 -13 l-68 -6 0 -52
c0 -28 5 -107 12 -175 l12 -123 93 6 94 7 -3 -47 -3 -48 -84 -20 -84 -20 6
-115 c12 -224 20 -312 28 -317 5 -2 56 5 114 17 58 12 107 20 110 17 3 -3 11
-34 17 -69 19 -114 35 -102 -147 -116 -88 -7 -180 -12 -205 -11 l-45 3 -11
350 c-28 840 -28 844 -13 849 21 7 247 23 299 22 l45 -1 3 -66z m6272 -190
c63 -6 135 -14 160 -18 l45 -7 -3 -84 c-2 -47 -7 -88 -10 -92 -4 -4 -42 -3
-84 3 -43 5 -113 13 -155 18 -43 5 -79 8 -80 7 -2 -2 -10 -63 -18 -137 -8 -74
-20 -174 -26 -222 -7 -55 -7 -93 -2 -98 5 -5 58 -14 118 -19 59 -5 110 -12
113 -15 3 -3 5 -27 3 -53 -3 -65 -16 -72 -127 -72 -110 0 -120 -7 -128 -82
-21 -207 -30 -296 -40 -386 -7 -56 -10 -105 -7 -107 2 -3 71 -5 152 -5 172 0
159 11 159 -139 l0 -93 -82 6 c-46 4 -119 11 -163 16 -44 5 -128 15 -187 21
-122 14 -116 7 -99 110 5 30 14 90 20 134 17 121 59 430 72 515 6 41 14 104
19 140 15 108 29 208 51 355 11 77 24 178 30 224 5 46 12 88 16 94 3 6 32 7
72 3 36 -3 118 -11 181 -17z m-5644 -55 l41 -5 12 -282 c27 -666 35 -797 43
-797 4 0 8 19 8 43 0 24 4 68 10 98 5 30 16 108 25 174 9 66 20 152 26 190 15
110 28 203 39 290 6 44 16 121 23 170 l13 90 49 -3 c27 -1 50 -4 52 -6 4 -3
-9 -124 -32 -316 -8 -69 -20 -168 -25 -220 -12 -111 -25 -231 -39 -350 -5 -47
-15 -130 -21 -185 -6 -55 -13 -113 -16 -129 l-6 -29 -96 6 c-60 4 -99 11 -104
19 -4 7 -8 44 -8 82 0 37 -4 132 -10 210 -13 201 -29 468 -36 636 -8 176 -19
162 -40 -50 -8 -80 -19 -190 -25 -245 -5 -55 -14 -143 -19 -195 -37 -380 -42
-421 -52 -420 -5 0 -29 0 -54 0 l-46 0 6 58 c3 31 13 125 21 207 21 210 32
322 45 455 6 63 15 153 20 200 6 47 15 135 21 195 6 61 13 113 15 117 4 6 69
3 160 -8z m914 -318 l145 -32 3 -31 c2 -18 -1 -41 -7 -51 -9 -17 -16 -18 -67
-10 -31 5 -58 7 -61 5 -4 -4 -26 -102 -43 -192 -6 -27 -14 -68 -19 -90 -5 -22
-14 -62 -20 -90 -5 -27 -22 -106 -37 -175 -14 -69 -34 -163 -44 -210 -52 -251
-62 -296 -69 -303 -8 -8 -121 11 -135 24 -5 4 -1 43 9 91 9 46 21 103 26 128
5 25 13 63 18 85 24 106 63 285 71 330 6 28 14 68 19 90 37 171 63 296 68 327
6 37 5 38 -43 59 -62 27 -59 23 -44 59 15 35 -3 36 230 -14z m514 -601 c189
-24 244 -62 225 -155 -8 -45 -42 -256 -60 -379 -13 -90 -34 -128 -83 -153 -22
-11 -42 -22 -44 -23 -1 -1 13 -40 33 -86 l35 -83 0 -193 c0 -218 8 -199 -85
-186 l-48 6 7 166 7 167 -32 99 c-17 55 -37 106 -44 113 -21 23 -43 3 -49 -46
-3 -26 -10 -92 -16 -147 -6 -55 -16 -127 -21 -161 -5 -33 -9 -79 -9 -102 0
-55 -19 -72 -66 -62 -19 5 -38 11 -41 14 -6 5 3 92 38 386 19 168 29 254 39
333 5 45 16 138 25 207 29 230 29 224 11 239 -9 7 -16 24 -16 37 0 21 5 24 37
24 20 0 91 -7 157 -15z m-2428 -246 c40 -24 41 -29 48 -184 6 -113 11 -200 36
-575 5 -85 13 -207 17 -271 l6 -117 -54 -35 c-48 -31 -64 -36 -139 -42 -84 -6
-86 -6 -135 27 -59 39 -57 32 -75 323 -6 99 -15 241 -20 315 -5 74 -14 218
-20 319 l-11 185 31 30 c26 27 40 32 98 37 141 12 183 10 218 -12z m1095 -584
c171 -10 169 -9 169 -56 0 -23 -5 -42 -12 -44 -7 -3 -62 -8 -123 -12 l-110 -8
-8 -105 c-4 -58 -6 -143 -5 -190 l3 -85 102 -35 c57 -19 105 -40 107 -46 3 -7
-1 -76 -9 -155 -7 -79 -19 -210 -26 -291 -13 -160 -18 -171 -80 -204 -27 -13
-46 -14 -165 -3 l-134 12 0 44 c0 72 9 80 77 72 32 -4 84 -8 116 -8 l57 -1 -1
133 c-1 72 -4 177 -8 231 l-6 99 -85 29 c-47 16 -88 33 -92 37 -4 4 -3 63 2
131 6 69 15 184 20 257 5 73 15 144 22 158 12 28 55 57 74 51 6 -3 58 -7 115
-11z m613 -265 c88 -22 161 -42 164 -45 3 -2 1 -24 -4 -47 -10 -47 -16 -49
-95 -33 -35 7 -37 6 -47 -26 -6 -19 -65 -254 -132 -524 -67 -269 -126 -494
-130 -499 -12 -12 -131 15 -137 31 -3 6 54 247 126 535 72 288 131 528 131
534 0 6 -22 21 -50 33 -27 12 -50 26 -50 32 0 22 32 57 48 53 9 -3 89 -22 176
-44z m-1096 -51 l3 -67 -115 -3 c-63 -2 -120 -9 -126 -15 -7 -7 -8 -61 -3
-175 l8 -164 90 -5 90 -5 3 -42 3 -41 -58 -12 c-32 -6 -71 -15 -88 -19 l-30
-7 -2 -204 c-2 -113 1 -211 5 -217 8 -13 71 -8 193 13 l37 6 12 -86 c7 -47 11
-88 9 -90 -2 -2 -95 -7 -206 -10 l-203 -7 0 133 c0 73 5 344 10 602 7 364 12
471 22 478 7 4 87 7 178 5 l165 -2 3 -66z m5479 -246 c3 -16 7 -46 7 -68 l1
-39 -50 -9 c-27 -4 -74 -11 -102 -16 -29 -4 -56 -11 -60 -15 -7 -6 17 -169 40
-268 10 -47 11 -48 49 -48 22 0 59 5 84 11 25 6 47 10 49 7 2 -2 7 -22 10 -44
l7 -40 -69 -23 c-102 -36 -97 -25 -73 -151 4 -25 16 -90 25 -145 24 -142 26
-146 67 -133 41 14 65 22 101 37 15 6 41 11 57 11 27 0 30 -3 30 -31 0 -17 4
-38 9 -47 4 -9 11 -31 14 -49 7 -35 12 -33 -155 -62 -29 -5 -80 -15 -114 -21
-95 -19 -107 -14 -116 45 -13 81 -29 195 -38 265 -4 36 -17 130 -29 210 -29
206 -41 285 -51 365 -5 39 -15 102 -21 142 -6 40 -8 77 -4 83 3 5 18 10 33 11
15 0 79 11 142 24 151 30 148 30 157 -2z m-3847 -230 c36 -14 75 -28 87 -30
43 -10 47 -28 23 -88 -14 -35 -28 -55 -39 -55 -9 0 -58 16 -109 36 -51 20 -98
34 -105 31 -7 -2 -18 -22 -25 -43 -7 -22 -17 -48 -22 -59 -25 -60 -82 -216
-79 -219 2 -2 38 -16 79 -31 41 -15 79 -31 84 -35 4 -5 3 -24 -4 -44 -10 -31
-16 -36 -43 -36 -18 1 -59 7 -92 15 -32 8 -60 13 -61 12 -8 -8 -54 -134 -54
-147 0 -9 -4 -20 -9 -25 -17 -19 -92 -228 -84 -236 4 -4 52 -17 106 -29 54
-13 101 -29 104 -35 5 -15 -25 -146 -37 -158 -6 -7 -111 27 -195 63 -11 5 -56
22 -100 38 -44 17 -81 35 -83 40 -2 6 11 44 28 84 17 40 35 82 40 93 4 11 16
37 25 59 9 21 21 50 25 65 7 22 71 173 100 236 5 11 21 49 35 85 15 36 32 79
40 95 7 17 34 82 60 145 26 63 56 134 66 157 11 24 24 54 29 67 l9 25 68 -26
c37 -14 97 -36 133 -50z m3394 -45 c3 -7 7 -27 10 -45 5 -31 4 -33 -32 -39
-75 -14 -81 -19 -72 -61 5 -21 13 -63 19 -93 6 -30 15 -77 20 -105 14 -68 58
-306 71 -380 6 -33 15 -82 21 -110 40 -212 49 -259 49 -274 0 -13 -15 -20 -60
-29 -33 -7 -65 -10 -70 -7 -5 3 -12 22 -15 43 -3 20 -10 55 -15 77 -5 22 -16
81 -25 130 -9 50 -20 108 -25 130 -5 22 -14 69 -20 105 -10 61 -19 108 -40
220 -5 25 -16 86 -25 135 -9 50 -21 111 -27 138 l-10 47 -54 0 -54 0 0 34 c0
40 -4 37 125 61 50 9 106 20 125 25 54 12 100 11 104 -2z m-552 -222 c3 -28
-2 -32 -94 -79 -54 -27 -98 -54 -97 -60 0 -7 28 -79 62 -162 l62 -150 109 0
109 -1 12 -29 c7 -17 17 -46 23 -65 6 -19 26 -80 45 -135 112 -327 112 -331
59 -384 -33 -33 -252 -108 -263 -90 -13 22 -32 89 -26 95 3 3 47 21 99 39 83
29 93 35 92 56 -1 13 -36 104 -79 202 l-79 178 -96 -6 -97 -7 -10 28 c-37 97
-57 156 -102 298 -53 161 -57 200 -26 226 8 6 71 31 142 54 138 46 149 45 155
-8z m-508 -225 c27 -82 30 -79 -99 -116 -33 -10 -70 -21 -82 -26 l-21 -8 18
-53 c10 -29 33 -99 50 -155 18 -57 36 -103 40 -103 4 0 36 9 70 20 86 28 98
26 108 -12 5 -18 7 -36 5 -41 -3 -4 -30 -21 -61 -37 -31 -16 -63 -33 -71 -38
-11 -8 -4 -40 38 -173 62 -197 71 -219 82 -219 5 0 47 18 94 40 47 22 89 40
93 40 13 0 74 -142 65 -151 -7 -6 -85 -32 -270 -89 -40 -12 -78 -20 -85 -17
-7 2 -21 36 -31 73 -11 38 -22 80 -27 94 -4 14 -13 43 -19 65 -6 22 -22 81
-36 130 -69 245 -145 515 -167 595 -11 41 -21 88 -22 104 -1 27 4 31 39 42 22
7 90 28 150 48 61 19 113 35 116 35 4 1 14 -21 23 -48z m-1194 -127 c14 -36
-4 -67 -33 -58 -39 12 -48 42 -21 68 23 23 43 20 54 -10z m666 -19 c84 -49 80
-33 134 -635 6 -69 17 -183 24 -254 l12 -129 -42 -56 -43 -57 -78 -12 c-152
-25 -142 -25 -147 0 -3 13 -10 59 -16 103 -6 44 -15 107 -20 140 -5 33 -16
107 -25 165 -9 58 -20 133 -25 168 -22 141 -30 191 -41 272 -6 47 -17 118 -25
159 -25 130 -21 140 54 142 20 1 48 5 62 9 55 18 132 11 176 -15z m-1711 -373
c7 -53 9 -48 -94 -172 -175 -210 -323 -375 -561 -626 -76 -79 -109 -123 -118
-151 -22 -73 -22 -73 74 -73 136 0 503 -33 874 -80 41 -5 96 -12 121 -15 l46
-6 43 -152 c35 -124 140 -533 140 -543 0 -2 60 -44 133 -95 118 -83 205 -149
194 -149 -13 0 -219 93 -342 155 l-60 30 -65 195 c-36 107 -80 245 -98 305
-19 61 -37 117 -41 125 -8 15 -23 18 -161 39 -119 18 -201 32 -255 41 -73 14
-364 71 -405 80 -19 4 -57 13 -85 19 -27 6 -68 15 -90 20 -35 9 -43 7 -65 -13
-14 -13 -103 -83 -198 -155 -106 -82 -174 -141 -177 -154 -4 -18 -25 -231 -25
-259 0 -5 -25 -8 -55 -8 -30 0 -55 5 -55 10 0 6 16 10 36 10 l36 0 -7 153 -7
152 64 60 c63 60 234 217 274 251 14 12 28 45 39 92 l17 72 317 319 c174 175
360 358 414 406 l97 88 1 96 1 96 18 -58 c10 -32 21 -79 25 -105z m515 -31 c6
-17 9 -34 6 -40 -4 -5 -49 -31 -101 -57 -52 -27 -95 -54 -95 -61 0 -7 19 -57
43 -110 24 -54 54 -124 67 -157 l23 -58 41 5 c79 11 176 20 176 16 0 -2 25
-76 56 -164 108 -313 127 -373 121 -397 -11 -44 -46 -76 -100 -93 -28 -9 -61
-20 -72 -25 -50 -22 -119 -40 -125 -33 -15 18 -33 94 -24 103 5 5 49 22 99 39
49 16 91 34 93 39 2 8 -43 116 -150 351 l-19 43 -99 -7 -98 -7 -10 33 c-6 19
-42 126 -81 238 -39 112 -71 211 -71 220 1 47 24 64 145 107 148 52 159 53
175 15z m-418 -1878 c3 -10 1 -85 -3 -168 -24 -449 -39 -769 -39 -837 l0 -77
38 -6 c20 -3 63 -11 95 -18 l58 -11 -3 -56 -3 -55 -45 -3 c-25 -2 -101 -1
-169 3 l-124 7 6 132 c4 72 10 350 13 619 l7 487 82 0 c70 0 83 -3 87 -17z
m-421 -863 c-2 -151 -6 -418 -10 -593 l-6 -319 -30 -24 c-28 -23 -37 -24 -170
-24 -77 0 -147 4 -154 9 -13 8 -14 67 -12 388 2 208 5 389 6 403 2 14 4 112 4
218 l1 192 56 0 57 0 -7 -540 -8 -540 34 0 c18 0 51 -3 72 -7 l39 -6 -6 338
c-4 186 -10 439 -14 561 -7 254 -15 233 90 224 l61 -5 -3 -275z m-597 -436
c18 -7 23 -78 7 -88 -5 -4 -56 -11 -112 -17 -57 -5 -109 -14 -115 -20 -7 -6
-10 -34 -8 -77 2 -37 6 -119 10 -182 l6 -116 106 -29 107 -30 0 -302 0 -301
-25 -27 c-44 -47 -71 -55 -187 -55 -154 0 -153 0 -153 71 l0 58 118 3 117 3
-2 55 c-5 129 -25 376 -32 390 -4 8 -49 25 -99 39 l-92 24 0 264 c0 357 -8
343 196 343 78 0 149 -3 158 -6z"/>
<path d="M5963 16228 c-8 -9 -15 -175 -22 -533 -6 -286 -16 -679 -21 -874 -13
-459 -13 -708 0 -716 6 -4 50 -9 99 -12 78 -5 89 -4 95 12 3 10 11 138 16 284
21 567 33 886 61 1539 8 171 9 286 3 291 -5 5 -56 12 -114 16 -84 6 -108 4
-117 -7z"/>
<path d="M7407 15945 c-16 -15 -17 -60 -17 -519 0 -419 2 -506 14 -515 9 -8
51 -11 122 -9 l109 3 6 155 c4 85 10 302 14 482 7 296 6 329 -9 352 -24 38
-64 54 -148 62 -62 5 -77 4 -91 -11z"/>
<path d="M13961 14003 c1 -246 4 -547 8 -668 l6 -220 61 -3 62 -3 7 133 c3 73
5 374 3 668 l-3 535 -72 3 -73 3 1 -448z"/>
<path d="M14928 14291 c-7 -2 -16 -9 -20 -15 -4 -6 -8 -149 -8 -317 0 -252 3
-309 14 -318 9 -7 40 -11 78 -9 l63 3 6 130 c4 72 7 212 8 311 1 178 1 182
-22 197 -23 15 -95 26 -119 18z"/>
<path d="M12345 10940 c-50 -13 -368 -84 -590 -132 -27 -6 -68 -16 -90 -23
l-40 -12 -3 -137 c-2 -105 1 -141 11 -157 12 -17 13 -30 1 -92 -11 -57 -14
-225 -14 -804 l0 -733 33 0 c24 0 40 8 57 28 13 15 50 57 82 93 l58 66 1 349
c1 192 4 360 8 373 8 28 7 28 132 86 l96 44 7 78 c4 43 9 116 13 161 4 55 10
85 19 89 7 2 45 -5 85 -18 l72 -23 23 30 c13 16 24 32 24 36 0 3 16 35 36 70
l37 63 8 180 c4 99 8 228 8 288 1 119 2 118 -74 97z"/>
<path d="M11392 10383 c-7 -43 -17 -103 -22 -133 -5 -30 -21 -125 -35 -210
-14 -85 -30 -180 -35 -210 -5 -30 -14 -89 -20 -130 -6 -41 -16 -94 -21 -117
-5 -23 -9 -62 -9 -87 l0 -46 39 0 c22 0 42 4 45 9 5 8 24 104 57 286 6 33 14
80 19 105 5 25 14 74 20 110 6 36 15 85 20 110 5 25 16 86 25 135 9 50 20 109
26 132 5 23 9 55 9 72 0 26 -5 31 -37 40 -67 19 -68 18 -81 -66z"/>
<path d="M11490 9484 c0 -27 4 -43 10 -39 6 3 10 24 10 46 0 21 -4 39 -10 39
-5 0 -10 -21 -10 -46z"/>
<path d="M15917 13382 c-4 -7 -22 -79 -37 -147 -5 -22 -19 -80 -30 -130 -20
-87 -41 -177 -60 -260 -5 -22 -19 -80 -30 -130 -43 -187 -62 -269 -80 -350 -6
-27 -21 -93 -34 -145 -26 -106 -24 -114 36 -123 26 -4 40 -1 51 11 12 13 113
393 178 665 21 88 30 123 83 332 31 121 55 229 54 239 -2 11 -14 22 -28 26
-48 13 -100 19 -103 12z"/>
<path d="M10612 10668 c-6 -46 -16 -128 -22 -183 -7 -55 -15 -125 -20 -155
-10 -69 -2 -80 61 -80 56 0 50 -10 69 135 7 50 16 113 20 140 15 84 21 179 13
191 -13 18 -50 34 -81 34 -29 0 -29 -1 -40 -82z"/>
<path d="M8034 10403 c3 -60 11 -173 16 -253 6 -80 15 -215 20 -300 5 -85 13
-201 16 -258 l7 -103 46 3 46 3 -3 150 c-2 83 -10 265 -18 405 -8 140 -14 294
-14 342 0 117 -1 118 -68 118 l-55 0 7 -107z"/>
<path d="M12140 8481 c-31 -9 -32 -37 -6 -196 10 -60 21 -137 26 -170 5 -33
13 -94 19 -135 6 -41 15 -102 20 -135 5 -33 17 -109 26 -170 9 -60 20 -114 23
-121 5 -7 18 -8 41 -2 l33 9 -6 77 c-4 42 -11 106 -16 142 -6 36 -20 139 -31
230 -12 91 -25 197 -30 235 -5 39 -13 104 -18 146 -4 42 -11 82 -15 88 -8 12
-28 13 -66 2z"/>
<path d="M12027 18139 c-34 -8 -73 -30 -119 -68 -16 -13 -15 -15 20 -33 46
-24 92 -72 92 -97 0 -19 -24 -44 -53 -54 -26 -9 -66 9 -102 48 l-32 34 -5 -70
c-6 -72 -19 -99 -48 -99 -33 0 -55 38 -55 96 0 30 -2 53 -5 51 -3 -1 -26 -17
-52 -36 l-48 -35 0 -102 c0 -78 3 -104 15 -114 8 -7 15 -25 15 -40 0 -15 -7
-33 -15 -40 -22 -18 -20 -129 2 -169 17 -29 17 -32 0 -63 -14 -27 -17 -53 -15
-138 l3 -105 54 -8 c30 -4 60 -12 68 -19 22 -18 24 -5 7 45 -21 62 -16 98 19
117 24 13 30 13 55 0 31 -18 52 -56 59 -111 3 -22 7 -39 9 -39 2 0 24 16 50
35 25 19 57 35 70 35 25 0 74 -40 74 -59 0 -17 -61 -81 -91 -97 -40 -20 -36
-34 16 -68 66 -41 84 -86 47 -119 -33 -30 -80 -22 -124 23 -22 22 -42 40 -44
40 -2 0 -4 -27 -4 -61 0 -33 -5 -69 -10 -80 -13 -23 -52 -25 -74 -4 -16 17
-32 98 -21 114 11 19 -5 12 -44 -20 -32 -25 -46 -30 -81 -27 -26 2 -46 9 -50
18 -4 8 -14 31 -23 50 -27 57 -32 96 -13 103 14 6 15 11 6 28 -8 15 -9 29 0
52 9 27 8 34 -7 44 -9 7 -20 13 -24 13 -14 0 -31 73 -26 112 3 22 13 48 21 57
21 23 14 37 -35 80 l-39 33 0 -40 c0 -57 -25 -112 -51 -112 -18 0 -20 -4 -15
-32 3 -18 15 -95 26 -171 22 -144 18 -198 -15 -231 -8 -8 -15 -17 -15 -20 0
-3 31 -6 69 -6 38 0 82 -5 97 -10 21 -8 29 -7 39 6 11 16 12 15 17 -4 3 -12
29 -32 64 -49 33 -16 94 -49 137 -72 42 -24 105 -49 140 -58 76 -18 142 -7
261 44 113 48 217 82 294 95 l67 11 -3 59 c-2 32 -6 58 -9 58 -3 0 -21 -13
-40 -30 -58 -52 -134 -35 -119 26 7 28 15 37 59 71 30 24 30 25 -28 43 -22 7
-46 17 -52 23 -20 15 -15 61 9 86 18 20 27 23 71 17 28 -3 55 -10 61 -16 5 -5
16 -10 23 -10 9 0 7 13 -7 46 -26 59 -25 89 1 115 16 16 28 20 53 15 42 -9 64
-40 72 -103 4 -34 11 -53 19 -53 7 0 15 4 17 9 6 16 81 61 103 61 12 0 32 -11
45 -25 24 -25 24 -26 7 -58 -10 -18 -38 -47 -63 -66 -24 -18 -44 -37 -44 -41
0 -4 10 -11 23 -17 48 -22 87 -64 87 -93 0 -69 -72 -81 -139 -24 l-42 36 3
-63 3 -64 51 -6 c69 -9 115 -24 204 -66 109 -53 141 -53 295 -3 72 23 136 44
144 46 11 4 11 7 0 20 -7 8 -14 41 -15 72 -1 31 -3 58 -3 59 -1 1 -17 -14 -37
-33 -46 -42 -96 -49 -121 -16 -21 27 -15 43 32 89 25 23 45 44 45 47 0 2 -20
9 -44 15 -77 19 -97 61 -51 106 28 29 68 32 122 10 20 -8 38 -13 40 -11 3 2
-3 18 -11 35 -9 16 -16 48 -16 70 0 32 5 44 25 57 58 38 115 -20 115 -115 l0
-54 44 41 c25 23 57 44 72 48 39 10 78 -14 82 -50 4 -32 -14 -55 -75 -98 -48
-33 -53 -44 -22 -53 35 -12 99 -75 99 -100 0 -31 -31 -55 -70 -55 -26 0 -43 9
-72 37 -42 41 -44 39 -51 -45 l-4 -53 51 8 c94 15 235 8 329 -16 49 -13 91
-21 93 -19 4 5 -29 114 -46 153 -4 11 -25 65 -45 120 -20 55 -40 109 -45 120
-5 11 -14 34 -21 51 l-13 31 -96 6 c-134 8 -197 40 -246 123 -29 50 -37 74
-69 211 -27 114 -43 154 -81 198 -14 17 -44 57 -67 90 -22 33 -48 68 -58 78
-18 17 -19 16 -40 -25 -11 -24 -39 -61 -60 -84 -39 -40 -40 -41 -30 -85 6 -24
13 -56 16 -70 l5 -27 37 34 c45 42 93 53 128 30 15 -10 25 -26 25 -40 0 -25
-45 -76 -93 -104 -32 -19 -31 -32 5 -50 31 -14 88 -77 88 -95 0 -25 -40 -57
-71 -57 -21 0 -43 12 -74 41 l-45 42 0 -60 c0 -68 -19 -103 -55 -103 -34 0
-58 49 -53 106 2 24 2 44 1 44 -1 0 -18 -14 -37 -31 -43 -37 -95 -48 -119 -24
-27 26 -21 44 32 97 44 43 46 49 27 53 -65 12 -76 16 -90 31 -22 21 -20 46 5
79 19 24 27 26 68 22 25 -2 57 -8 70 -12 21 -7 23 -6 16 16 -21 75 -26 80 -69
79 -23 -1 -54 -1 -70 -1 l-29 1 6 89 6 90 -29 6 c-16 3 -44 21 -64 39 -19 19
-37 31 -40 28 -4 -3 -6 -29 -6 -58 0 -69 -25 -104 -63 -87 -29 13 -51 70 -45
114 5 35 -2 36 -31 5 -54 -58 -131 -57 -131 2 0 33 13 53 58 86 l33 24 -55 16
c-56 17 -76 36 -76 75 0 20 -5 21 -122 20 -68 -1 -140 -5 -161 -10z m172 -379
c24 -12 51 -80 51 -126 l0 -36 41 35 c49 42 82 52 120 37 60 -25 44 -74 -44
-140 l-46 -34 47 -32 c77 -51 91 -80 61 -118 -33 -42 -83 -33 -144 25 l-30 28
-1 -57 c-1 -71 -16 -102 -49 -102 -35 0 -55 36 -55 97 l0 53 -46 -35 c-68 -52
-124 -45 -124 16 0 20 12 37 42 63 23 20 46 36 52 36 25 1 -21 20 -47 20 -44
0 -77 27 -77 63 0 45 25 67 75 67 24 0 55 -7 71 -15 15 -8 30 -13 32 -11 2 2
-4 25 -12 50 -21 61 -20 82 4 106 22 22 51 26 79 10z"/>
<path d="M12188 17529 c-33 -19 -15 -69 24 -69 15 0 38 27 38 44 0 7 -31 36
-38 36 -4 0 -15 -5 -24 -11z"/>
<path d="M12553 18093 c-18 -6 -16 -48 2 -63 8 -6 23 -9 34 -5 22 7 38 42 24
55 -12 11 -46 19 -60 13z"/>
<path d="M11777 18068 c-18 -6 -27 -16 -25 -26 7 -37 68 -20 68 19 0 21 -3 22
-43 7z"/>
<path d="M4388 18053 c23 -2 61 -2 85 0 23 2 4 4 -43 4 -47 0 -66 -2 -42 -4z"/>
<path d="M12698 18053 c7 -3 16 -2 19 1 4 3 -2 6 -13 5 -11 0 -14 -3 -6 -6z"/>
<path d="M14250 18012 c0 -26 92 -56 155 -50 l40 4 -40 7 c-38 7 -100 26 -137
42 -10 4 -18 3 -18 -3z"/>
<path d="M9438 17903 c7 -3 16 -2 19 1 4 3 -2 6 -13 5 -11 0 -14 -3 -6 -6z"/>
<path d="M11523 17863 c-59 -84 -76 -127 -74 -193 1 -35 3 -65 4 -67 2 -1 21
13 42 32 22 19 44 35 48 35 4 0 19 7 33 16 23 16 24 18 9 40 -20 30 -19 59 2
95 33 56 -27 95 -64 42z"/>
<path d="M8141 17717 c-13 -78 -28 -164 -33 -192 -14 -86 -21 -150 -14 -144 3
3 20 45 36 93 17 48 40 108 51 134 39 87 89 185 89 175 0 -22 -55 -174 -106
-292 -30 -69 -51 -127 -48 -130 3 -3 9 1 14 9 12 20 166 238 225 318 46 62 52
92 19 92 -26 0 -82 21 -142 52 -29 16 -56 28 -60 28 -4 0 -18 -64 -31 -143z"/>
<path d="M8755 17832 c-27 -16 -72 -34 -100 -42 -81 -21 -81 -20 -33 -86 24
-32 86 -120 138 -194 52 -74 103 -144 113 -155 17 -19 17 -17 -1 25 -11 25
-35 79 -55 120 -37 80 -80 196 -91 245 -17 79 106 -192 155 -340 18 -54 34
-70 25 -25 -10 49 -32 174 -56 320 -24 140 -28 160 -38 160 -4 0 -29 -13 -57
-28z"/>
<path d="M13020 17790 c-9 -6 -10 -10 -3 -10 6 0 15 5 18 10 8 12 4 12 -15 0z"/>
<path d="M12978 17763 c7 -3 16 -2 19 1 4 3 -2 6 -13 5 -11 0 -14 -3 -6 -6z"/>
<path d="M12928 17743 c7 -3 16 -2 19 1 4 3 -2 6 -13 5 -11 0 -14 -3 -6 -6z"/>
<path d="M12988 17533 c-24 -6 -33 -42 -15 -60 10 -10 24 -13 41 -9 50 12 24
80 -26 69z"/>
<path d="M11398 17507 c-9 -46 15 -62 46 -31 12 12 13 20 6 35 -15 27 -47 24
-52 -4z"/>
<path d="M11540 17501 c0 -5 7 -11 15 -15 9 -3 15 0 15 9 0 8 -7 15 -15 15 -8
0 -15 -4 -15 -9z"/>
<path d="M11822 17008 c-36 -36 6 -91 46 -62 27 19 28 36 4 57 -22 20 -34 21
-50 5z"/>
<path d="M12615 17007 c-23 -18 -14 -62 15 -70 42 -11 69 52 31 73 -25 13 -24
13 -46 -3z"/>
<path d="M13412 17008 c-32 -32 2 -87 40 -67 31 17 17 79 -17 79 -6 0 -16 -5
-23 -12z"/>
<path d="M11620 16936 c0 -36 14 -55 25 -35 4 6 21 19 38 29 l31 19 -28 11
c-51 19 -66 14 -66 -24z"/>
<path d="M11324 16671 c-71 -32 -135 -174 -104 -230 16 -31 69 -61 109 -61 57
0 228 50 209 61 -9 6 -9 11 -1 21 9 10 7 19 -7 38 -30 38 -26 86 8 107 15 9
35 25 45 35 17 17 17 18 -5 17 -13 -1 -50 3 -83 9 -118 22 -129 22 -171 3z
m58 -88 c18 -16 24 -59 10 -79 -16 -24 -51 -35 -74 -23 -28 15 -38 28 -38 54
0 55 62 84 102 48z"/>
<path d="M13545 16669 c-75 -10 -139 -27 -280 -75 -155 -52 -221 -53 -329 0
-143 69 -236 86 -368 67 -78 -11 -210 -50 -302 -90 -199 -87 -336 -81 -506 23
-67 41 -116 66 -128 66 -6 0 -10 -55 -10 -124 l-1 -125 52 -30 c29 -17 93 -60
144 -95 109 -77 182 -106 262 -106 78 0 106 13 241 114 134 101 222 147 288
153 86 9 208 -53 322 -162 67 -65 88 -75 169 -91 104 -20 149 -3 237 89 95 98
121 115 185 123 49 6 85 2 254 -27 28 -5 76 -12 107 -15 54 -6 58 -5 89 25 31
32 31 33 27 111 -6 98 -15 110 -109 140 -121 38 -218 46 -344 29z m149 -55
c34 -34 8 -104 -39 -104 -35 0 -58 24 -58 60 0 53 61 81 97 44z m-931 -8 c17
-14 23 -61 9 -83 -4 -7 -22 -15 -39 -19 -59 -12 -92 54 -51 103 14 17 58 16
81 -1z m-249 -59 c19 -26 19 -30 5 -55 -21 -38 -75 -43 -101 -10 -23 30 -22
40 3 72 27 34 64 32 93 -7z m928 -4 c10 -9 18 -27 18 -40 0 -28 -33 -63 -60
-63 -26 0 -60 34 -60 62 0 50 63 76 102 41z m500 -17 c16 -24 8 -66 -16 -81
-51 -34 -112 17 -87 73 19 41 78 46 103 8z m-2110 -33 c37 -33 11 -96 -41 -96
-55 0 -78 45 -49 93 16 25 64 27 90 3z m1177 -35 c28 -50 -20 -98 -77 -77 -27
10 -38 52 -23 85 9 21 17 25 48 22 28 -2 41 -10 52 -30z m-713 -13 c19 -30 11
-60 -22 -82 -51 -33 -106 24 -78 80 20 37 76 39 100 2z m-248 -61 c29 -20 31
-79 3 -94 -32 -17 -69 -12 -85 12 -22 31 -20 54 6 78 26 24 46 25 76 4z m1174
-1 c27 -24 23 -69 -7 -89 -55 -36 -117 25 -81 80 19 30 60 35 88 9z"/>
<path d="M14805 16160 c-163 -37 -335 -108 -469 -194 -36 -23 -69 -36 -97 -38
-38 -3 -46 -7 -64 -40 -12 -21 -40 -51 -63 -68 -32 -23 -52 -51 -87 -123 -25
-51 -45 -103 -45 -114 0 -12 -4 -25 -10 -28 -5 -3 -10 -16 -10 -28 0 -17 6
-12 28 23 16 25 39 70 51 100 34 79 69 137 99 160 40 32 38 15 -5 -37 -47 -57
-71 -111 -113 -258 -46 -162 -45 -154 -22 -125 11 13 37 74 58 135 21 60 46
130 57 155 l21 45 7 -50 c22 -137 22 -158 -4 -227 -27 -74 -24 -86 9 -35 36
53 47 104 40 171 -4 34 -10 84 -12 111 -3 28 -1 62 5 78 9 22 17 27 45 27 28
0 40 7 58 31 22 30 24 30 83 24 95 -10 268 -43 335 -65 14 -4 52 -16 85 -25
140 -41 346 -136 492 -226 237 -148 414 -309 601 -550 10 -13 9 -22 -4 -47
-18 -36 -11 -69 17 -92 16 -13 17 -20 8 -50 -17 -54 11 -131 91 -254 75 -117
101 -128 44 -20 -115 217 -114 215 -113 263 l1 46 12 -52 c19 -79 59 -150 136
-247 40 -49 83 -107 98 -129 14 -21 28 -35 30 -29 6 20 -59 131 -106 181 -19
19 -88 123 -94 142 -5 12 17 5 74 -24 78 -40 159 -113 179 -162 7 -17 8 -17 8
-2 1 30 -40 106 -71 133 -35 29 -101 64 -121 64 -22 0 -94 68 -105 99 -9 24
-7 32 9 47 27 24 24 70 -6 98 -23 22 -25 31 -30 157 -3 74 -10 159 -16 189
-56 289 -134 456 -282 608 -128 131 -261 210 -421 252 -104 26 -295 27 -411 0z
m229 -50 c8 -8 -2 -12 -57 -24 -34 -8 -99 3 -91 15 15 25 124 32 148 9z m206
-15 c68 -35 6 -49 -67 -15 -24 10 -43 21 -43 25 0 11 83 4 110 -10z m-471 -31
c-17 -20 -52 -35 -106 -44 -77 -12 -44 24 47 54 8 2 28 5 44 5 25 1 27 -1 15
-15z m655 -46 c45 -29 63 -58 38 -58 -22 0 -112 56 -112 70 0 17 39 11 74 -12z
m-884 -43 c-18 -21 -68 -44 -112 -51 -32 -6 -37 -4 -32 9 7 19 90 56 128 57
24 0 27 -2 16 -15z m518 -45 c-2 -24 3 -35 27 -51 l30 -20 -31 6 c-27 5 -35 2
-54 -22 l-23 -28 5 33 c4 29 1 35 -21 45 l-26 11 33 4 c23 2 36 11 44 28 15
32 20 30 16 -6z m547 -65 c25 -24 45 -52 45 -61 0 -14 -4 -14 -32 3 -31 18
-78 75 -78 94 0 19 23 7 65 -36z m-232 5 c80 -48 75 -165 -10 -205 -76 -37
-163 21 -163 107 0 40 21 73 64 99 40 24 66 24 109 -1z m357 -182 c17 -24 30
-54 30 -71 0 -30 0 -30 -20 -12 -26 24 -50 72 -50 102 0 32 5 29 40 -19z
m-136 -67 c-16 -28 -16 -31 0 -55 19 -29 17 -31 -17 -15 -20 9 -30 8 -51 -6
-29 -19 -34 -10 -10 23 14 20 14 24 0 38 -25 24 -19 33 14 21 25 -9 33 -9 47
6 27 27 36 20 17 -12z m227 -194 c6 -22 8 -46 4 -55 -5 -14 -9 -13 -25 8 -13
17 -20 41 -19 75 0 46 1 49 15 30 8 -11 19 -37 25 -58z m30 -204 c5 -21 6 -53
3 -71 -5 -26 -9 -30 -20 -21 -14 12 -20 119 -7 132 9 10 14 3 24 -40z"/>
<path d="M15305 15820 c-4 -6 -13 -9 -21 -6 -9 4 -14 -2 -14 -15 0 -11 -7 -22
-17 -26 -14 -6 -13 -7 5 -14 15 -6 19 -14 15 -31 -5 -19 -3 -21 8 -10 19 17
26 15 34 -10 l8 -23 4 23 c4 18 9 21 25 16 17 -5 20 -3 14 12 -4 10 -1 21 6
26 10 8 10 11 1 15 -7 2 -13 14 -13 25 0 13 -5 18 -14 15 -7 -3 -18 -1 -24 5
-6 6 -12 6 -17 -2z"/>
<path d="M2340 15995 c-19 -20 -30 -24 -52 -20 -35 8 -37 -2 -2 -15 22 -9 31
-6 61 21 29 25 42 30 65 25 31 -6 58 -27 58 -45 0 -6 5 -11 10 -11 17 0 11 15
-18 43 -38 36 -89 37 -122 2z"/>
<path d="M2100 15990 c-10 -7 11 -10 70 -10 59 0 80 3 70 10 -8 5 -40 10 -70
10 -30 0 -62 -5 -70 -10z"/>
<path d="M2040 15965 c-7 -8 -17 -15 -22 -15 -5 0 -19 -9 -30 -20 -15 -13 -25
-17 -32 -10 -5 5 -17 10 -25 10 -11 0 -9 -6 8 -19 25 -19 25 -19 67 15 22 19
48 34 58 34 9 0 16 5 16 10 0 15 -26 12 -40 -5z"/>
<path d="M2365 15960 c-19 -21 -19 -22 0 -57 l19 -35 29 32 c35 39 33 74 -4
78 -16 2 -32 -5 -44 -18z"/>
<path d="M1588 15950 c-124 -22 -286 -132 -378 -256 -82 -110 -114 -198 -151
-419 -11 -70 -8 -359 5 -400 6 -17 -6 -26 -85 -65 -103 -51 -98 -61 14 -30 42
11 81 20 86 20 5 0 14 -15 22 -32 7 -18 56 -123 110 -233 100 -206 149 -328
149 -370 0 -44 -21 -70 -96 -118 -86 -54 -91 -73 -18 -70 119 5 214 88 214
188 0 53 -37 150 -129 334 -95 192 -142 318 -121 331 9 5 9 9 1 14 -6 4 -11
18 -11 31 0 20 11 27 86 54 47 17 103 31 124 31 69 0 206 32 246 57 12 8 24
22 27 33 4 15 -3 20 -37 26 -22 4 -43 7 -46 7 -3 0 -22 -4 -44 -7 -44 -8 -43
-7 26 73 36 42 38 43 71 32 47 -16 86 -92 55 -104 -7 -3 -3 -6 9 -6 12 -1 39
-12 59 -26 21 -14 51 -25 70 -25 48 0 42 -16 -8 -25 -40 -8 -41 -9 -13 -13 39
-5 45 -16 45 -80 0 -65 -19 -105 -60 -122 -34 -14 -90 -73 -90 -95 0 -19 34
-28 80 -20 116 20 220 160 220 297 l0 44 58 -7 c31 -4 70 -10 86 -14 21 -6 27
-5 22 4 -10 16 53 14 84 -4 25 -14 25 -14 -13 -15 l-38 0 34 -29 c18 -17 40
-49 47 -72 8 -24 29 -58 48 -76 27 -28 36 -31 52 -23 12 6 20 21 20 36 0 31
-52 134 -97 194 l-35 45 24 6 c22 7 22 7 -4 8 -29 1 -149 92 -130 99 24 8 11
17 -25 18 -21 1 -55 9 -76 18 l-39 17 82 61 c83 62 157 143 164 181 11 50 13
77 7 77 -3 0 -26 -7 -51 -16 -31 -11 -63 -14 -101 -10 -116 11 -197 85 -220
200 -11 60 -14 65 -51 81 -46 20 -70 59 -56 95 15 39 39 60 72 61 25 1 27 3 8
6 -13 3 -37 -1 -52 -7 -19 -8 -34 -8 -47 -2 -27 14 -151 22 -205 12z m132 -49
c0 -11 -36 -21 -75 -21 -29 1 -29 1 -11 15 21 16 86 21 86 6z m-185 -31 c-8
-12 -80 -50 -95 -50 -21 0 3 22 44 41 47 21 60 23 51 9z m155 -75 c0 -11 -95
-65 -114 -65 -18 0 -19 2 -6 15 29 28 120 66 120 50z m-310 -75 c-19 -17 -43
-30 -53 -30 -24 0 -13 17 27 41 49 30 66 22 26 -11z m334 -32 c-30 -54 -94
-115 -94 -90 0 13 80 102 91 102 6 0 7 -6 3 -12z m124 -20 c-27 -35 -68 -66
-68 -51 0 13 68 83 81 83 6 0 1 -14 -13 -32z m-406 -31 c-17 -18 -46 -41 -63
-51 l-32 -19 18 24 c22 30 84 79 99 79 5 0 -4 -15 -22 -33z m-218 -124 c-19
-41 -74 -110 -74 -93 0 26 77 146 87 136 3 -2 -3 -22 -13 -43z m349 5 c15 -11
34 -32 41 -47 23 -44 38 -150 31 -211 -4 -30 -9 -50 -10 -45 -2 6 -9 44 -16
85 -36 203 -88 236 -253 161 -35 -16 -82 -46 -106 -67 -42 -38 -43 -38 -27 -9
21 41 84 99 134 124 83 41 155 45 206 9z m322 -18 c-10 -17 -75 -55 -125 -73
l-45 -17 30 25 c26 23 78 51 125 68 22 8 22 8 15 -3z m346 -50 c-13 -11 -30
-20 -39 -20 -13 0 -12 3 3 20 10 11 28 20 39 20 20 -1 20 -1 -3 -20z m-811
-49 c0 -17 -48 -66 -56 -58 -10 10 15 55 35 60 9 3 17 5 19 6 1 0 2 -3 2 -8z
m650 -25 c0 -10 -93 -46 -117 -46 -26 1 -25 3 17 25 38 21 100 34 100 21z
m-244 -40 c-32 -26 -107 -68 -112 -63 -8 8 42 51 80 68 55 25 67 23 32 -5z
m-293 -73 c-7 -19 -16 -28 -46 -52 -26 -20 -21 3 9 38 28 34 47 41 37 14z
m-442 -110 c-8 -14 -10 -8 -11 29 0 67 14 96 18 36 2 -26 -2 -56 -7 -65z m809
67 c-26 -20 -69 -34 -77 -26 -8 8 60 46 82 46 18 0 18 -2 -5 -20z m-586 -87
l-18 -38 -4 28 c-2 18 3 36 14 49 25 27 29 8 8 -39z m788 -27 c29 -13 62 -31
73 -40 19 -16 19 -16 -10 -10 -40 9 -98 39 -114 58 -18 21 -11 20 51 -8z m-93
-32 c25 -15 25 -15 -22 -10 -27 3 -58 13 -70 22 -21 16 -20 16 22 10 24 -4 55
-13 70 -22z m-761 -120 c23 -6 22 -7 -8 -25 -38 -23 -40 -23 -40 -1 0 31 9 36
48 26z m673 -107 c-8 -8 -11 4 -11 39 0 66 14 80 18 19 2 -26 -2 -53 -7 -58z
m69 27 c-16 -29 -25 -16 -15 23 4 19 9 23 17 15 9 -9 8 -18 -2 -38z m-775
-239 c63 -163 60 -154 40 -127 -42 56 -132 281 -149 372 -8 39 43 -74 109
-245z m-145 186 c-8 -5 -26 -12 -40 -15 l-25 -7 25 15 c14 9 32 15 40 15 13 0
13 -1 0 -8z m830 -50 c0 -15 -69 -65 -78 -56 -4 4 9 20 28 36 36 30 50 36 50
20z m-477 -576 c0 -69 -26 -132 -67 -159 -25 -16 -24 -14 7 30 31 44 32 49 32
148 0 95 1 101 13 72 8 -17 14 -58 15 -91z"/>
<path d="M2477 15934 c-4 -4 -7 -17 -7 -28 1 -19 1 -20 11 -3 11 19 8 43 -4
31z"/>
<path d="M2176 15889 c-33 -29 -37 -30 -69 -18 -29 10 -40 9 -72 -7 -59 -29
-80 -65 -80 -134 1 -51 5 -64 31 -97 17 -21 52 -51 78 -67 119 -74 276 -6 323
140 15 48 15 54 -2 98 -42 109 -137 148 -209 85z m72 -58 c8 -4 12 -19 10 -32
-4 -30 -51 -35 -56 -6 -8 39 15 58 46 38z m-153 -60 c0 -34 -30 -51 -51 -29
-25 24 -10 60 24 56 21 -2 27 -8 27 -27z m118 -66 c-3 -9 -8 -14 -10 -11 -3 3
-2 9 2 15 9 16 15 13 8 -4z m-58 -23 c-3 -3 -11 0 -18 7 -9 10 -8 11 6 5 10
-3 15 -9 12 -12z m85 -22 c0 -25 -91 -42 -105 -20 -4 6 6 10 22 10 15 0 35 5
43 10 19 13 40 13 40 0z"/>
<path d="M1846 15875 c-9 -24 3 -42 36 -56 27 -11 32 -10 44 6 8 10 14 25 14
32 0 30 -83 46 -94 18z"/>
<path d="M2450 15878 c0 -9 -6 -19 -12 -21 -10 -4 -10 -6 0 -6 14 -1 28 26 18
36 -3 4 -6 -1 -6 -9z"/>
<path d="M2400 15831 c0 -6 5 -13 10 -16 6 -3 10 1 10 9 0 9 -4 16 -10 16 -5
0 -10 -4 -10 -9z"/>
<path d="M2407 15677 c-11 -29 -9 -43 4 -30 6 6 9 19 7 29 -3 18 -4 18 -11 1z"/>
<path d="M2376 15609 c-23 -27 -15 -35 9 -9 10 11 16 22 14 25 -3 2 -13 -5
-23 -16z"/>
<path d="M2518 15362 c-16 -9 -28 -20 -28 -24 0 -5 -8 -8 -17 -9 -10 0 -13 -3
-6 -5 7 -3 21 0 32 6 25 13 27 3 5 -28 -9 -13 -14 -25 -11 -28 7 -7 58 76 55
91 -2 11 -8 11 -30 -3z"/>
<path d="M2425 15300 c-3 -5 -1 -10 4 -10 6 0 11 5 11 10 0 6 -2 10 -4 10 -3
0 -8 -4 -11 -10z"/>
<path d="M2338 15253 c7 -3 16 -2 19 1 4 3 -2 6 -13 5 -11 0 -14 -3 -6 -6z"/>
<path d="M2298 15233 c7 -3 16 -2 19 1 4 3 -2 6 -13 5 -11 0 -14 -3 -6 -6z"/>
<path d="M2250 15210 c0 -5 7 -7 15 -4 8 4 15 8 15 10 0 2 -7 4 -15 4 -8 0
-15 -4 -15 -10z"/>
<path d="M2205 15190 c-3 -5 1 -10 9 -10 9 0 16 5 16 10 0 6 -4 10 -9 10 -6 0
-13 -4 -16 -10z"/>
<path d="M2352 15181 c-32 -17 -34 -31 -3 -31 15 0 47 37 39 45 -2 2 -18 -4
-36 -14z"/>
<path d="M2468 15143 c23 -2 59 -2 80 0 20 2 1 4 -43 4 -44 0 -61 -2 -37 -4z"/>
<path d="M2633 15123 c9 -2 25 -2 35 0 9 3 1 5 -18 5 -19 0 -27 -2 -17 -5z"/>
<path d="M2724 15101 c3 -4 20 -12 38 -16 20 -4 27 -9 18 -12 -51 -16 -48 -17
105 -36 22 -2 32 -2 23 0 -10 2 -18 8 -18 13 0 4 -8 10 -17 13 -10 3 -43 15
-73 26 -58 22 -85 27 -76 12z"/>
<path d="M2518 15073 c29 -2 74 -2 100 0 26 2 2 3 -53 3 -55 0 -76 -1 -47 -3z"/>
<path d="M1675 14963 c-84 -22 -92 -25 -79 -30 6 -2 31 1 55 8 24 6 61 13 82
16 20 3 37 9 37 14 0 12 -23 10 -95 -8z"/>
<path d="M1505 14920 c-7 -12 32 -12 60 0 16 7 13 9 -17 9 -20 1 -40 -3 -43
-9z"/>
<path d="M1420 14900 c-12 -7 -8 -10 15 -10 17 0 37 5 45 10 12 7 8 10 -15 10
-16 0 -37 -5 -45 -10z"/>
<path d="M1335 14880 c-17 -7 -15 -9 12 -9 17 -1 35 4 38 9 7 12 -22 12 -50 0z"/>
<path d="M1250 14860 c-22 -7 -21 -8 13 -9 20 -1 37 4 37 9 0 11 -14 11 -50 0z"/>
<path d="M17320 14646 c-199 -46 -310 -111 -310 -181 0 -46 29 -208 52 -290
11 -38 22 -81 25 -95 2 -14 29 -75 58 -136 44 -91 64 -121 108 -160 l55 -49 9
-299 10 -299 26 -22 c73 -57 230 -57 351 0 42 20 99 84 91 103 -7 18 -47 171
-102 387 l-46 180 28 40 c49 72 71 151 84 300 15 172 -12 447 -48 479 -52 46
-273 70 -391 42z m275 -37 c85 -22 107 -45 80 -85 -30 -46 -127 -84 -275 -109
-108 -19 -191 -19 -259 0 -67 17 -86 35 -77 69 21 84 371 167 531 125z m90
-169 c-11 -18 -95 -62 -168 -88 -63 -22 -89 -25 -207 -26 -114 0 -142 3 -179
19 l-43 20 98 -4 c141 -5 315 23 449 73 49 18 58 19 50 6z m29 -245 c-1 -133
-4 -158 -26 -221 -14 -40 -33 -82 -42 -95 l-16 -24 6 35 c3 19 9 55 14 80 5
25 16 127 26 228 13 142 20 179 28 165 7 -11 11 -77 10 -168z m-107 27 c32
-119 18 -313 -28 -373 -16 -21 -16 -19 -7 37 6 33 8 140 4 244 -6 193 -1 208
31 92z m-431 -78 c30 -92 91 -226 135 -297 l30 -49 -30 21 c-34 24 -79 79
-109 132 -32 57 -70 187 -76 259 -5 60 -4 63 9 39 8 -15 26 -62 41 -105z m133
28 c1 -29 47 -219 73 -300 11 -35 18 -65 16 -68 -10 -9 -58 73 -82 139 -31 85
-52 229 -41 282 l8 40 12 -35 c8 -19 14 -45 14 -58z m146 -57 c23 -117 38
-262 30 -292 l-7 -28 -14 40 c-30 81 -70 359 -59 402 l7 28 15 -40 c7 -22 20
-71 28 -110z m-66 -606 c13 -101 15 -329 3 -329 -5 0 -16 44 -25 98 -16 92
-20 181 -17 337 l2 70 13 -45 c8 -25 18 -83 24 -131z m341 -298 c0 -13 -51
-48 -96 -67 -41 -17 -144 -20 -171 -5 -16 8 -15 10 7 14 92 18 151 33 190 48
53 20 70 22 70 10z"/>
<path d="M17345 14574 c-73 -17 -113 -30 -135 -42 -23 -13 -22 -13 25 -8 180
22 246 27 299 21 l61 -6 -35 17 c-34 16 -173 28 -215 18z"/>
<path d="M19203 13882 c-24 -15 -43 -32 -43 -39 0 -7 9 -29 20 -49 12 -20 19
-39 16 -42 -11 -10 -46 31 -46 53 0 27 -8 35 -26 28 -22 -8 -16 -55 12 -96
l26 -39 -99 -131 c-230 -307 -341 -467 -256 -372 15 18 23 23 20 12 -30 -83
-107 -454 -81 -387 3 8 12 29 19 45 7 17 18 48 23 70 21 86 32 136 32 152 0
28 89 202 158 308 56 86 247 335 257 335 7 0 -15 -65 -47 -145 -45 -109 -91
-191 -141 -252 -85 -105 -142 -223 -157 -325 -7 -51 5 -67 16 -20 22 103 85
223 173 332 50 63 101 163 141 283 33 94 38 73 14 -54 -28 -155 -73 -264 -168
-409 -34 -52 -80 -126 -101 -165 -21 -38 -46 -81 -55 -95 -19 -29 -45 -108
-38 -115 2 -2 21 28 42 69 21 40 75 129 121 197 73 108 153 252 176 314 32 89
49 199 49 312 l0 105 35 32 c37 34 47 80 23 104 -19 19 -70 12 -115 -16z m37
-126 c0 -2 -8 -10 -17 -17 -16 -13 -17 -12 -4 4 13 16 21 21 21 13z"/>
<path d="M19063 13794 c-13 -6 -1 -52 25 -91 8 -14 10 -23 4 -23 -16 0 -52 50
-52 72 0 27 -8 23 -131 -63 -212 -147 -473 -357 -634 -509 -33 -32 -79 -74
-102 -94 -47 -42 -288 -303 -351 -381 -112 -138 -332 -443 -332 -461 0 -3 -11
-22 -25 -42 -32 -47 -31 -64 3 -88 54 -40 59 -38 100 28 250 408 586 791 1002
1140 116 97 308 242 462 348 l107 73 -24 25 c-14 14 -25 35 -25 48 0 24 -4 27
-27 18z"/>
<path d="M18670 13029 c0 -5 5 -7 10 -4 6 3 10 8 10 11 0 2 -4 4 -10 4 -5 0
-10 -5 -10 -11z"/>
<path d="M18651 13004 c0 -11 3 -14 6 -6 3 7 2 16 -1 19 -3 4 -6 -2 -5 -13z"/>
<path d="M18615 12960 c-10 -11 -15 -20 -11 -20 11 0 39 30 34 36 -3 2 -13 -5
-23 -16z"/>
<path d="M18490 12789 c0 -5 5 -7 10 -4 6 3 10 8 10 11 0 2 -4 4 -10 4 -5 0
-10 -5 -10 -11z"/>
<path d="M18721 12784 c0 -11 3 -14 6 -6 3 7 2 16 -1 19 -3 4 -6 -2 -5 -13z"/>
<path d="M18451 12734 c0 -11 3 -14 6 -6 3 7 2 16 -1 19 -3 4 -6 -2 -5 -13z"/>
<path d="M18851 12734 c0 -11 3 -14 6 -6 3 7 2 16 -1 19 -3 4 -6 -2 -5 -13z"/>
<path d="M18396 12666 c-23 -36 -20 -44 5 -12 12 15 19 29 16 32 -2 2 -12 -7
-21 -20z"/>
<path d="M18316 12553 c-6 -14 -5 -15 5 -6 7 7 10 15 7 18 -3 3 -9 -2 -12 -12z"/>
<path d="M18281 12514 c-7 -8 -11 -17 -9 -20 3 -2 13 5 23 16 10 11 14 20 9
20 -5 -1 -15 -8 -23 -16z"/>
<path d="M18251 12464 c0 -11 3 -14 6 -6 3 7 2 16 -1 19 -3 4 -6 -2 -5 -13z"/>
<path d="M18205 12410 c-3 -5 -1 -10 4 -10 6 0 11 5 11 10 0 6 -2 10 -4 10 -3
0 -8 -4 -11 -10z"/>
<path d="M18187 12383 c-4 -3 -7 -11 -7 -17 0 -6 5 -5 12 2 6 6 9 14 7 17 -3
3 -9 2 -12 -2z"/>
<path d="M18161 12344 c0 -11 3 -14 6 -6 3 7 2 16 -1 19 -3 4 -6 -2 -5 -13z"/>
<path d="M1530 12320 c-8 -5 -26 -10 -40 -10 -46 0 -108 -50 -137 -108 -22
-45 -26 -68 -27 -142 l-1 -88 -26 5 c-19 4 -46 -7 -104 -42 -96 -58 -120 -62
-119 -20 0 17 2 37 5 45 6 21 -44 26 -60 6 -7 -8 -11 -27 -9 -43 2 -22 9 -29
32 -33 16 -3 31 -11 34 -17 3 -10 -15 -13 -68 -13 -69 0 -74 -2 -104 -33 -51
-55 -70 -161 -41 -230 15 -35 61 -77 87 -77 7 0 38 -16 68 -35 60 -39 127 -48
150 -20 8 10 9 15 2 15 -19 0 -80 59 -106 104 -42 72 -44 200 -3 234 9 8 11
-5 9 -59 -3 -63 0 -76 32 -142 20 -40 52 -90 71 -112 32 -38 36 -40 88 -38
l53 3 12 -58 c13 -65 54 -122 102 -142 39 -16 47 -7 31 33 -33 82 -38 247 -8
300 16 30 59 77 69 77 5 0 0 -17 -11 -39 -31 -60 -42 -149 -30 -248 6 -47 9
-99 7 -115 -4 -22 3 -36 29 -63 34 -35 34 -35 124 -35 78 0 98 4 146 27 124
61 196 159 196 267 -1 35 -6 74 -14 87 -7 13 -13 53 -13 89 -1 51 -6 72 -24
97 -27 38 -97 89 -135 98 l-27 7 34 42 c50 62 66 99 66 158 0 67 -20 104 -114
215 -16 19 -45 40 -64 48 -39 17 -139 20 -162 5z m-44 -158 c22 -46 68 -72
130 -72 67 0 115 21 153 67 l31 38 0 -41 c0 -47 -36 -109 -96 -165 -49 -46
-171 -129 -189 -129 -28 0 -92 165 -96 245 -4 83 0 108 24 145 l22 35 3 -45
c2 -25 10 -60 18 -78z m244 100 c40 -33 26 -91 -26 -106 -27 -8 -74 28 -74 58
0 54 58 82 100 48z m-317 -371 c64 -66 68 -69 101 -61 19 4 37 5 40 3 3 -3 19
5 35 16 23 17 45 22 90 22 67 1 97 -10 65 -22 -10 -4 -31 -8 -47 -8 -53 -2
-115 -40 -134 -82 -18 -43 -33 -36 -33 15 l0 30 -30 -29 c-35 -34 -35 -56 0
-66 23 -5 21 -7 -17 -18 -68 -19 -101 -60 -159 -196 -6 -15 -9 -9 -12 29 -4
54 10 99 42 134 l21 24 -60 56 c-34 32 -72 62 -85 68 -53 24 -76 33 -105 39
-27 7 -28 8 -10 15 78 32 216 -38 257 -131 22 -50 62 -29 72 37 5 39 4 42 -31
65 -21 13 -48 39 -60 58 -23 34 -30 71 -15 71 5 0 39 -31 75 -69z m-396 -70
c-58 -51 -64 -92 -41 -260 11 -79 -32 -20 -57 78 -11 44 -10 58 4 105 20 61
63 106 103 106 24 0 24 -1 -9 -29z m771 -125 c94 -25 162 -91 175 -169 l6 -37
-39 20 c-68 35 -148 21 -182 -32 -27 -41 -41 -126 -34 -204 6 -73 5 -74 -20
-80 -14 -4 -29 -3 -33 2 -5 5 -5 43 0 84 15 125 -8 252 -61 347 -17 30 -30 56
-28 58 7 7 95 23 128 24 19 0 59 -6 88 -13z m84 -263 c24 -21 23 -58 -2 -83
-59 -59 -139 21 -87 88 14 17 67 15 89 -5z"/>
<path d="M18107 12274 c-10 -13 -14 -24 -10 -24 9 0 36 40 31 45 -2 2 -11 -8
-21 -21z"/>
<path d="M18070 12229 c0 -5 5 -7 10 -4 6 3 10 8 10 11 0 2 -4 4 -10 4 -5 0
-10 -5 -10 -11z"/>
<path d="M17996 12126 c-23 -36 -20 -44 5 -12 12 15 19 29 16 32 -2 2 -12 -7
-21 -20z"/>
<path d="M17396 12079 c-14 -28 -26 -55 -26 -60 0 -4 18 -19 40 -31 22 -13 40
-26 40 -30 0 -18 -43 -6 -67 18 -25 25 -27 26 -40 8 -7 -10 -12 -25 -11 -33 4
-17 64 -61 84 -61 11 0 39 44 72 111 1 3 -16 11 -38 18 -23 7 -44 19 -47 27
-7 18 5 33 15 18 4 -6 22 -19 41 -29 33 -17 35 -17 47 0 15 21 10 35 -13 35
-8 0 -28 14 -43 30 l-29 31 -25 -52z"/>
<path d="M16844 12095 c-69 -17 -166 -70 -226 -123 -95 -86 -142 -230 -119
-364 8 -40 20 -86 28 -103 24 -47 94 -114 143 -137 107 -50 259 -71 339 -48
19 5 36 8 37 7 2 -2 -3 -15 -11 -30 -13 -26 -13 -27 13 -27 19 0 23 3 15 11
-12 12 3 59 19 59 12 0 10 -38 -3 -63 -9 -16 -9 -22 1 -25 7 -3 20 -12 30 -22
15 -15 16 -26 9 -76 -21 -144 -51 -204 -99 -204 -16 0 -32 5 -35 10 -3 6 -14
9 -23 9 -15 -1 -15 -2 1 -6 9 -2 17 -8 17 -13 0 -4 9 -10 20 -13 16 -4 20 -14
20 -50 0 -37 5 -49 26 -66 32 -26 36 -26 64 -3 17 14 25 35 31 80 5 37 19 78
34 102 25 40 24 56 -1 23 -12 -16 -13 -15 -14 10 0 36 34 204 65 322 37 138
97 301 164 448 17 37 31 70 31 72 0 3 -13 5 -30 5 -16 0 -39 9 -49 19 -18 18
-20 19 -35 2 -9 -10 -16 -22 -16 -27 0 -6 -5 -15 -11 -21 -9 -9 -20 2 -46 45
-35 60 -117 143 -168 169 -36 19 -122 43 -150 42 -11 -1 -43 -7 -71 -14z m178
-48 c29 -13 79 -47 110 -76 103 -94 138 -208 103 -339 -36 -136 -91 -214 -183
-259 -49 -24 -69 -28 -137 -27 -146 1 -278 57 -336 143 -60 89 -65 245 -12
361 22 48 118 141 173 168 120 58 197 66 282 29z"/>
<path d="M16764 12004 c-86 -43 -155 -109 -191 -183 -23 -47 -27 -68 -27 -143
0 -48 3 -90 6 -93 15 -16 57 13 138 94 105 105 148 184 157 292 3 38 2 69 -3
69 -5 0 -41 -16 -80 -36z"/>
<path d="M17030 11990 c0 -5 5 -10 11 -10 5 0 7 5 4 10 -3 6 -8 10 -11 10 -2
0 -4 -4 -4 -10z"/>
<path d="M16902 11933 c-61 -165 -98 -227 -187 -315 -67 -67 -56 -77 20 -18
89 68 165 200 179 308 7 58 4 66 -12 25z"/>
<path d="M17058 11833 c7 -3 16 -2 19 1 4 3 -2 6 -13 5 -11 0 -14 -3 -6 -6z"/>
<path d="M17090 11570 c0 -5 5 -10 11 -10 5 0 7 5 4 10 -3 6 -8 10 -11 10 -2
0 -4 -4 -4 -10z"/>
<path d="M16808 11453 c6 -2 18 -2 25 0 6 3 1 5 -13 5 -14 0 -19 -2 -12 -5z"/>
<path d="M17008 11453 c6 -2 18 -2 25 0 6 3 1 5 -13 5 -14 0 -19 -2 -12 -5z"/>
<path d="M16735 11410 c3 -5 10 -10 16 -10 5 0 9 5 9 10 0 6 -7 10 -16 10 -8
0 -12 -4 -9 -10z"/>
<path d="M1142 12018 c-20 -22 -40 -78 -28 -78 3 0 27 14 53 30 26 17 60 30
75 30 15 0 28 4 28 8 0 38 -95 45 -128 10z"/>
<path d="M17915 12020 c-3 -5 -1 -10 4 -10 6 0 11 5 11 10 0 6 -2 10 -4 10 -3
0 -8 -4 -11 -10z"/>
<path d="M17895 11990 c-3 -5 -1 -10 4 -10 6 0 11 5 11 10 0 6 -2 10 -4 10 -3
0 -8 -4 -11 -10z"/>
<path d="M17870 11955 c0 -8 2 -15 4 -15 2 0 6 7 10 15 3 8 1 15 -4 15 -6 0
-10 -7 -10 -15z"/>
<path d="M17715 11750 c-3 -5 -1 -10 4 -10 6 0 11 5 11 10 0 6 -2 10 -4 10 -3
0 -8 -4 -11 -10z"/>
<path d="M17690 11719 c0 -5 5 -7 10 -4 6 3 10 8 10 11 0 2 -4 4 -10 4 -5 0
-10 -5 -10 -11z"/>
<path d="M17595 11583 l-17 -28 23 22 c12 12 20 25 17 28 -3 3 -13 -7 -23 -22z"/>
<path d="M4150 11536 c-165 -44 -202 -118 -215 -420 -7 -162 -18 -223 -60
-321 -112 -261 -137 -360 -137 -550 -1 -135 15 -240 60 -416 29 -111 112 -223
199 -267 105 -54 230 -64 377 -32 50 11 96 20 103 20 16 0 18 -202 3 -282 -18
-91 -32 -138 -42 -138 -5 0 -24 33 -44 73 l-35 72 5 -55 c2 -30 6 -62 8 -70 4
-18 -30 -18 -111 -1 -30 6 -56 9 -59 6 -3 -2 10 -21 28 -41 39 -44 30 -53 -50
-54 l-55 -1 38 -20 c38 -20 42 -39 7 -39 -10 0 -22 -5 -26 -12 -5 -8 10 -9 57
-4 35 4 98 11 139 15 66 7 223 27 495 61 44 6 146 10 226 10 122 0 149 3 160
16 14 17 61 145 55 151 -1 2 -42 -17 -90 -42 -48 -25 -91 -45 -97 -45 -5 0 -9
29 -9 64 0 68 -9 126 -19 126 -3 -1 -19 -29 -35 -63 -17 -34 -37 -73 -45 -86
l-15 -24 -17 39 c-10 21 -18 47 -18 56 -1 9 -6 29 -13 43 -17 37 -28 13 -28
-62 0 -35 -4 -63 -9 -63 -27 0 -163 330 -173 420 -3 32 -1 34 67 69 159 83
261 178 325 305 111 222 89 478 -67 791 -179 359 -506 696 -752 774 -41 13
-72 12 -131 -3z m172 -91 c100 -50 166 -101 288 -224 251 -251 405 -514 466
-791 17 -77 19 -259 3 -309 -21 -69 -77 -176 -113 -218 -65 -75 -266 -208
-280 -185 -11 19 -27 218 -24 317 l3 109 41 12 c115 33 184 98 184 173 0 40
-12 45 -43 17 -38 -35 -92 -50 -179 -51 -77 0 -78 0 -84 -28 -3 -15 -11 -26
-17 -24 -16 5 -30 72 -23 103 8 29 29 27 34 -2 8 -43 24 -38 18 6 -7 55 -36
339 -36 360 0 9 25 33 55 55 81 59 110 129 84 204 -12 34 -29 42 -29 13 0 -10
-14 -40 -31 -66 -16 -27 -24 -46 -17 -43 7 3 21 8 31 12 27 11 21 -24 -10 -57
-15 -15 -35 -28 -45 -28 -21 0 -22 4 -7 32 16 29 6 32 -32 9 -38 -23 -49 -20
-49 16 0 14 -4 42 -9 62 -5 20 -17 72 -27 116 -31 148 -41 180 -55 180 -22 0
-28 -78 -27 -354 1 -170 -2 -256 -9 -258 -34 -12 -162 217 -163 290 0 9 -4 17
-10 17 -13 0 -13 -125 1 -192 28 -136 67 -204 166 -285 20 -16 23 -33 34 -163
6 -80 9 -162 7 -183 l-3 -37 -45 22 c-60 29 -178 148 -223 225 -19 34 -51 104
-71 155 -19 51 -39 94 -45 96 -14 5 -14 -9 4 -93 8 -38 15 -76 15 -84 0 -28
-140 9 -162 43 -4 6 -10 7 -14 4 -10 -11 33 -64 69 -86 17 -11 55 -23 83 -27
51 -6 52 -8 69 -53 54 -142 180 -326 322 -470 42 -42 53 -61 59 -97 6 -40 4
-45 -17 -54 -74 -29 -123 -36 -239 -36 -116 0 -129 2 -176 27 -115 61 -156
136 -216 403 -20 93 -17 353 5 440 19 70 93 271 107 290 23 30 59 189 65 285
3 58 8 115 11 128 4 21 6 22 34 7 46 -24 114 -19 147 9 27 23 27 50 1 29 -22
-18 -76 -25 -128 -18 l-50 7 0 57 c0 84 40 158 100 188 63 31 138 30 202 -2z
m148 -576 c0 -55 -22 -83 -39 -50 -14 26 -14 84 1 116 l12 26 13 -23 c7 -13
12 -44 13 -69z m61 -136 c10 -27 4 -113 -8 -113 -16 0 -32 40 -33 81 0 65 22
82 41 32z m-192 -137 c28 -15 61 -56 61 -76 0 -5 -7 -10 -16 -10 -21 0 -84 63
-84 84 0 20 4 20 39 2z m155 -99 c3 -23 2 -55 -3 -72 l-9 -30 -16 37 c-16 38
-22 119 -9 132 12 12 30 -22 37 -67z m315 -216 c19 -12 6 -29 -36 -46 -44 -19
-81 -11 -62 12 11 12 62 40 79 42 3 0 11 -3 19 -8z m-310 -80 c13 -40 14 -90
2 -109 -22 -35 -52 74 -37 134 8 31 18 23 35 -25z m137 4 c11 -43 -14 -130
-32 -112 -10 9 -11 97 -2 120 10 25 27 21 34 -8z m-430 -42 c28 -18 77 -86 89
-122 l7 -23 -29 17 c-28 16 -82 88 -96 128 -8 21 -3 21 29 0z m252 -202 c49
-25 103 -81 79 -81 -28 0 -79 25 -114 54 -55 47 -34 63 35 27z m-102 -20 c47
-35 95 -111 69 -111 -21 0 -110 89 -117 118 -8 29 0 28 48 -7z m271 -79 c6
-87 -3 -167 -17 -142 -11 22 -30 142 -25 165 2 11 7 33 10 49 10 50 26 14 32
-72z m-73 -109 c13 -47 18 -97 11 -139 -6 -41 -8 -44 -19 -28 -17 24 -28 111
-20 152 7 35 20 42 28 15z m121 -263 c16 -31 20 -87 6 -108 -6 -10 -12 -7 -24
12 -23 34 -23 126 -1 126 2 0 10 -13 19 -30z m-95 -214 c0 -51 -4 -77 -14 -85
-12 -10 -16 -5 -26 24 -11 34 -8 73 11 123 16 41 29 13 29 -62z m229 -45 c6
-21 11 -51 11 -66 0 -23 -2 -25 -14 -15 -23 18 -54 90 -61 140 l-6 45 29 -33
c16 -18 34 -50 41 -71z m-83 -37 c16 -37 19 -94 5 -94 -19 0 -41 51 -41 95 0
53 14 52 36 -1z"/>
<path d="M4236 11388 c-11 -6 -49 -12 -85 -14 -36 -1 -68 -3 -71 -4 -3 0 6 -7
20 -15 36 -21 99 -18 138 5 45 28 44 55 -2 28z"/>
<path d="M4354 11320 c-5 -5 -43 -10 -84 -12 l-75 -3 32 -17 c54 -30 126 -18
162 26 11 14 11 16 -6 16 -10 0 -23 -4 -29 -10z"/>
<path d="M4305 11109 c-24 -16 -44 -19 -98 -17 -37 2 -67 2 -67 0 0 -9 69 -42
89 -42 29 0 93 35 109 61 15 24 6 23 -33 -2z"/>
<path d="M4530 11089 c0 -30 90 -50 131 -29 28 16 23 30 -8 24 -16 -3 -49 -1
-75 4 -27 5 -48 6 -48 1z"/>
<path d="M4170 10964 c-25 -8 -57 -12 -72 -9 -14 4 -29 2 -32 -4 -9 -14 61
-34 95 -27 33 6 79 34 79 47 0 12 -15 10 -70 -7z"/>
<path d="M4076 10831 c-3 -4 -19 -11 -36 -14 -34 -7 -39 -23 -10 -32 24 -8 80
20 80 40 0 16 -25 21 -34 6z"/>
<path d="M4830 10819 c-19 -10 -43 -18 -52 -19 -35 0 -17 -20 18 -20 42 0 70
13 84 40 14 25 -1 25 -50 -1z"/>
<path d="M4125 10665 c-24 -9 -62 -12 -95 -9 l-55 5 33 -22 c44 -29 113 -23
150 15 29 29 25 30 -33 11z"/>
<path d="M4827 10433 c-13 -20 -97 -37 -129 -25 -38 14 -33 -7 6 -26 48 -24
146 12 134 48 -3 9 -7 10 -11 3z"/>
<path d="M4155 10370 c-8 -13 49 -40 85 -40 35 0 90 25 90 41 0 6 -6 9 -14 6
-37 -14 -86 -18 -120 -9 -20 6 -38 7 -41 2z"/>
<path d="M3980 10173 c-28 -20 -44 -24 -82 -20 -52 4 -63 -8 -22 -23 54 -21
112 -5 135 36 17 33 10 35 -31 7z"/>
<path d="M4090 10080 c-19 -11 -43 -19 -52 -20 -10 0 -18 -7 -18 -15 0 -24 55
-18 86 8 38 33 28 50 -16 27z"/>
<path d="M4870 10045 c-14 -8 -44 -17 -67 -21 -54 -8 -46 -24 13 -24 47 0 94
23 94 46 0 17 -8 17 -40 -1z"/>
<path d="M4041 9933 c-24 -16 -48 -23 -82 -23 -59 0 -63 -12 -11 -29 43 -15
79 -3 116 37 28 32 15 41 -23 15z"/>
<path d="M4826 9894 c-19 -23 -44 -39 -72 -46 -47 -13 -49 -28 -3 -28 56 0
119 49 119 92 0 26 -11 21 -44 -18z"/>
<path d="M4176 9801 c-28 -31 -81 -44 -145 -37 l-56 6 30 -20 c69 -46 214 -1
193 60 -2 7 -11 3 -22 -9z"/>
<path d="M4376 9708 c-39 -20 -99 -21 -138 -4 -36 16 -17 -11 23 -33 37 -21
46 -22 80 -12 22 7 47 24 59 41 12 17 20 30 18 29 -2 -1 -21 -10 -42 -21z"/>
<path d="M17560 11539 c0 -5 5 -7 10 -4 6 3 10 8 10 11 0 2 -4 4 -10 4 -5 0
-10 -5 -10 -11z"/>
<path d="M17515 11480 c-3 -5 -1 -10 4 -10 6 0 11 5 11 10 0 6 -2 10 -4 10 -3
0 -8 -4 -11 -10z"/>
<path d="M17490 11449 c0 -5 5 -7 10 -4 6 3 10 8 10 11 0 2 -4 4 -10 4 -5 0
-10 -5 -10 -11z"/>
<path d="M17405 11330 c-3 -5 -1 -10 4 -10 6 0 11 5 11 10 0 6 -2 10 -4 10 -3
0 -8 -4 -11 -10z"/>
<path d="M17380 11299 c0 -5 5 -7 10 -4 6 3 10 8 10 11 0 2 -4 4 -10 4 -5 0
-10 -5 -10 -11z"/>
<path d="M17352 11259 c-19 -30 -11 -32 11 -3 10 13 14 24 10 24 -5 0 -14 -9
-21 -21z"/>
<path d="M16988 11253 c7 -3 16 -2 19 1 4 3 -2 6 -13 5 -11 0 -14 -3 -6 -6z"/>
<path d="M16950 11230 c0 -5 -6 -10 -14 -10 -22 0 -136 -115 -136 -138 0 -14
20 -33 66 -62 71 -45 101 -50 34 -6 -22 14 -42 26 -45 26 -14 0 -35 30 -35 48
0 18 39 58 130 131 14 11 19 20 13 21 -7 0 -13 -4 -13 -10z"/>
<path d="M17010 11225 c0 -8 -7 -18 -15 -21 -8 -4 -15 -14 -15 -24 0 -21 -35
-54 -49 -46 -6 4 -7 14 -4 23 11 27 -13 6 -35 -31 l-20 -34 58 -41 c56 -39 88
-53 75 -31 -7 12 12 40 27 40 5 0 12 -10 17 -22 l8 -22 12 22 c10 19 9 22 -9
22 -25 0 -25 16 0 58 11 17 15 32 9 32 -6 0 -17 6 -25 14 -7 8 -19 16 -26 19
-10 3 -10 9 -1 25 8 13 9 23 3 27 -6 3 -10 -1 -10 -10z m5 -65 c8 -12 -16 -50
-32 -50 -16 0 -17 15 -3 41 12 21 25 25 35 9z m29 -48 c-6 -9 -18 -18 -27 -20
-15 -3 -15 -1 0 28 11 23 18 29 26 21 8 -8 9 -16 1 -29z m-107 -2 c3 -11 10
-17 16 -13 5 3 16 -3 24 -13 8 -10 16 -18 18 -16 3 1 5 0 5 -3 0 -3 0 -9 0
-15 0 -5 -7 -10 -15 -10 -8 0 -15 5 -15 10 0 6 -7 10 -15 10 -9 0 -18 6 -21
14 -3 8 -12 12 -19 10 -19 -8 -29 14 -15 31 17 21 31 19 37 -5z"/>
<path d="M17046 11205 c4 -8 13 -15 21 -15 13 0 13 3 3 15 -7 8 -16 15 -21 15
-5 0 -6 -7 -3 -15z"/>
<path d="M17315 11210 c-3 -5 -1 -10 4 -10 6 0 11 5 11 10 0 6 -2 10 -4 10 -3
0 -8 -4 -11 -10z"/>
<path d="M17290 11175 c0 -8 -4 -15 -10 -15 -5 0 -10 -5 -10 -11 0 -14 18 -2
30 22 7 13 7 19 0 19 -5 0 -10 -7 -10 -15z"/>
<path d="M17245 11117 c-6 -7 -18 -24 -28 -39 -27 -43 -5 -32 25 12 25 36 27
56 3 27z"/>
<path d="M17025 11000 c3 -5 8 -10 11 -10 2 0 4 5 4 10 0 6 -5 10 -11 10 -5 0
-7 -4 -4 -10z"/>
<path d="M16040 10698 c-96 -26 -119 -34 -170 -55 -77 -33 -100 -44 -141 -71
-25 -16 -44 -21 -61 -17 -24 6 -58 -18 -45 -31 3 -4 0 -23 -8 -43 -7 -20 -16
-72 -19 -116 -3 -44 -8 -93 -12 -110 l-6 -30 20 24 c11 14 23 43 27 65 l7 41
19 -40 c10 -22 19 -50 19 -63 0 -13 4 -20 10 -17 15 9 12 76 -5 125 -18 51
-20 131 -3 148 18 18 33 15 69 -15 37 -32 71 -103 88 -186 12 -57 12 -57 -17
-86 -41 -42 -64 -95 -72 -171 -9 -83 3 -97 26 -28 l18 53 9 -45 c5 -25 11 -56
14 -70 l6 -25 7 25 c3 14 4 65 2 114 -5 85 -4 90 19 107 13 10 34 19 47 19 56
0 171 -78 212 -145 l22 -35 -49 -67 c-30 -40 -59 -70 -74 -74 l-24 -6 25 -4
c20 -3 26 -12 31 -39 l6 -35 2 35 c1 25 15 54 48 98 50 68 70 68 46 -1 -19
-55 -9 -231 12 -223 8 3 17 -3 20 -15 12 -36 23 -19 30 46 6 51 4 76 -10 111
-14 38 -15 47 -3 62 22 28 31 32 81 32 70 0 191 -44 264 -96 57 -41 62 -48 57
-72 -4 -15 -10 -31 -14 -37 -14 -20 -18 -61 -11 -135 l7 -75 18 39 c15 33 16
46 7 83 -12 48 -6 94 12 87 8 -3 11 -22 9 -52 -2 -29 6 -78 21 -126 20 -68 25
-76 31 -53 3 15 -2 65 -14 116 -25 115 -19 175 19 190 97 39 251 55 251 26 0
-8 -9 -20 -21 -27 -37 -23 -56 -70 -64 -153 -6 -76 -6 -79 10 -57 9 13 20 46
24 75 9 63 38 127 58 127 11 0 12 -6 6 -22 -4 -13 -8 -71 -8 -129 0 -100 1
-105 16 -87 23 25 32 80 19 112 -16 42 -13 116 5 122 19 8 20 38 1 53 -7 6
-16 41 -19 79 -15 159 -75 350 -132 417 -16 20 -16 20 -12 -2 4 -16 2 -21 -7
-15 -34 20 -166 127 -166 134 0 27 95 -17 140 -64 52 -54 33 -14 -28 58 -97
116 -240 204 -395 244 -62 17 -70 7 -15 -18 40 -19 102 -72 83 -72 -16 0 -202
62 -240 81 -43 21 -80 23 -135 7z m205 -112 c39 -12 38 -13 -80 -24 -66 -7
-156 -17 -200 -22 -44 -6 -98 -10 -120 -9 l-40 1 41 19 c96 44 310 63 399 35z
m297 -3 c22 -20 23 -51 1 -75 -38 -42 -105 0 -84 55 15 39 52 48 83 20z m-312
-204 c-69 -39 -138 -79 -155 -88 -16 -10 -39 -21 -49 -25 -20 -7 -20 -7 0 16
73 85 216 167 294 167 31 1 22 -7 -90 -70z m220 -117 c-38 -101 -112 -196
-194 -246 -34 -22 -31 -16 45 84 31 41 81 118 110 170 41 71 55 89 57 72 2
-12 -6 -48 -18 -80z m136 -118 c8 -115 -2 -228 -17 -201 -19 34 -38 354 -22
370 13 14 33 -70 39 -169z m195 50 c46 -57 86 -150 93 -219 l7 -60 -62 120
c-34 66 -72 144 -85 173 -23 50 -23 52 -5 39 11 -7 35 -31 52 -53z m-622 -342
c-1 -33 -2 -34 -9 -12 -12 36 -12 62 0 55 6 -3 10 -23 9 -43z"/>
<path d="M15906 9785 c-9 -14 -13 -25 -9 -25 10 0 36 40 30 46 -2 3 -12 -7
-21 -21z"/>
<path d="M16006 9781 c-4 -7 -5 -15 -2 -18 9 -9 19 4 14 18 -4 11 -6 11 -12 0z"/>
<path d="M15870 9739 c0 -5 5 -7 10 -4 6 3 10 8 10 11 0 2 -4 4 -10 4 -5 0
-10 -5 -10 -11z"/>
<path d="M15980 9739 c0 -5 5 -7 10 -4 6 3 10 8 10 11 0 2 -4 4 -10 4 -5 0
-10 -5 -10 -11z"/>
<path d="M15852 9695 c0 -16 2 -22 5 -12 2 9 2 23 0 30 -3 6 -5 -1 -5 -18z"/>
<path d="M15931 9676 c-7 -8 -25 -17 -39 -19 l-27 -4 28 -2 c26 -1 66 24 55
35 -3 2 -11 -2 -17 -10z"/>
<path d="M7150 9165 c-29 -20 -69 -53 -89 -74 l-36 -39 -70 29 c-60 24 -84 28
-165 29 -177 0 -319 -41 -418 -121 l-57 -45 -74 35 c-99 46 -171 53 -221 19
-33 -23 -35 -27 -38 -91 -2 -42 3 -84 13 -114 28 -82 98 -206 142 -252 l43
-45 0 -93 0 -93 125 0 c68 0 134 -4 147 -9 13 -5 43 -15 68 -22 51 -14 125
-49 155 -73 11 -9 -5 -5 -35 9 l-55 25 -3 -23 c-6 -35 -32 -57 -67 -57 -61 0
-71 55 -17 84 l27 14 -25 6 c-78 16 -193 27 -250 24 l-65 -3 -3 -68 c-3 -72
20 -167 40 -167 20 0 88 23 88 30 0 4 -14 7 -31 8 -40 1 -59 18 -59 52 0 53
77 82 113 42 19 -21 22 -57 7 -67 -34 -21 39 -36 78 -16 9 4 69 11 132 14 110
5 112 5 55 -7 -33 -7 -91 -18 -130 -25 -136 -24 -217 -45 -222 -58 -6 -16 15
-34 129 -113 224 -155 395 -186 598 -107 89 34 145 74 221 155 73 79 173 220
184 260 6 19 3 22 -24 22 -16 0 -32 -4 -36 -9 -3 -6 -32 -10 -65 -10 -32 0
-74 -4 -92 -10 -99 -32 -131 -41 -135 -38 -4 4 45 26 117 54 59 22 159 43 206
43 42 0 44 1 44 29 0 15 -4 41 -9 57 -5 16 -12 45 -16 66 -7 44 -25 52 -70 31
-28 -13 -32 -19 -23 -30 20 -24 -15 -48 -67 -45 -39 1 -54 -5 -127 -55 -46
-31 -94 -66 -108 -77 -20 -16 -18 -14 5 13 49 54 154 135 238 180 42 24 87 51
99 61 l22 18 -27 69 c-29 73 -32 93 -18 109 15 16 49 125 60 195 23 136 10
241 -34 285 -38 38 -109 34 -175 -11z m148 -68 c12 -24 12 -40 -1 -105 -22
-107 -31 -143 -49 -175 l-14 -29 -72 106 c-40 59 -72 110 -72 114 0 12 71 78
110 101 46 28 81 24 98 -12z m-517 -67 c30 -17 24 -57 -11 -75 -61 -31 -129
-10 -117 37 11 41 82 62 128 38z m-266 -40 c0 -18 -6 -26 -21 -28 -26 -4 -40
24 -23 45 18 21 44 11 44 -17z m460 0 c3 -6 -1 -13 -10 -16 -19 -8 -30 0 -20
15 8 14 22 14 30 1z m-786 -69 c20 -9 46 -22 58 -29 l21 -12 -23 -77 c-12 -43
-29 -99 -36 -125 -7 -27 -17 -48 -21 -48 -12 0 -74 89 -113 161 -39 75 -46
131 -17 148 21 13 82 5 131 -18z m354 -37 c14 -15 -15 -44 -43 -44 -32 0 -45
13 -36 35 5 15 66 21 79 9z m419 -11 c34 -31 20 -65 -34 -78 -55 -14 -86 59
-35 83 32 15 48 14 69 -5z m194 -108 c11 -44 -1 -168 -21 -210 -10 -22 -19
-44 -19 -48 -2 -19 -141 -83 -199 -92 l-47 -7 0 36 c0 56 52 159 112 222 48
52 142 124 160 124 4 0 10 -11 14 -25z m-756 -24 c0 -32 -65 -45 -77 -15 -7
20 13 34 50 34 20 0 27 -5 27 -19z m449 -83 c15 -25 14 -29 -8 -52 -59 -63
-151 3 -94 66 26 29 83 21 102 -14z m-484 -19 c37 -11 83 -30 103 -41 21 -12
48 -27 62 -34 31 -16 62 -50 101 -112 39 -62 38 -78 -8 -86 -145 -23 -269 41
-313 164 -17 48 -27 130 -16 130 2 0 34 -9 71 -21z m-77 -215 c3 -22 -21 -39
-39 -28 -11 6 -12 38 -2 48 13 13 38 1 41 -20z m567 -48 c48 -20 44 -27 -6
-10 -47 17 -98 7 -145 -27 -22 -15 -20 -13 5 10 47 42 91 50 146 27z m69 -62
c4 -11 -10 -32 -44 -65 -38 -37 -50 -55 -50 -79 0 -39 -12 -38 -41 5 -13 20
-35 38 -49 41 -49 10 -75 29 -75 54 0 24 4 25 98 36 54 6 100 14 104 18 13 12
51 6 57 -10z m256 -39 c0 -9 -9 -15 -25 -15 -24 0 -32 10 -18 23 12 13 43 7
43 -8z m-126 -154 c-35 -59 -124 -72 -190 -27 -44 29 -40 33 13 11 19 -8 48
-15 63 -15 32 0 110 39 117 58 3 7 8 11 10 8 3 -2 -3 -18 -13 -35z m-259 -34
c-8 -13 -26 -30 -40 -37 -31 -17 -31 -24 0 -38 45 -21 112 -15 152 13 20 13
39 23 41 21 7 -8 -23 -45 -47 -58 -38 -20 -125 -14 -157 11 -15 11 -40 21 -56
21 -33 0 -108 35 -108 50 0 6 13 4 30 -5 51 -26 111 -17 169 27 31 24 35 23
16 -5z m-285 -126 c0 -22 -29 -36 -43 -22 -15 15 0 41 23 41 13 0 20 -7 20
-19z m510 -21 c0 -6 -7 -13 -15 -16 -20 -8 -48 3 -40 16 8 13 55 13 55 0z
m-212 -56 c4 -26 -21 -48 -47 -39 -45 14 -30 69 18 63 17 -2 27 -10 29 -24z"/>
<path d="M6983 8648 c-31 -15 -41 -70 -19 -103 32 -48 106 -42 126 11 27 70
-38 125 -107 92z"/>
<path d="M6416 8551 c-26 -29 -18 -89 16 -114 27 -20 29 -20 63 -4 33 16 35
19 35 66 0 39 -4 53 -19 61 -31 16 -76 12 -95 -9z"/>
<path d="M15188 8805 c-67 -15 -154 -82 -133 -103 3 -3 32 -8 65 -10 57 -4 73
-13 50 -27 -16 -10 -4 -21 56 -54 48 -26 63 -29 102 -24 40 5 45 4 39 -10 -8
-20 22 -24 41 -5 9 9 12 7 12 -10 0 -18 4 -21 29 -16 27 6 33 1 75 -56 52 -70
57 -61 24 44 -60 189 -213 305 -360 271z m117 -45 c-11 -5 -36 -8 -55 -8 -32
0 -33 1 -10 8 14 4 39 8 55 8 25 1 27 -1 10 -8z m89 -60 c-12 -12 -114 -52
-114 -45 0 5 101 54 115 54 5 1 5 -3 -1 -9z"/>
<path d="M15888 8640 c-68 -13 -185 -110 -238 -197 l-19 -33 84 0 c90 0 99 6
75 50 -9 16 -8 19 7 13 10 -3 24 -10 31 -16 9 -7 12 -2 12 22 0 40 12 39 63
-4 36 -31 44 -34 81 -28 68 10 86 20 86 47 0 23 3 24 43 19 23 -4 45 -11 49
-17 5 -6 8 -2 8 11 0 29 -60 88 -113 112 -50 22 -117 31 -169 21z m102 -103
c0 -16 -33 19 -53 55 l-18 33 35 -39 c20 -22 36 -44 36 -49z m-30 -49 c0 -19
-27 7 -48 45 l-23 42 35 -40 c20 -22 36 -43 36 -47z"/>
<path d="M15201 8468 c-74 -36 -129 -133 -157 -276 -23 -121 -21 -124 35 -68
46 45 49 47 56 27 6 -19 12 -21 43 -16 60 10 62 12 62 54 0 47 14 60 32 31 15
-23 38 -27 38 -5 0 8 5 26 12 40 10 23 13 24 29 9 16 -14 19 -12 41 25 27 44
38 44 38 0 0 -41 19 -29 63 41 l37 60 -43 31 c-97 72 -200 89 -286 47z m0
-213 c-8 -36 -9 -32 -10 41 -1 45 2 97 7 115 6 28 8 20 10 -41 1 -41 -1 -93
-7 -115z m100 112 c-8 -29 -9 -27 -9 23 -1 44 1 50 9 32 5 -15 6 -36 0 -55z
m-158 -52 c-17 -50 -37 -72 -23 -27 9 32 28 72 35 72 2 0 -3 -20 -12 -45z"/>
<path d="M15613 8323 c-18 -7 -16 -30 8 -93 36 -96 80 -214 91 -242 12 -34 28
-35 79 -6 21 12 41 19 44 16 3 -3 -8 -29 -24 -57 -17 -28 -27 -51 -23 -51 5 0
32 11 60 25 29 14 54 25 57 25 2 0 -1 -11 -7 -25 -6 -14 -14 -25 -17 -25 -10
0 -41 -57 -35 -63 3 -3 19 -1 35 5 46 16 50 6 18 -46 -17 -26 -28 -50 -25 -53
9 -9 97 81 124 126 24 41 27 56 26 131 0 74 -4 91 -28 135 -37 64 -100 131
-151 157 -74 38 -189 59 -232 41z m128 -131 c-11 -23 -26 -44 -32 -48 -7 -4 1
16 16 45 33 60 46 62 16 3z m76 -33 c-14 -30 -32 -63 -41 -74 -15 -19 -16 -19
-5 10 14 39 61 126 66 121 2 -2 -7 -28 -20 -57z m64 -62 c-13 -13 -15 11 -4
40 7 16 8 15 11 -6 2 -13 -1 -28 -7 -34z"/>
<path d="M15362 8184 l-22 -15 22 -40 c12 -21 25 -39 30 -39 4 0 8 -7 8 -15 0
-20 13 -19 38 3 36 30 37 59 3 92 -34 34 -47 37 -79 14z"/>
<path d="M15517 8111 c-15 -48 -27 -94 -27 -100 0 -12 41 -31 67 -31 14 0 15
13 8 103 -3 56 -10 105 -14 109 -4 5 -19 -32 -34 -81z m43 -41 c0 -19 -17 -36
-26 -27 -3 2 -2 16 2 31 7 28 24 26 24 -4z"/>
<path d="M15232 8089 l-24 -9 22 -35 c25 -40 20 -45 -10 -12 l-22 22 4 -25 c6
-48 74 -52 102 -7 21 33 -32 82 -72 66z"/>
<path d="M15340 7984 c0 -8 5 -12 10 -9 6 3 10 -2 10 -12 0 -11 5 -24 12 -31
7 -7 8 -12 2 -12 -5 0 -15 5 -21 11 -7 7 -13 7 -17 0 -10 -15 32 -34 60 -27
28 7 41 45 24 75 -14 26 -80 31 -80 5z"/>
<path d="M15600 7978 c-25 -27 -26 -50 -2 -71 24 -22 55 -21 75 1 22 24 21 55
-1 75 -25 23 -47 21 -72 -5z m66 -64 c-11 -8 -27 -14 -35 -14 -10 0 -4 8 14
20 33 21 51 17 21 -6z"/>
<path d="M11627 7957 c-9 -23 -9 -502 -1 -546 6 -30 8 -31 63 -31 31 0 62 4
69 9 14 8 17 -6 -83 406 -19 77 -35 149 -37 160 -3 19 -4 19 -11 2z"/>
<path d="M15440 7868 c-5 -13 -14 -50 -21 -83 -6 -33 -15 -80 -20 -105 -5 -25
-12 -64 -15 -86 l-6 -42 38 -6 c22 -3 55 -7 74 -8 l35 -3 12 115 c6 63 12 143
12 178 l1 62 -50 0 c-43 0 -52 -3 -60 -22z m21 -45 c-9 -16 -10 -16 -11 -1 0
9 3 25 7 35 7 16 8 17 11 1 2 -10 -1 -25 -7 -35z m46 -105 c-3 -22 -4 -21 -11
4 -5 16 -5 36 0 45 7 16 8 15 11 -4 3 -13 3 -33 0 -45z m-62 -97 c-4 -17 -10
-33 -15 -36 -4 -3 -3 13 2 35 12 47 23 47 13 1z"/>
<path d="M15374 7443 c-6 -5 -14 -35 -17 -68 -4 -33 -13 -118 -21 -190 -11
-92 -12 -131 -4 -136 12 -8 217 -23 224 -17 5 6 -11 396 -17 402 -9 8 -155 16
-165 9z m26 -103 c0 -22 -4 -40 -10 -40 -11 0 -13 39 -4 64 10 26 14 19 14
-24z m90 -106 c0 -28 -4 -43 -10 -39 -5 3 -10 26 -10 51 0 28 4 43 10 39 6 -3
10 -26 10 -51z m-78 -101 c-10 -28 -10 -28 -11 12 -1 28 2 36 10 28 8 -8 8
-19 1 -40z"/>
<path d="M15323 6977 c-8 -13 -19 -90 -29 -218 l-7 -86 138 -7 c85 -5 141 -4
147 2 12 12 -5 289 -18 301 -16 15 -223 21 -231 8z m46 -79 c-1 -7 -5 -24 -9
-38 -7 -22 -8 -21 -9 13 -1 20 4 37 9 37 6 0 10 -6 9 -12z m72 -100 c-8 -28
-9 -30 -10 -8 -1 34 12 80 17 58 2 -9 -1 -31 -7 -50z m-105 -84 c-4 -14 -9
-24 -12 -21 -3 2 -2 17 2 31 3 15 9 25 11 22 3 -3 2 -17 -1 -32z"/>
<path d="M13930 6649 c-70 -20 -126 -55 -196 -125 -55 -54 -82 -91 -113 -156
-51 -105 -59 -180 -40 -358 18 -168 17 -208 -14 -327 -15 -56 -27 -115 -27
-131 0 -71 102 -132 221 -132 71 0 73 0 111 40 21 23 38 49 38 58 0 10 4 22 8
27 24 27 51 294 33 323 -5 9 -17 -1 -40 -32 -17 -25 -37 -49 -44 -53 -9 -5 -9
-3 -1 8 21 26 94 166 110 210 20 55 44 165 44 201 0 64 -45 188 -69 188 -10 0
-55 -33 -100 -74 -76 -71 -145 -203 -170 -326 -32 -164 -31 -161 -26 -50 4
120 25 197 78 292 54 97 204 229 243 214 8 -3 29 -36 46 -73 27 -59 31 -80 32
-155 0 -47 3 -85 7 -82 4 2 26 43 50 91 42 85 44 91 44 178 -1 75 -5 99 -27
146 -38 84 -115 121 -198 98z m-144 -923 c15 -12 19 -27 19 -79 0 -54 -4 -69
-28 -100 -38 -50 -78 -51 -101 -3 -9 19 -16 42 -16 53 0 61 51 143 88 143 10
0 27 -6 38 -14z"/>
<path d="M8715 6284 c-16 -8 -46 -31 -66 -51 -31 -30 -40 -33 -57 -24 -67 36
-164 -11 -292 -141 l-96 -97 -21 77 c-43 154 -99 242 -153 242 -79 0 -108
-145 -121 -615 -5 -165 -11 -333 -15 -373 -5 -66 -3 -76 20 -117 39 -65 119
-115 186 -115 40 0 100 25 151 63 25 19 70 47 100 63 116 63 244 221 342 424
102 209 152 392 152 548 0 91 -2 105 -19 118 -26 18 -73 18 -111 -2z m24 -92
c-10 -47 -32 -98 -59 -137 l-20 -30 6 35 c9 47 66 170 79 170 2 0 -1 -17 -6
-38z m-710 -82 c0 -25 -2 -56 -6 -69 -6 -23 -7 -23 -14 -5 -10 25 -11 92 -2
135 7 33 7 33 14 9 4 -14 7 -45 8 -70z m547 65 c36 -25 46 -66 41 -162 -16
-288 -160 -637 -331 -803 -77 -75 -124 -100 -189 -100 -61 0 -102 21 -143 75
-25 33 -28 45 -27 108 2 148 117 399 284 620 112 149 204 233 289 263 45 17
52 17 76 -1z m-466 -165 c0 -49 -4 -92 -10 -95 -6 -4 -10 30 -10 95 0 65 4 99
10 95 6 -3 10 -46 10 -95z m675 8 c-17 -104 -63 -245 -111 -340 -38 -76 -53
-90 -26 -25 10 23 28 76 41 117 13 41 27 84 31 95 4 11 20 59 36 108 15 48 29
87 32 87 2 0 1 -19 -3 -42z m-808 -107 c-3 -47 -10 -97 -15 -111 -9 -20 -11
-10 -11 56 -1 45 2 103 6 129 11 80 26 24 20 -74z m723 2 c-21 -95 -59 -201
-92 -264 -17 -32 -33 -57 -34 -56 -3 3 98 306 107 322 4 6 9 23 13 39 4 15 10
26 13 22 3 -3 0 -32 -7 -63z m-670 -141 c-4 -40 -11 -76 -14 -79 -8 -9 -7 143
1 192 l7 40 7 -40 c4 -22 3 -73 -1 -113z m516 -309 c-29 -57 -85 -124 -129
-155 -18 -12 -27 -16 -21 -8 67 93 163 210 171 210 2 0 -8 -21 -21 -47z"/>
<path d="M14265 6188 c-51 -18 -133 -86 -161 -134 -35 -59 -54 -140 -54 -229
l0 -70 21 43 c48 97 188 212 223 183 19 -16 56 -104 72 -171 28 -117 10 -259
-48 -380 -15 -30 -87 -140 -92 -140 -2 0 11 29 28 65 59 116 79 198 79 315 0
58 -5 123 -12 145 -22 70 -44 115 -57 115 -24 0 -99 -66 -136 -120 -49 -74
-76 -164 -92 -312 -8 -71 -15 -104 -16 -78 -3 87 -11 88 -62 3 -73 -120 -108
-217 -108 -299 0 -93 96 -163 226 -164 64 0 73 2 96 28 15 15 36 58 48 97 42
137 60 176 117 252 32 41 75 99 96 127 105 139 136 272 103 442 -27 142 -97
249 -183 278 -53 18 -48 18 -88 4z m-155 -928 c40 -40 18 -154 -39 -197 -22
-17 -51 -16 -73 4 -42 37 -7 170 52 200 33 17 37 16 60 -7z"/>
<path d="M12139 6179 c-154 -17 -289 -136 -289 -255 0 -111 66 -186 194 -219
70 -18 104 -18 178 -1 80 20 137 49 184 96 37 37 83 114 73 124 -2 2 -36 7
-75 11 l-71 7 -51 -45 c-62 -56 -133 -81 -186 -66 -37 10 -90 50 -106 78 -8
15 -3 17 48 13 79 -6 133 12 189 60 l47 41 87 -7 c124 -9 140 17 53 94 -70 61
-156 83 -275 69z"/>
<path d="M12633 6157 c-42 -16 -77 -51 -70 -70 4 -12 16 -14 46 -10 34 5 48 1
81 -22 29 -20 54 -28 85 -29 l45 -1 -25 -24 c-36 -36 -84 -33 -135 8 -37 29
-45 32 -73 24 -24 -7 -31 -14 -29 -29 12 -67 140 -119 233 -94 168 45 109 246
-75 257 -28 1 -66 -3 -83 -10z"/>
<path d="M12565 5841 c-61 -12 -90 -27 -135 -67 -39 -35 -70 -89 -70 -120 0
-21 33 -17 91 12 46 23 56 25 84 15 50 -18 126 -14 163 9 29 18 32 18 32 2 0
-28 -38 -82 -66 -92 -38 -15 -98 -12 -144 6 -39 16 -41 15 -85 -10 -39 -23
-44 -30 -35 -46 21 -40 88 -64 175 -63 93 0 136 16 196 70 70 63 85 127 47
195 -41 72 -147 109 -253 89z"/>
<path d="M11648 4828 c-20 -7 -28 -17 -28 -34 0 -19 17 -36 70 -75 l70 -51 0
-79 0 -78 -47 -32 c-94 -63 -93 -62 -93 -164 0 -51 5 -106 11 -123 7 -22 7
-36 0 -51 -6 -11 -7 -22 -2 -25 5 -3 11 1 15 9 4 12 27 15 119 15 l113 0 43
-61 43 -61 -22 -72 c-12 -39 -25 -85 -30 -102 -7 -31 -6 -32 19 -24 97 27 229
132 269 213 12 23 38 89 57 147 33 93 36 112 30 169 -10 106 -83 287 -105 264
-5 -4 -24 -48 -44 -98 -19 -49 -40 -91 -48 -93 -7 -2 -22 -7 -33 -11 -94 -37
-86 -39 -200 46 l-76 56 3 81 3 81 70 52 c39 29 78 53 89 53 10 0 39 -15 65
-33 63 -45 123 -79 128 -73 3 2 -15 19 -39 36 -84 61 -158 101 -213 115 -63
17 -196 19 -237 3z m547 -480 c59 -42 75 -57 71 -73 -8 -38 -78 -230 -88 -242
-12 -15 -144 -18 -182 -4 -13 6 -42 36 -64 68 l-40 58 34 99 c34 100 52 125
91 126 12 0 25 5 28 10 3 6 21 10 40 10 25 0 55 -14 110 -52z"/>
<path d="M11460 4740 c0 -5 -5 -10 -11 -10 -5 0 -24 -13 -42 -30 -18 -16 -26
-30 -19 -30 6 0 12 3 12 8 0 4 20 20 45 35 48 31 53 37 30 37 -8 0 -15 -4 -15
-10z"/>
<path d="M11337 4633 c-37 -61 -71 -136 -82 -181 -16 -62 -20 -172 -6 -172 5
0 39 25 76 55 37 31 76 60 86 66 25 13 25 17 -13 137 -29 90 -47 118 -61 95z"/>
<path d="M11250 4200 c0 -11 4 -28 9 -38 5 -9 21 -44 36 -76 31 -70 85 -138
139 -178 63 -45 76 -31 29 30 -15 20 -27 45 -28 56 -1 18 -9 22 -47 24 l-46 3
-42 100 c-23 54 -44 99 -46 99 -2 0 -4 -9 -4 -20z"/>
<path d="M11705 3801 c30 -7 156 -4 164 5 2 2 -40 3 -95 3 -61 -1 -88 -4 -69
-8z"/>
</g>
</svg>
